<svg width="1363" height="163" viewBox="0 0 1363 163" fill="none" xmlns="http://www.w3.org/2000/svg">
<path d="M0 15C0 6.71573 6.71573 0 15 0H37V163H15C6.71573 163 0 156.284 0 148V15Z" fill="#424242"/>
<rect width="1097" height="163" transform="translate(37)" fill="#F0F0F0"/>
<path d="M101.906 53.9219L94.3945 51.2383V48.0859L104.602 52.375V54.6367L101.906 53.9219ZM94.3945 56.1719L101.918 53.4297L104.602 52.7852V55.0352L94.3945 59.3242V56.1719ZM126.422 52.082V58.8438C126.156 59.1641 125.746 59.5117 125.191 59.8867C124.637 60.2539 123.922 60.5703 123.047 60.8359C122.172 61.1016 121.113 61.2344 119.871 61.2344C118.77 61.2344 117.766 61.0547 116.859 60.6953C115.953 60.3281 115.172 59.793 114.516 59.0898C113.867 58.3867 113.367 57.5273 113.016 56.5117C112.664 55.4883 112.488 54.3203 112.488 53.0078V51.9414C112.488 50.6289 112.656 49.4609 112.992 48.4375C113.336 47.4141 113.824 46.5508 114.457 45.8477C115.09 45.1445 115.844 44.6094 116.719 44.2422C117.594 43.875 118.566 43.6914 119.637 43.6914C121.121 43.6914 122.34 43.9336 123.293 44.418C124.246 44.8945 124.973 45.5586 125.473 46.4102C125.98 47.2539 126.293 48.2227 126.41 49.3164H123C122.914 48.7383 122.75 48.2344 122.508 47.8047C122.266 47.375 121.918 47.0391 121.465 46.7969C121.02 46.5547 120.441 46.4336 119.73 46.4336C119.145 46.4336 118.621 46.5547 118.16 46.7969C117.707 47.0312 117.324 47.3789 117.012 47.8398C116.699 48.3008 116.461 48.8711 116.297 49.5508C116.133 50.2305 116.051 51.0195 116.051 51.918V53.0078C116.051 53.8984 116.137 54.6875 116.309 55.375C116.48 56.0547 116.734 56.6289 117.07 57.0977C117.414 57.5586 117.836 57.9062 118.336 58.1406C118.836 58.375 119.418 58.4922 120.082 58.4922C120.637 58.4922 121.098 58.4453 121.465 58.3516C121.84 58.2578 122.141 58.1445 122.367 58.0117C122.602 57.8711 122.781 57.7383 122.906 57.6133V54.5898H119.695V52.082H126.422ZM135.891 58.1406V52.4922C135.891 52.0859 135.824 51.7383 135.691 51.4492C135.559 51.1523 135.352 50.9219 135.07 50.7578C134.797 50.5938 134.441 50.5117 134.004 50.5117C133.629 50.5117 133.305 50.5781 133.031 50.7109C132.758 50.8359 132.547 51.0195 132.398 51.2617C132.25 51.4961 132.176 51.7734 132.176 52.0938H128.801C128.801 51.5547 128.926 51.043 129.176 50.5586C129.426 50.0742 129.789 49.6484 130.266 49.2812C130.742 48.9062 131.309 48.6133 131.965 48.4023C132.629 48.1914 133.371 48.0859 134.191 48.0859C135.176 48.0859 136.051 48.25 136.816 48.5781C137.582 48.9062 138.184 49.3984 138.621 50.0547C139.066 50.7109 139.289 51.5312 139.289 52.5156V57.9414C139.289 58.6367 139.332 59.207 139.418 59.6523C139.504 60.0898 139.629 60.4727 139.793 60.8008V61H136.383C136.219 60.6562 136.094 60.2266 136.008 59.7109C135.93 59.1875 135.891 58.6641 135.891 58.1406ZM136.336 53.2773L136.359 55.1875H134.473C134.027 55.1875 133.641 55.2383 133.312 55.3398C132.984 55.4414 132.715 55.5859 132.504 55.7734C132.293 55.9531 132.137 56.1641 132.035 56.4062C131.941 56.6484 131.895 56.9141 131.895 57.2031C131.895 57.4922 131.961 57.7539 132.094 57.9883C132.227 58.2148 132.418 58.3945 132.668 58.5273C132.918 58.6523 133.211 58.7148 133.547 58.7148C134.055 58.7148 134.496 58.6133 134.871 58.4102C135.246 58.207 135.535 57.957 135.738 57.6602C135.949 57.3633 136.059 57.082 136.066 56.8164L136.957 58.2461C136.832 58.5664 136.66 58.8984 136.441 59.2422C136.23 59.5859 135.961 59.9102 135.633 60.2148C135.305 60.5117 134.91 60.7578 134.449 60.9531C133.988 61.1406 133.441 61.2344 132.809 61.2344C132.004 61.2344 131.273 61.0742 130.617 60.7539C129.969 60.4258 129.453 59.9766 129.07 59.4062C128.695 58.8281 128.508 58.1719 128.508 57.4375C128.508 56.7734 128.633 56.1836 128.883 55.668C129.133 55.1523 129.5 54.7188 129.984 54.3672C130.477 54.0078 131.09 53.7383 131.824 53.5586C132.559 53.3711 133.41 53.2773 134.379 53.2773H136.336ZM149.379 58.2344V43H152.777V61H149.719L149.379 58.2344ZM141.363 54.8125V54.5664C141.363 53.5977 141.473 52.7188 141.691 51.9297C141.91 51.1328 142.23 50.4492 142.652 49.8789C143.074 49.3086 143.594 48.8672 144.211 48.5547C144.828 48.2422 145.531 48.0859 146.32 48.0859C147.062 48.0859 147.711 48.2422 148.266 48.5547C148.828 48.8672 149.305 49.3125 149.695 49.8906C150.094 50.4609 150.414 51.1367 150.656 51.918C150.898 52.6914 151.074 53.5391 151.184 54.4609V55C151.074 55.8828 150.898 56.7031 150.656 57.4609C150.414 58.2188 150.094 58.8828 149.695 59.4531C149.305 60.0156 148.828 60.4531 148.266 60.7656C147.703 61.0781 147.047 61.2344 146.297 61.2344C145.508 61.2344 144.805 61.0742 144.188 60.7539C143.578 60.4336 143.062 59.9844 142.641 59.4062C142.227 58.8281 141.91 58.1484 141.691 57.3672C141.473 56.5859 141.363 55.7344 141.363 54.8125ZM144.738 54.5664V54.8125C144.738 55.3359 144.777 55.8242 144.855 56.2773C144.941 56.7305 145.078 57.1328 145.266 57.4844C145.461 57.8281 145.711 58.0977 146.016 58.293C146.328 58.4805 146.707 58.5742 147.152 58.5742C147.73 58.5742 148.207 58.4453 148.582 58.1875C148.957 57.9219 149.242 57.5586 149.438 57.0977C149.641 56.6367 149.758 56.1055 149.789 55.5039V53.9688C149.766 53.4766 149.695 53.0352 149.578 52.6445C149.469 52.2461 149.305 51.9062 149.086 51.625C148.875 51.3438 148.609 51.125 148.289 50.9688C147.977 50.8125 147.605 50.7344 147.176 50.7344C146.738 50.7344 146.363 50.8359 146.051 51.0391C145.738 51.2344 145.484 51.5039 145.289 51.8477C145.102 52.1914 144.961 52.5977 144.867 53.0664C144.781 53.5273 144.738 54.0273 144.738 54.5664ZM166.594 58.2578V61H158.004V58.2578H166.594ZM159.141 43.9375V61H155.625V43.9375H159.141ZM171.961 48.3203V61H168.574V48.3203H171.961ZM168.363 45.0156C168.363 44.5234 168.535 44.1172 168.879 43.7969C169.223 43.4766 169.684 43.3164 170.262 43.3164C170.832 43.3164 171.289 43.4766 171.633 43.7969C171.984 44.1172 172.16 44.5234 172.16 45.0156C172.16 45.5078 171.984 45.9141 171.633 46.2344C171.289 46.5547 170.832 46.7148 170.262 46.7148C169.684 46.7148 169.223 46.5547 168.879 46.2344C168.535 45.9141 168.363 45.5078 168.363 45.0156ZM179.051 61H175.652V47.1953C175.652 46.2344 175.84 45.4258 176.215 44.7695C176.598 44.1055 177.133 43.6055 177.82 43.2695C178.516 42.9258 179.34 42.7539 180.293 42.7539C180.605 42.7539 180.906 42.7773 181.195 42.8242C181.484 42.8633 181.766 42.9141 182.039 42.9766L182.004 45.5195C181.855 45.4805 181.699 45.4531 181.535 45.4375C181.371 45.4219 181.18 45.4141 180.961 45.4141C180.555 45.4141 180.207 45.4844 179.918 45.625C179.637 45.7578 179.422 45.957 179.273 46.2227C179.125 46.4883 179.051 46.8125 179.051 47.1953V61ZM181.582 48.3203V50.7109H173.766V48.3203H181.582ZM189.562 48.3203V50.7109H182.18V48.3203H189.562ZM184.008 45.1914H187.383V57.1797C187.383 57.5469 187.43 57.8281 187.523 58.0234C187.625 58.2188 187.773 58.3555 187.969 58.4336C188.164 58.5039 188.41 58.5391 188.707 58.5391C188.918 58.5391 189.105 58.5312 189.27 58.5156C189.441 58.4922 189.586 58.4688 189.703 58.4453L189.715 60.9297C189.426 61.0234 189.113 61.0977 188.777 61.1523C188.441 61.207 188.07 61.2344 187.664 61.2344C186.922 61.2344 186.273 61.1133 185.719 60.8711C185.172 60.6211 184.75 60.2227 184.453 59.6758C184.156 59.1289 184.008 58.4102 184.008 57.5195V45.1914Z" fill="#888888"/>
<path d="M114.117 84.875H122.344V107.164C122.344 109.82 121.789 112.07 120.68 113.914C119.57 115.742 118.016 117.125 116.016 118.062C114.016 119 111.664 119.469 108.961 119.469C106.289 119.469 103.938 119 101.906 118.062C99.8906 117.125 98.3125 115.742 97.1719 113.914C96.0469 112.07 95.4844 109.82 95.4844 107.164V84.875H103.734V107.164C103.734 108.57 103.938 109.719 104.344 110.609C104.75 111.484 105.344 112.125 106.125 112.531C106.906 112.938 107.852 113.141 108.961 113.141C110.086 113.141 111.031 112.938 111.797 112.531C112.562 112.125 113.141 111.484 113.531 110.609C113.922 109.719 114.117 108.57 114.117 107.164V84.875ZM134.906 99.0547V119H127.008V93.6406H134.414L134.906 99.0547ZM133.969 105.453L132.117 105.5C132.117 103.562 132.352 101.836 132.82 100.32C133.289 98.7891 133.953 97.4922 134.812 96.4297C135.672 95.3672 136.695 94.5625 137.883 94.0156C139.086 93.4531 140.422 93.1719 141.891 93.1719C143.062 93.1719 144.133 93.3438 145.102 93.6875C146.086 94.0312 146.93 94.5859 147.633 95.3516C148.352 96.1172 148.898 97.1328 149.273 98.3984C149.664 99.6484 149.859 101.195 149.859 103.039V119H141.914V103.016C141.914 102 141.773 101.227 141.492 100.695C141.211 100.148 140.805 99.7734 140.273 99.5703C139.742 99.3672 139.094 99.2656 138.328 99.2656C137.516 99.2656 136.828 99.4219 136.266 99.7344C135.703 100.047 135.25 100.484 134.906 101.047C134.578 101.594 134.336 102.242 134.18 102.992C134.039 103.742 133.969 104.562 133.969 105.453ZM162.586 93.6406V119H154.664V93.6406H162.586ZM154.195 87.1016C154.195 85.9766 154.602 85.0547 155.414 84.3359C156.227 83.6172 157.281 83.2578 158.578 83.2578C159.875 83.2578 160.93 83.6172 161.742 84.3359C162.555 85.0547 162.961 85.9766 162.961 87.1016C162.961 88.2266 162.555 89.1484 161.742 89.8672C160.93 90.5859 159.875 90.9453 158.578 90.9453C157.281 90.9453 156.227 90.5859 155.414 89.8672C154.602 89.1484 154.195 88.2266 154.195 87.1016ZM180.82 93.6406V99.125H165.539V93.6406H180.82ZM168.75 87.3359H176.648V110.727C176.648 111.398 176.727 111.922 176.883 112.297C177.039 112.656 177.305 112.914 177.68 113.07C178.07 113.211 178.586 113.281 179.227 113.281C179.68 113.281 180.055 113.273 180.352 113.258C180.648 113.227 180.93 113.188 181.195 113.141V118.789C180.523 119.008 179.82 119.172 179.086 119.281C178.352 119.406 177.57 119.469 176.742 119.469C175.055 119.469 173.609 119.203 172.406 118.672C171.219 118.141 170.312 117.305 169.688 116.164C169.062 115.023 168.75 113.539 168.75 111.711V87.3359ZM211.406 84.875V119H203.18V84.875H211.406ZM221.672 84.875V91.2266H193.148V84.875H221.672ZM234.961 119.469C232.898 119.469 231.055 119.148 229.43 118.508C227.805 117.852 226.43 116.953 225.305 115.812C224.195 114.672 223.344 113.359 222.75 111.875C222.172 110.391 221.883 108.82 221.883 107.164V106.273C221.883 104.414 222.141 102.695 222.656 101.117C223.172 99.5234 223.938 98.1328 224.953 96.9453C225.969 95.7578 227.242 94.8359 228.773 94.1797C230.305 93.5078 232.086 93.1719 234.117 93.1719C235.914 93.1719 237.523 93.4609 238.945 94.0391C240.367 94.6172 241.57 95.4453 242.555 96.5234C243.555 97.6016 244.312 98.9062 244.828 100.438C245.359 101.969 245.625 103.688 245.625 105.594V108.805H224.906V103.859H237.914V103.25C237.93 102.406 237.781 101.688 237.469 101.094C237.172 100.5 236.734 100.047 236.156 99.7344C235.578 99.4219 234.875 99.2656 234.047 99.2656C233.188 99.2656 232.477 99.4531 231.914 99.8281C231.367 100.203 230.938 100.719 230.625 101.375C230.328 102.016 230.117 102.758 229.992 103.602C229.867 104.445 229.805 105.336 229.805 106.273V107.164C229.805 108.102 229.93 108.953 230.18 109.719C230.445 110.484 230.82 111.141 231.305 111.688C231.805 112.219 232.398 112.633 233.086 112.93C233.789 113.227 234.586 113.375 235.477 113.375C236.555 113.375 237.617 113.172 238.664 112.766C239.711 112.359 240.609 111.688 241.359 110.75L244.945 115.016C244.43 115.75 243.695 116.461 242.742 117.148C241.805 117.836 240.68 118.398 239.367 118.836C238.055 119.258 236.586 119.469 234.961 119.469ZM262.125 111.875C262.125 111.438 261.977 111.062 261.68 110.75C261.398 110.422 260.898 110.125 260.18 109.859C259.461 109.578 258.453 109.297 257.156 109.016C255.922 108.75 254.758 108.398 253.664 107.961C252.586 107.523 251.641 106.992 250.828 106.367C250.016 105.742 249.375 105 248.906 104.141C248.453 103.281 248.227 102.297 248.227 101.188C248.227 100.109 248.453 99.0938 248.906 98.1406C249.375 97.1719 250.055 96.3203 250.945 95.5859C251.852 94.8359 252.953 94.25 254.25 93.8281C255.547 93.3906 257.023 93.1719 258.68 93.1719C260.961 93.1719 262.93 93.5234 264.586 94.2266C266.242 94.9141 267.516 95.8828 268.406 97.1328C269.312 98.3672 269.766 99.7969 269.766 101.422H261.867C261.867 100.781 261.758 100.234 261.539 99.7812C261.336 99.3281 261 98.9844 260.531 98.75C260.062 98.5 259.438 98.375 258.656 98.375C258.109 98.375 257.609 98.4766 257.156 98.6797C256.719 98.8828 256.367 99.1641 256.102 99.5234C255.836 99.8828 255.703 100.305 255.703 100.789C255.703 101.133 255.781 101.445 255.938 101.727C256.109 101.992 256.367 102.242 256.711 102.477C257.055 102.695 257.492 102.898 258.023 103.086C258.555 103.258 259.195 103.414 259.945 103.555C261.648 103.867 263.242 104.312 264.727 104.891C266.211 105.469 267.414 106.289 268.336 107.352C269.273 108.414 269.742 109.844 269.742 111.641C269.742 112.766 269.484 113.805 268.969 114.758C268.453 115.695 267.711 116.523 266.742 117.242C265.773 117.945 264.609 118.492 263.25 118.883C261.891 119.273 260.359 119.469 258.656 119.469C256.234 119.469 254.188 119.039 252.516 118.18C250.844 117.305 249.578 116.211 248.719 114.898C247.875 113.57 247.453 112.227 247.453 110.867H254.812C254.844 111.648 255.031 112.289 255.375 112.789C255.734 113.289 256.211 113.656 256.805 113.891C257.398 114.125 258.086 114.242 258.867 114.242C259.586 114.242 260.18 114.141 260.648 113.938C261.133 113.734 261.5 113.461 261.75 113.117C262 112.758 262.125 112.344 262.125 111.875ZM286.805 93.6406V99.125H271.523V93.6406H286.805ZM274.734 87.3359H282.633V110.727C282.633 111.398 282.711 111.922 282.867 112.297C283.023 112.656 283.289 112.914 283.664 113.07C284.055 113.211 284.57 113.281 285.211 113.281C285.664 113.281 286.039 113.273 286.336 113.258C286.633 113.227 286.914 113.188 287.18 113.141V118.789C286.508 119.008 285.805 119.172 285.07 119.281C284.336 119.406 283.555 119.469 282.727 119.469C281.039 119.469 279.594 119.203 278.391 118.672C277.203 118.141 276.297 117.305 275.672 116.164C275.047 115.023 274.734 113.539 274.734 111.711V87.3359ZM298.289 93.6406V119H290.367V93.6406H298.289ZM289.898 87.1016C289.898 85.9766 290.305 85.0547 291.117 84.3359C291.93 83.6172 292.984 83.2578 294.281 83.2578C295.578 83.2578 296.633 83.6172 297.445 84.3359C298.258 85.0547 298.664 85.9766 298.664 87.1016C298.664 88.2266 298.258 89.1484 297.445 89.8672C296.633 90.5859 295.578 90.9453 294.281 90.9453C292.984 90.9453 291.93 90.5859 291.117 89.8672C290.305 89.1484 289.898 88.2266 289.898 87.1016ZM310.922 99.0547V119H303.023V93.6406H310.43L310.922 99.0547ZM309.984 105.453L308.133 105.5C308.133 103.562 308.367 101.836 308.836 100.32C309.305 98.7891 309.969 97.4922 310.828 96.4297C311.688 95.3672 312.711 94.5625 313.898 94.0156C315.102 93.4531 316.438 93.1719 317.906 93.1719C319.078 93.1719 320.148 93.3438 321.117 93.6875C322.102 94.0312 322.945 94.5859 323.648 95.3516C324.367 96.1172 324.914 97.1328 325.289 98.3984C325.68 99.6484 325.875 101.195 325.875 103.039V119H317.93V103.016C317.93 102 317.789 101.227 317.508 100.695C317.227 100.148 316.82 99.7734 316.289 99.5703C315.758 99.3672 315.109 99.2656 314.344 99.2656C313.531 99.2656 312.844 99.4219 312.281 99.7344C311.719 100.047 311.266 100.484 310.922 101.047C310.594 101.594 310.352 102.242 310.195 102.992C310.055 103.742 309.984 104.562 309.984 105.453ZM346.195 93.6406H353.367V118.016C353.367 120.359 352.828 122.344 351.75 123.969C350.672 125.609 349.164 126.852 347.227 127.695C345.305 128.555 343.055 128.984 340.477 128.984C339.336 128.984 338.172 128.836 336.984 128.539C335.797 128.258 334.688 127.836 333.656 127.273C332.625 126.711 331.758 126.016 331.055 125.188L334.359 120.547C335 121.266 335.805 121.875 336.773 122.375C337.742 122.891 338.883 123.148 340.195 123.148C341.336 123.148 342.289 122.945 343.055 122.539C343.836 122.133 344.43 121.539 344.836 120.758C345.242 119.992 345.445 119.062 345.445 117.969V99.6406L346.195 93.6406ZM329.344 106.625V106.133C329.344 104.211 329.578 102.461 330.047 100.883C330.531 99.2891 331.219 97.9219 332.109 96.7812C333.016 95.625 334.109 94.7344 335.391 94.1094C336.672 93.4844 338.117 93.1719 339.727 93.1719C341.461 93.1719 342.883 93.5078 343.992 94.1797C345.117 94.8359 346.016 95.7578 346.688 96.9453C347.375 98.1328 347.906 99.5234 348.281 101.117C348.672 102.695 349 104.398 349.266 106.227V106.812C349 108.531 348.633 110.156 348.164 111.688C347.711 113.203 347.117 114.547 346.383 115.719C345.648 116.891 344.727 117.812 343.617 118.484C342.523 119.141 341.211 119.469 339.68 119.469C338.086 119.469 336.648 119.148 335.367 118.508C334.102 117.867 333.016 116.969 332.109 115.812C331.219 114.656 330.531 113.297 330.047 111.734C329.578 110.172 329.344 108.469 329.344 106.625ZM337.242 106.133V106.625C337.242 107.578 337.328 108.461 337.5 109.273C337.688 110.086 337.969 110.805 338.344 111.43C338.719 112.039 339.18 112.516 339.727 112.859C340.289 113.203 340.945 113.375 341.695 113.375C342.836 113.375 343.758 113.133 344.461 112.648C345.164 112.164 345.672 111.477 345.984 110.586C346.297 109.695 346.43 108.648 346.383 107.445V105.594C346.414 104.562 346.344 103.656 346.172 102.875C346 102.078 345.727 101.414 345.352 100.883C344.992 100.352 344.508 99.9531 343.898 99.6875C343.305 99.4062 342.586 99.2656 341.742 99.2656C341.008 99.2656 340.359 99.4375 339.797 99.7812C339.234 100.125 338.766 100.609 338.391 101.234C338.016 101.844 337.727 102.57 337.523 103.414C337.336 104.242 337.242 105.148 337.242 106.133Z" fill="black"/>
<path d="M1134 0H1348C1356.28 0 1363 6.71573 1363 15V148C1363 156.284 1356.28 163 1348 163H1134V0Z" fill="#2FE2EE"/>
<path d="M1210.62 43.625H1286.38V119.375H1210.62V43.625Z" fill="white" fill-opacity="0.01"/>
<path d="M1276.91 72.0312V105.172C1276.91 107.787 1274.79 109.906 1272.17 109.906H1224.83C1222.21 109.906 1220.09 107.787 1220.09 105.172V57.8281C1220.09 55.2134 1222.21 53.0938 1224.83 53.0938H1261.12" stroke="white" stroke-width="7.24" stroke-linecap="round" stroke-linejoin="round"/>
<path d="M1232.72 75.1875L1248.5 87.8125L1276.91 53.0938" stroke="white" stroke-width="7.24" stroke-linecap="round" stroke-linejoin="round"/>
</svg>
