<svg width="1363" height="163" viewBox="0 0 1363 163" fill="none" xmlns="http://www.w3.org/2000/svg">
<path d="M0 15C0 6.71573 6.71573 0 15 0H37V163H15C6.71573 163 0 156.284 0 148V15Z" fill="#424242"/>
<rect width="1097" height="163" transform="translate(37)" fill="#F0F0F0"/>
<path d="M101.906 53.9219L94.3945 51.2383V48.0859L104.602 52.375V54.6367L101.906 53.9219ZM94.3945 56.1719L101.918 53.4297L104.602 52.7852V55.0352L94.3945 59.3242V56.1719ZM126.422 52.082V58.8438C126.156 59.1641 125.746 59.5117 125.191 59.8867C124.637 60.2539 123.922 60.5703 123.047 60.8359C122.172 61.1016 121.113 61.2344 119.871 61.2344C118.77 61.2344 117.766 61.0547 116.859 60.6953C115.953 60.3281 115.172 59.793 114.516 59.0898C113.867 58.3867 113.367 57.5273 113.016 56.5117C112.664 55.4883 112.488 54.3203 112.488 53.0078V51.9414C112.488 50.6289 112.656 49.4609 112.992 48.4375C113.336 47.4141 113.824 46.5508 114.457 45.8477C115.09 45.1445 115.844 44.6094 116.719 44.2422C117.594 43.875 118.566 43.6914 119.637 43.6914C121.121 43.6914 122.34 43.9336 123.293 44.418C124.246 44.8945 124.973 45.5586 125.473 46.4102C125.98 47.2539 126.293 48.2227 126.41 49.3164H123C122.914 48.7383 122.75 48.2344 122.508 47.8047C122.266 47.375 121.918 47.0391 121.465 46.7969C121.02 46.5547 120.441 46.4336 119.73 46.4336C119.145 46.4336 118.621 46.5547 118.16 46.7969C117.707 47.0312 117.324 47.3789 117.012 47.8398C116.699 48.3008 116.461 48.8711 116.297 49.5508C116.133 50.2305 116.051 51.0195 116.051 51.918V53.0078C116.051 53.8984 116.137 54.6875 116.309 55.375C116.48 56.0547 116.734 56.6289 117.07 57.0977C117.414 57.5586 117.836 57.9062 118.336 58.1406C118.836 58.375 119.418 58.4922 120.082 58.4922C120.637 58.4922 121.098 58.4453 121.465 58.3516C121.84 58.2578 122.141 58.1445 122.367 58.0117C122.602 57.8711 122.781 57.7383 122.906 57.6133V54.5898H119.695V52.082H126.422ZM135.891 58.1406V52.4922C135.891 52.0859 135.824 51.7383 135.691 51.4492C135.559 51.1523 135.352 50.9219 135.07 50.7578C134.797 50.5938 134.441 50.5117 134.004 50.5117C133.629 50.5117 133.305 50.5781 133.031 50.7109C132.758 50.8359 132.547 51.0195 132.398 51.2617C132.25 51.4961 132.176 51.7734 132.176 52.0938H128.801C128.801 51.5547 128.926 51.043 129.176 50.5586C129.426 50.0742 129.789 49.6484 130.266 49.2812C130.742 48.9062 131.309 48.6133 131.965 48.4023C132.629 48.1914 133.371 48.0859 134.191 48.0859C135.176 48.0859 136.051 48.25 136.816 48.5781C137.582 48.9062 138.184 49.3984 138.621 50.0547C139.066 50.7109 139.289 51.5312 139.289 52.5156V57.9414C139.289 58.6367 139.332 59.207 139.418 59.6523C139.504 60.0898 139.629 60.4727 139.793 60.8008V61H136.383C136.219 60.6562 136.094 60.2266 136.008 59.7109C135.93 59.1875 135.891 58.6641 135.891 58.1406ZM136.336 53.2773L136.359 55.1875H134.473C134.027 55.1875 133.641 55.2383 133.312 55.3398C132.984 55.4414 132.715 55.5859 132.504 55.7734C132.293 55.9531 132.137 56.1641 132.035 56.4062C131.941 56.6484 131.895 56.9141 131.895 57.2031C131.895 57.4922 131.961 57.7539 132.094 57.9883C132.227 58.2148 132.418 58.3945 132.668 58.5273C132.918 58.6523 133.211 58.7148 133.547 58.7148C134.055 58.7148 134.496 58.6133 134.871 58.4102C135.246 58.207 135.535 57.957 135.738 57.6602C135.949 57.3633 136.059 57.082 136.066 56.8164L136.957 58.2461C136.832 58.5664 136.66 58.8984 136.441 59.2422C136.23 59.5859 135.961 59.9102 135.633 60.2148C135.305 60.5117 134.91 60.7578 134.449 60.9531C133.988 61.1406 133.441 61.2344 132.809 61.2344C132.004 61.2344 131.273 61.0742 130.617 60.7539C129.969 60.4258 129.453 59.9766 129.07 59.4062C128.695 58.8281 128.508 58.1719 128.508 57.4375C128.508 56.7734 128.633 56.1836 128.883 55.668C129.133 55.1523 129.5 54.7188 129.984 54.3672C130.477 54.0078 131.09 53.7383 131.824 53.5586C132.559 53.3711 133.41 53.2773 134.379 53.2773H136.336ZM149.379 58.2344V43H152.777V61H149.719L149.379 58.2344ZM141.363 54.8125V54.5664C141.363 53.5977 141.473 52.7188 141.691 51.9297C141.91 51.1328 142.23 50.4492 142.652 49.8789C143.074 49.3086 143.594 48.8672 144.211 48.5547C144.828 48.2422 145.531 48.0859 146.32 48.0859C147.062 48.0859 147.711 48.2422 148.266 48.5547C148.828 48.8672 149.305 49.3125 149.695 49.8906C150.094 50.4609 150.414 51.1367 150.656 51.918C150.898 52.6914 151.074 53.5391 151.184 54.4609V55C151.074 55.8828 150.898 56.7031 150.656 57.4609C150.414 58.2188 150.094 58.8828 149.695 59.4531C149.305 60.0156 148.828 60.4531 148.266 60.7656C147.703 61.0781 147.047 61.2344 146.297 61.2344C145.508 61.2344 144.805 61.0742 144.188 60.7539C143.578 60.4336 143.062 59.9844 142.641 59.4062C142.227 58.8281 141.91 58.1484 141.691 57.3672C141.473 56.5859 141.363 55.7344 141.363 54.8125ZM144.738 54.5664V54.8125C144.738 55.3359 144.777 55.8242 144.855 56.2773C144.941 56.7305 145.078 57.1328 145.266 57.4844C145.461 57.8281 145.711 58.0977 146.016 58.293C146.328 58.4805 146.707 58.5742 147.152 58.5742C147.73 58.5742 148.207 58.4453 148.582 58.1875C148.957 57.9219 149.242 57.5586 149.438 57.0977C149.641 56.6367 149.758 56.1055 149.789 55.5039V53.9688C149.766 53.4766 149.695 53.0352 149.578 52.6445C149.469 52.2461 149.305 51.9062 149.086 51.625C148.875 51.3438 148.609 51.125 148.289 50.9688C147.977 50.8125 147.605 50.7344 147.176 50.7344C146.738 50.7344 146.363 50.8359 146.051 51.0391C145.738 51.2344 145.484 51.5039 145.289 51.8477C145.102 52.1914 144.961 52.5977 144.867 53.0664C144.781 53.5273 144.738 54.0273 144.738 54.5664ZM166.594 58.2578V61H158.004V58.2578H166.594ZM159.141 43.9375V61H155.625V43.9375H159.141ZM171.961 48.3203V61H168.574V48.3203H171.961ZM168.363 45.0156C168.363 44.5234 168.535 44.1172 168.879 43.7969C169.223 43.4766 169.684 43.3164 170.262 43.3164C170.832 43.3164 171.289 43.4766 171.633 43.7969C171.984 44.1172 172.16 44.5234 172.16 45.0156C172.16 45.5078 171.984 45.9141 171.633 46.2344C171.289 46.5547 170.832 46.7148 170.262 46.7148C169.684 46.7148 169.223 46.5547 168.879 46.2344C168.535 45.9141 168.363 45.5078 168.363 45.0156ZM179.051 61H175.652V47.1953C175.652 46.2344 175.84 45.4258 176.215 44.7695C176.598 44.1055 177.133 43.6055 177.82 43.2695C178.516 42.9258 179.34 42.7539 180.293 42.7539C180.605 42.7539 180.906 42.7773 181.195 42.8242C181.484 42.8633 181.766 42.9141 182.039 42.9766L182.004 45.5195C181.855 45.4805 181.699 45.4531 181.535 45.4375C181.371 45.4219 181.18 45.4141 180.961 45.4141C180.555 45.4141 180.207 45.4844 179.918 45.625C179.637 45.7578 179.422 45.957 179.273 46.2227C179.125 46.4883 179.051 46.8125 179.051 47.1953V61ZM181.582 48.3203V50.7109H173.766V48.3203H181.582ZM189.562 48.3203V50.7109H182.18V48.3203H189.562ZM184.008 45.1914H187.383V57.1797C187.383 57.5469 187.43 57.8281 187.523 58.0234C187.625 58.2188 187.773 58.3555 187.969 58.4336C188.164 58.5039 188.41 58.5391 188.707 58.5391C188.918 58.5391 189.105 58.5312 189.27 58.5156C189.441 58.4922 189.586 58.4688 189.703 58.4453L189.715 60.9297C189.426 61.0234 189.113 61.0977 188.777 61.1523C188.441 61.207 188.07 61.2344 187.664 61.2344C186.922 61.2344 186.273 61.1133 185.719 60.8711C185.172 60.6211 184.75 60.2227 184.453 59.6758C184.156 59.1289 184.008 58.4102 184.008 57.5195V45.1914Z" fill="#888888"/>
<path d="M114.117 84.875H122.344V107.164C122.344 109.82 121.789 112.07 120.68 113.914C119.57 115.742 118.016 117.125 116.016 118.062C114.016 119 111.664 119.469 108.961 119.469C106.289 119.469 103.938 119 101.906 118.062C99.8906 117.125 98.3125 115.742 97.1719 113.914C96.0469 112.07 95.4844 109.82 95.4844 107.164V84.875H103.734V107.164C103.734 108.57 103.938 109.719 104.344 110.609C104.75 111.484 105.344 112.125 106.125 112.531C106.906 112.938 107.852 113.141 108.961 113.141C110.086 113.141 111.031 112.938 111.797 112.531C112.562 112.125 113.141 111.484 113.531 110.609C113.922 109.719 114.117 108.57 114.117 107.164V84.875ZM136.266 84.875V119H128.062V84.875H136.266ZM172.523 84.875H180.75V107.164C180.75 109.82 180.195 112.07 179.086 113.914C177.977 115.742 176.422 117.125 174.422 118.062C172.422 119 170.07 119.469 167.367 119.469C164.695 119.469 162.344 119 160.312 118.062C158.297 117.125 156.719 115.742 155.578 113.914C154.453 112.07 153.891 109.82 153.891 107.164V84.875H162.141V107.164C162.141 108.57 162.344 109.719 162.75 110.609C163.156 111.484 163.75 112.125 164.531 112.531C165.312 112.938 166.258 113.141 167.367 113.141C168.492 113.141 169.438 112.938 170.203 112.531C170.969 112.125 171.547 111.484 171.938 110.609C172.328 109.719 172.523 108.57 172.523 107.164V84.875ZM193.078 84.875L198.656 96.2188L204.234 84.875H213.609L204.094 101.797L213.867 119H204.398L198.656 107.445L192.914 119H183.422L193.219 101.797L183.68 84.875H193.078Z" fill="black"/>
<path d="M1134 0H1348C1356.28 0 1363 6.71573 1363 15V148C1363 156.284 1356.28 163 1348 163H1134V0Z" fill="#2FE2EE"/>
<path d="M1248.5 111.917C1244.51 111.917 1240.55 111.13 1236.86 109.601C1233.17 108.073 1229.82 105.832 1226.99 103.008C1221.29 97.3036 1218.08 89.567 1218.08 81.5C1218.08 73.433 1221.29 65.6964 1226.99 59.9922C1232.7 54.2879 1240.43 51.0833 1248.5 51.0833C1265.23 51.0833 1278.92 63.25 1278.92 78.4583C1278.92 83.2985 1276.99 87.9405 1273.57 91.363C1270.15 94.7856 1265.51 96.7083 1260.67 96.7083H1255.19C1254.28 96.7083 1253.67 97.3167 1253.67 98.2292C1253.67 98.5333 1253.97 98.8375 1253.97 99.1417C1255.19 100.662 1255.8 102.487 1255.8 104.312C1256.1 108.571 1252.76 111.917 1248.5 111.917ZM1248.5 57.1667C1242.05 57.1667 1235.86 59.7303 1231.29 64.2937C1226.73 68.8571 1224.17 75.0464 1224.17 81.5C1224.17 87.9536 1226.73 94.1429 1231.29 98.7063C1235.86 103.27 1242.05 105.833 1248.5 105.833C1249.41 105.833 1250.02 105.225 1250.02 104.312C1250.02 103.704 1249.72 103.4 1249.72 103.096C1248.5 101.575 1247.89 100.054 1247.89 98.2292C1247.89 93.9708 1251.24 90.625 1255.5 90.625H1260.67C1263.89 90.625 1266.99 89.3432 1269.27 87.0615C1271.55 84.7798 1272.83 81.6851 1272.83 78.4583C1272.83 66.5958 1261.88 57.1667 1248.5 57.1667ZM1231.77 75.4167C1234.2 75.4167 1236.33 77.5458 1236.33 79.9792C1236.33 82.4125 1234.2 84.5417 1231.77 84.5417C1229.34 84.5417 1227.21 82.4125 1227.21 79.9792C1227.21 77.5458 1229.34 75.4167 1231.77 75.4167ZM1240.9 63.25C1243.33 63.25 1245.46 65.3792 1245.46 67.8125C1245.46 70.2458 1243.33 72.375 1240.9 72.375C1238.46 72.375 1236.33 70.2458 1236.33 67.8125C1236.33 65.3792 1238.46 63.25 1240.9 63.25ZM1256.1 63.25C1258.54 63.25 1260.67 65.3792 1260.67 67.8125C1260.67 70.2458 1258.54 72.375 1256.1 72.375C1253.67 72.375 1251.54 70.2458 1251.54 67.8125C1251.54 65.3792 1253.67 63.25 1256.1 63.25ZM1265.23 75.4167C1267.66 75.4167 1269.79 77.5458 1269.79 79.9792C1269.79 82.4125 1267.66 84.5417 1265.23 84.5417C1262.8 84.5417 1260.67 82.4125 1260.67 79.9792C1260.67 77.5458 1262.8 75.4167 1265.23 75.4167Z" fill="white"/>
</svg>
