<svg width="1363" height="163" viewBox="0 0 1363 163" fill="none" xmlns="http://www.w3.org/2000/svg">
<path d="M0 15C0 6.71573 6.71573 0 15 0H37V163H15C6.71573 163 0 156.284 0 148V15Z" fill="#424242"/>
<rect width="1097" height="163" transform="translate(37)" fill="#F0F0F0"/>
<path d="M101.906 53.9219L94.3945 51.2383V48.0859L104.602 52.375V54.6367L101.906 53.9219ZM94.3945 56.1719L101.918 53.4297L104.602 52.7852V55.0352L94.3945 59.3242V56.1719ZM126.422 52.082V58.8438C126.156 59.1641 125.746 59.5117 125.191 59.8867C124.637 60.2539 123.922 60.5703 123.047 60.8359C122.172 61.1016 121.113 61.2344 119.871 61.2344C118.77 61.2344 117.766 61.0547 116.859 60.6953C115.953 60.3281 115.172 59.793 114.516 59.0898C113.867 58.3867 113.367 57.5273 113.016 56.5117C112.664 55.4883 112.488 54.3203 112.488 53.0078V51.9414C112.488 50.6289 112.656 49.4609 112.992 48.4375C113.336 47.4141 113.824 46.5508 114.457 45.8477C115.09 45.1445 115.844 44.6094 116.719 44.2422C117.594 43.875 118.566 43.6914 119.637 43.6914C121.121 43.6914 122.34 43.9336 123.293 44.418C124.246 44.8945 124.973 45.5586 125.473 46.4102C125.98 47.2539 126.293 48.2227 126.41 49.3164H123C122.914 48.7383 122.75 48.2344 122.508 47.8047C122.266 47.375 121.918 47.0391 121.465 46.7969C121.02 46.5547 120.441 46.4336 119.73 46.4336C119.145 46.4336 118.621 46.5547 118.16 46.7969C117.707 47.0312 117.324 47.3789 117.012 47.8398C116.699 48.3008 116.461 48.8711 116.297 49.5508C116.133 50.2305 116.051 51.0195 116.051 51.918V53.0078C116.051 53.8984 116.137 54.6875 116.309 55.375C116.48 56.0547 116.734 56.6289 117.07 57.0977C117.414 57.5586 117.836 57.9062 118.336 58.1406C118.836 58.375 119.418 58.4922 120.082 58.4922C120.637 58.4922 121.098 58.4453 121.465 58.3516C121.84 58.2578 122.141 58.1445 122.367 58.0117C122.602 57.8711 122.781 57.7383 122.906 57.6133V54.5898H119.695V52.082H126.422ZM135.891 58.1406V52.4922C135.891 52.0859 135.824 51.7383 135.691 51.4492C135.559 51.1523 135.352 50.9219 135.07 50.7578C134.797 50.5938 134.441 50.5117 134.004 50.5117C133.629 50.5117 133.305 50.5781 133.031 50.7109C132.758 50.8359 132.547 51.0195 132.398 51.2617C132.25 51.4961 132.176 51.7734 132.176 52.0938H128.801C128.801 51.5547 128.926 51.043 129.176 50.5586C129.426 50.0742 129.789 49.6484 130.266 49.2812C130.742 48.9062 131.309 48.6133 131.965 48.4023C132.629 48.1914 133.371 48.0859 134.191 48.0859C135.176 48.0859 136.051 48.25 136.816 48.5781C137.582 48.9062 138.184 49.3984 138.621 50.0547C139.066 50.7109 139.289 51.5312 139.289 52.5156V57.9414C139.289 58.6367 139.332 59.207 139.418 59.6523C139.504 60.0898 139.629 60.4727 139.793 60.8008V61H136.383C136.219 60.6562 136.094 60.2266 136.008 59.7109C135.93 59.1875 135.891 58.6641 135.891 58.1406ZM136.336 53.2773L136.359 55.1875H134.473C134.027 55.1875 133.641 55.2383 133.312 55.3398C132.984 55.4414 132.715 55.5859 132.504 55.7734C132.293 55.9531 132.137 56.1641 132.035 56.4062C131.941 56.6484 131.895 56.9141 131.895 57.2031C131.895 57.4922 131.961 57.7539 132.094 57.9883C132.227 58.2148 132.418 58.3945 132.668 58.5273C132.918 58.6523 133.211 58.7148 133.547 58.7148C134.055 58.7148 134.496 58.6133 134.871 58.4102C135.246 58.207 135.535 57.957 135.738 57.6602C135.949 57.3633 136.059 57.082 136.066 56.8164L136.957 58.2461C136.832 58.5664 136.66 58.8984 136.441 59.2422C136.23 59.5859 135.961 59.9102 135.633 60.2148C135.305 60.5117 134.91 60.7578 134.449 60.9531C133.988 61.1406 133.441 61.2344 132.809 61.2344C132.004 61.2344 131.273 61.0742 130.617 60.7539C129.969 60.4258 129.453 59.9766 129.07 59.4062C128.695 58.8281 128.508 58.1719 128.508 57.4375C128.508 56.7734 128.633 56.1836 128.883 55.668C129.133 55.1523 129.5 54.7188 129.984 54.3672C130.477 54.0078 131.09 53.7383 131.824 53.5586C132.559 53.3711 133.41 53.2773 134.379 53.2773H136.336ZM149.379 58.2344V43H152.777V61H149.719L149.379 58.2344ZM141.363 54.8125V54.5664C141.363 53.5977 141.473 52.7188 141.691 51.9297C141.91 51.1328 142.23 50.4492 142.652 49.8789C143.074 49.3086 143.594 48.8672 144.211 48.5547C144.828 48.2422 145.531 48.0859 146.32 48.0859C147.062 48.0859 147.711 48.2422 148.266 48.5547C148.828 48.8672 149.305 49.3125 149.695 49.8906C150.094 50.4609 150.414 51.1367 150.656 51.918C150.898 52.6914 151.074 53.5391 151.184 54.4609V55C151.074 55.8828 150.898 56.7031 150.656 57.4609C150.414 58.2188 150.094 58.8828 149.695 59.4531C149.305 60.0156 148.828 60.4531 148.266 60.7656C147.703 61.0781 147.047 61.2344 146.297 61.2344C145.508 61.2344 144.805 61.0742 144.188 60.7539C143.578 60.4336 143.062 59.9844 142.641 59.4062C142.227 58.8281 141.91 58.1484 141.691 57.3672C141.473 56.5859 141.363 55.7344 141.363 54.8125ZM144.738 54.5664V54.8125C144.738 55.3359 144.777 55.8242 144.855 56.2773C144.941 56.7305 145.078 57.1328 145.266 57.4844C145.461 57.8281 145.711 58.0977 146.016 58.293C146.328 58.4805 146.707 58.5742 147.152 58.5742C147.73 58.5742 148.207 58.4453 148.582 58.1875C148.957 57.9219 149.242 57.5586 149.438 57.0977C149.641 56.6367 149.758 56.1055 149.789 55.5039V53.9688C149.766 53.4766 149.695 53.0352 149.578 52.6445C149.469 52.2461 149.305 51.9062 149.086 51.625C148.875 51.3438 148.609 51.125 148.289 50.9688C147.977 50.8125 147.605 50.7344 147.176 50.7344C146.738 50.7344 146.363 50.8359 146.051 51.0391C145.738 51.2344 145.484 51.5039 145.289 51.8477C145.102 52.1914 144.961 52.5977 144.867 53.0664C144.781 53.5273 144.738 54.0273 144.738 54.5664ZM166.594 58.2578V61H158.004V58.2578H166.594ZM159.141 43.9375V61H155.625V43.9375H159.141ZM171.961 48.3203V61H168.574V48.3203H171.961ZM168.363 45.0156C168.363 44.5234 168.535 44.1172 168.879 43.7969C169.223 43.4766 169.684 43.3164 170.262 43.3164C170.832 43.3164 171.289 43.4766 171.633 43.7969C171.984 44.1172 172.16 44.5234 172.16 45.0156C172.16 45.5078 171.984 45.9141 171.633 46.2344C171.289 46.5547 170.832 46.7148 170.262 46.7148C169.684 46.7148 169.223 46.5547 168.879 46.2344C168.535 45.9141 168.363 45.5078 168.363 45.0156ZM179.051 61H175.652V47.1953C175.652 46.2344 175.84 45.4258 176.215 44.7695C176.598 44.1055 177.133 43.6055 177.82 43.2695C178.516 42.9258 179.34 42.7539 180.293 42.7539C180.605 42.7539 180.906 42.7773 181.195 42.8242C181.484 42.8633 181.766 42.9141 182.039 42.9766L182.004 45.5195C181.855 45.4805 181.699 45.4531 181.535 45.4375C181.371 45.4219 181.18 45.4141 180.961 45.4141C180.555 45.4141 180.207 45.4844 179.918 45.625C179.637 45.7578 179.422 45.957 179.273 46.2227C179.125 46.4883 179.051 46.8125 179.051 47.1953V61ZM181.582 48.3203V50.7109H173.766V48.3203H181.582ZM189.562 48.3203V50.7109H182.18V48.3203H189.562ZM184.008 45.1914H187.383V57.1797C187.383 57.5469 187.43 57.8281 187.523 58.0234C187.625 58.2188 187.773 58.3555 187.969 58.4336C188.164 58.5039 188.41 58.5391 188.707 58.5391C188.918 58.5391 189.105 58.5312 189.27 58.5156C189.441 58.4922 189.586 58.4688 189.703 58.4453L189.715 60.9297C189.426 61.0234 189.113 61.0977 188.777 61.1523C188.441 61.207 188.07 61.2344 187.664 61.2344C186.922 61.2344 186.273 61.1133 185.719 60.8711C185.172 60.6211 184.75 60.2227 184.453 59.6758C184.156 59.1289 184.008 58.4102 184.008 57.5195V45.1914Z" fill="#888888"/>
<path d="M118.594 98.4219V104.75H101.086V98.4219H118.594ZM103.828 84.875V119H95.6016V84.875H103.828ZM124.125 84.875V119H115.922V84.875H124.125ZM127.992 106.578V106.086C127.992 104.227 128.258 102.516 128.789 100.953C129.32 99.375 130.102 98.0078 131.133 96.8516C132.164 95.6953 133.438 94.7969 134.953 94.1562C136.469 93.5 138.219 93.1719 140.203 93.1719C142.203 93.1719 143.961 93.5 145.477 94.1562C147.008 94.7969 148.289 95.6953 149.32 96.8516C150.352 98.0078 151.133 99.375 151.664 100.953C152.195 102.516 152.461 104.227 152.461 106.086V106.578C152.461 108.422 152.195 110.133 151.664 111.711C151.133 113.273 150.352 114.641 149.32 115.812C148.289 116.969 147.016 117.867 145.5 118.508C143.984 119.148 142.234 119.469 140.25 119.469C138.266 119.469 136.508 119.148 134.977 118.508C133.445 117.867 132.164 116.969 131.133 115.812C130.102 114.641 129.32 113.273 128.789 111.711C128.258 110.133 127.992 108.422 127.992 106.578ZM135.891 106.086V106.578C135.891 107.531 135.961 108.422 136.102 109.25C136.242 110.078 136.477 110.805 136.805 111.43C137.133 112.039 137.578 112.516 138.141 112.859C138.703 113.203 139.406 113.375 140.25 113.375C141.078 113.375 141.766 113.203 142.312 112.859C142.875 112.516 143.32 112.039 143.648 111.43C143.977 110.805 144.211 110.078 144.352 109.25C144.492 108.422 144.562 107.531 144.562 106.578V106.086C144.562 105.164 144.492 104.297 144.352 103.484C144.211 102.656 143.977 101.93 143.648 101.305C143.32 100.664 142.875 100.164 142.312 99.8047C141.75 99.4453 141.047 99.2656 140.203 99.2656C139.375 99.2656 138.68 99.4453 138.117 99.8047C137.57 100.164 137.133 100.664 136.805 101.305C136.477 101.93 136.242 102.656 136.102 103.484C135.961 104.297 135.891 105.164 135.891 106.086ZM163.688 111.453L168.375 93.6406H173.32L171.562 102.57L166.922 119H162.961L163.688 111.453ZM161.836 93.6406L164.742 111.312L165.07 119H160.266L154.266 93.6406H161.836ZM177.492 110.938L180.422 93.6406H187.992L182.039 119H177.234L177.492 110.938ZM173.883 93.6406L178.617 111.406L179.344 119H175.336L170.789 102.617L169.102 93.6406H173.883ZM218.297 84.875V119H210.07V84.875H218.297ZM228.562 84.875V91.2266H200.039V84.875H228.562ZM225.773 106.578V106.086C225.773 104.227 226.039 102.516 226.57 100.953C227.102 99.375 227.883 98.0078 228.914 96.8516C229.945 95.6953 231.219 94.7969 232.734 94.1562C234.25 93.5 236 93.1719 237.984 93.1719C239.984 93.1719 241.742 93.5 243.258 94.1562C244.789 94.7969 246.07 95.6953 247.102 96.8516C248.133 98.0078 248.914 99.375 249.445 100.953C249.977 102.516 250.242 104.227 250.242 106.086V106.578C250.242 108.422 249.977 110.133 249.445 111.711C248.914 113.273 248.133 114.641 247.102 115.812C246.07 116.969 244.797 117.867 243.281 118.508C241.766 119.148 240.016 119.469 238.031 119.469C236.047 119.469 234.289 119.148 232.758 118.508C231.227 117.867 229.945 116.969 228.914 115.812C227.883 114.641 227.102 113.273 226.57 111.711C226.039 110.133 225.773 108.422 225.773 106.578ZM233.672 106.086V106.578C233.672 107.531 233.742 108.422 233.883 109.25C234.023 110.078 234.258 110.805 234.586 111.43C234.914 112.039 235.359 112.516 235.922 112.859C236.484 113.203 237.188 113.375 238.031 113.375C238.859 113.375 239.547 113.203 240.094 112.859C240.656 112.516 241.102 112.039 241.43 111.43C241.758 110.805 241.992 110.078 242.133 109.25C242.273 108.422 242.344 107.531 242.344 106.578V106.086C242.344 105.164 242.273 104.297 242.133 103.484C241.992 102.656 241.758 101.93 241.43 101.305C241.102 100.664 240.656 100.164 240.094 99.8047C239.531 99.4453 238.828 99.2656 237.984 99.2656C237.156 99.2656 236.461 99.4453 235.898 99.8047C235.352 100.164 234.914 100.664 234.586 101.305C234.258 101.93 234.023 102.656 233.883 103.484C233.742 104.297 233.672 105.164 233.672 106.086ZM266.086 84.875H279.516C282.141 84.875 284.422 85.2656 286.359 86.0469C288.297 86.8281 289.789 87.9844 290.836 89.5156C291.898 91.0469 292.43 92.9375 292.43 95.1875C292.43 97.1406 292.125 98.7734 291.516 100.086C290.906 101.398 290.055 102.484 288.961 103.344C287.883 104.188 286.625 104.883 285.188 105.43L282.492 106.953H271.219L271.172 100.602H279.516C280.562 100.602 281.43 100.414 282.117 100.039C282.805 99.6641 283.32 99.1328 283.664 98.4453C284.023 97.7422 284.203 96.9062 284.203 95.9375C284.203 94.9531 284.023 94.1094 283.664 93.4062C283.305 92.7031 282.773 92.1641 282.07 91.7891C281.383 91.4141 280.531 91.2266 279.516 91.2266H274.312V119H266.086V84.875ZM284.766 119L277.219 103.906L285.938 103.859L293.578 118.648V119H284.766ZM311.836 112.836V93.6406H319.758V119H312.352L311.836 112.836ZM312.586 107.68L314.648 107.633C314.648 109.336 314.445 110.914 314.039 112.367C313.633 113.805 313.031 115.055 312.234 116.117C311.453 117.18 310.484 118.008 309.328 118.602C308.188 119.18 306.867 119.469 305.367 119.469C304.117 119.469 302.969 119.297 301.922 118.953C300.891 118.594 300 118.039 299.25 117.289C298.5 116.523 297.914 115.547 297.492 114.359C297.086 113.156 296.883 111.719 296.883 110.047V93.6406H304.781V110.094C304.781 110.656 304.852 111.141 304.992 111.547C305.133 111.953 305.336 112.297 305.602 112.578C305.867 112.844 306.195 113.047 306.586 113.188C306.992 113.312 307.453 113.375 307.969 113.375C309.156 113.375 310.086 113.125 310.758 112.625C311.43 112.125 311.898 111.445 312.164 110.586C312.445 109.727 312.586 108.758 312.586 107.68ZM331.875 99.0547V119H323.977V93.6406H331.383L331.875 99.0547ZM330.938 105.453L329.086 105.5C329.086 103.562 329.32 101.836 329.789 100.32C330.258 98.7891 330.922 97.4922 331.781 96.4297C332.641 95.3672 333.664 94.5625 334.852 94.0156C336.055 93.4531 337.391 93.1719 338.859 93.1719C340.031 93.1719 341.102 93.3438 342.07 93.6875C343.055 94.0312 343.898 94.5859 344.602 95.3516C345.32 96.1172 345.867 97.1328 346.242 98.3984C346.633 99.6484 346.828 101.195 346.828 103.039V119H338.883V103.016C338.883 102 338.742 101.227 338.461 100.695C338.18 100.148 337.773 99.7734 337.242 99.5703C336.711 99.3672 336.062 99.2656 335.297 99.2656C334.484 99.2656 333.797 99.4219 333.234 99.7344C332.672 100.047 332.219 100.484 331.875 101.047C331.547 101.594 331.305 102.242 331.148 102.992C331.008 103.742 330.938 104.562 330.938 105.453ZM363.773 108.195H357.047C357.047 106.82 357.141 105.609 357.328 104.562C357.531 103.5 357.875 102.547 358.359 101.703C358.844 100.859 359.5 100.078 360.328 99.3594C361.062 98.75 361.695 98.1641 362.227 97.6016C362.758 97.0391 363.164 96.4688 363.445 95.8906C363.727 95.3125 363.867 94.6953 363.867 94.0391C363.867 93.2266 363.75 92.5625 363.516 92.0469C363.297 91.5312 362.961 91.1484 362.508 90.8984C362.07 90.6328 361.516 90.5 360.844 90.5C360.297 90.5 359.781 90.6328 359.297 90.8984C358.828 91.1641 358.445 91.5781 358.148 92.1406C357.852 92.6875 357.688 93.4141 357.656 94.3203H349.711C349.758 91.9922 350.273 90.1016 351.258 88.6484C352.258 87.1797 353.586 86.1094 355.242 85.4375C356.914 84.75 358.781 84.4062 360.844 84.4062C363.125 84.4062 365.086 84.7578 366.727 85.4609C368.367 86.1641 369.625 87.2109 370.5 88.6016C371.375 89.9766 371.812 91.6719 371.812 93.6875C371.812 95.0312 371.555 96.2031 371.039 97.2031C370.539 98.1875 369.859 99.1094 369 99.9688C368.156 100.812 367.211 101.719 366.164 102.688C365.258 103.484 364.641 104.297 364.312 105.125C363.984 105.938 363.805 106.961 363.773 108.195ZM356.086 115.32C356.086 114.195 356.492 113.258 357.305 112.508C358.117 111.742 359.172 111.359 360.469 111.359C361.766 111.359 362.82 111.742 363.633 112.508C364.445 113.258 364.852 114.195 364.852 115.32C364.852 116.445 364.445 117.391 363.633 118.156C362.82 118.906 361.766 119.281 360.469 119.281C359.172 119.281 358.117 118.906 357.305 118.156C356.492 117.391 356.086 116.445 356.086 115.32Z" fill="black"/>
<path d="M1134 0H1348C1356.28 0 1363 6.71573 1363 15V148C1363 156.284 1356.28 163 1348 163H1134V0Z" fill="#2FE2EE"/>
<path d="M1260.62 78.8847C1263.81 78.8847 1266.93 79.805 1269.59 81.5293C1272.25 83.2536 1274.32 85.7044 1275.54 88.5718C1276.76 91.4391 1277.08 94.5943 1276.46 97.6383C1275.84 100.682 1274.3 103.478 1272.04 105.673C1269.78 107.868 1266.9 109.362 1263.77 109.968C1260.63 110.573 1257.39 110.262 1254.43 109.075C1251.48 107.887 1248.96 105.876 1247.18 103.295C1245.41 100.714 1244.46 97.6806 1244.46 94.5769C1244.46 90.4151 1246.16 86.4237 1249.19 83.4808C1252.22 80.538 1256.33 78.8847 1260.62 78.8847V78.8847ZM1260.62 73.6539C1256.36 73.6539 1252.19 74.881 1248.65 77.1801C1245.11 79.4791 1242.35 82.7469 1240.72 86.57C1239.09 90.3932 1238.66 94.6001 1239.49 98.6588C1240.32 102.717 1242.37 106.446 1245.39 109.372C1248.4 112.298 1252.24 114.291 1256.41 115.098C1260.59 115.905 1264.92 115.491 1268.86 113.907C1272.79 112.324 1276.16 109.642 1278.52 106.201C1280.89 102.76 1282.15 98.7151 1282.15 94.5769C1282.15 89.0278 1279.88 83.706 1275.85 79.7821C1271.81 75.8583 1266.33 73.6539 1260.62 73.6539Z" fill="white"/>
<path d="M1274.08 47.5H1220.23C1218.8 47.5 1217.43 48.0511 1216.42 49.0321C1215.41 50.013 1214.85 51.3435 1214.85 52.7307V105.038C1214.85 106.426 1215.41 107.756 1216.42 108.737C1217.43 109.718 1218.8 110.269 1220.23 110.269H1231V105.038H1220.23V68.423H1279.46V52.7307C1279.46 51.3435 1278.89 50.013 1277.88 49.0321C1276.87 48.0511 1275.5 47.5 1274.08 47.5V47.5ZM1220.23 63.1922V52.7307H1274.08V63.1922H1220.23Z" fill="white"/>
<path d="M1255.23 86.731V102.423L1268.69 94.5771L1255.23 86.731Z" fill="white"/>
</svg>
