<svg width="1363" height="163" viewBox="0 0 1363 163" fill="none" xmlns="http://www.w3.org/2000/svg">
<path d="M0 15C0 6.71573 6.71573 0 15 0H37V163H15C6.71573 163 0 156.284 0 148V15Z" fill="#424242"/>
<rect width="1097" height="163" transform="translate(37)" fill="#F0F0F0"/>
<path d="M101.906 53.9219L94.3945 51.2383V48.0859L104.602 52.375V54.6367L101.906 53.9219ZM94.3945 56.1719L101.918 53.4297L104.602 52.7852V55.0352L94.3945 59.3242V56.1719ZM126.422 52.082V58.8438C126.156 59.1641 125.746 59.5117 125.191 59.8867C124.637 60.2539 123.922 60.5703 123.047 60.8359C122.172 61.1016 121.113 61.2344 119.871 61.2344C118.77 61.2344 117.766 61.0547 116.859 60.6953C115.953 60.3281 115.172 59.793 114.516 59.0898C113.867 58.3867 113.367 57.5273 113.016 56.5117C112.664 55.4883 112.488 54.3203 112.488 53.0078V51.9414C112.488 50.6289 112.656 49.4609 112.992 48.4375C113.336 47.4141 113.824 46.5508 114.457 45.8477C115.09 45.1445 115.844 44.6094 116.719 44.2422C117.594 43.875 118.566 43.6914 119.637 43.6914C121.121 43.6914 122.34 43.9336 123.293 44.418C124.246 44.8945 124.973 45.5586 125.473 46.4102C125.98 47.2539 126.293 48.2227 126.41 49.3164H123C122.914 48.7383 122.75 48.2344 122.508 47.8047C122.266 47.375 121.918 47.0391 121.465 46.7969C121.02 46.5547 120.441 46.4336 119.73 46.4336C119.145 46.4336 118.621 46.5547 118.16 46.7969C117.707 47.0312 117.324 47.3789 117.012 47.8398C116.699 48.3008 116.461 48.8711 116.297 49.5508C116.133 50.2305 116.051 51.0195 116.051 51.918V53.0078C116.051 53.8984 116.137 54.6875 116.309 55.375C116.48 56.0547 116.734 56.6289 117.07 57.0977C117.414 57.5586 117.836 57.9062 118.336 58.1406C118.836 58.375 119.418 58.4922 120.082 58.4922C120.637 58.4922 121.098 58.4453 121.465 58.3516C121.84 58.2578 122.141 58.1445 122.367 58.0117C122.602 57.8711 122.781 57.7383 122.906 57.6133V54.5898H119.695V52.082H126.422ZM135.891 58.1406V52.4922C135.891 52.0859 135.824 51.7383 135.691 51.4492C135.559 51.1523 135.352 50.9219 135.07 50.7578C134.797 50.5938 134.441 50.5117 134.004 50.5117C133.629 50.5117 133.305 50.5781 133.031 50.7109C132.758 50.8359 132.547 51.0195 132.398 51.2617C132.25 51.4961 132.176 51.7734 132.176 52.0938H128.801C128.801 51.5547 128.926 51.043 129.176 50.5586C129.426 50.0742 129.789 49.6484 130.266 49.2812C130.742 48.9062 131.309 48.6133 131.965 48.4023C132.629 48.1914 133.371 48.0859 134.191 48.0859C135.176 48.0859 136.051 48.25 136.816 48.5781C137.582 48.9062 138.184 49.3984 138.621 50.0547C139.066 50.7109 139.289 51.5312 139.289 52.5156V57.9414C139.289 58.6367 139.332 59.207 139.418 59.6523C139.504 60.0898 139.629 60.4727 139.793 60.8008V61H136.383C136.219 60.6562 136.094 60.2266 136.008 59.7109C135.93 59.1875 135.891 58.6641 135.891 58.1406ZM136.336 53.2773L136.359 55.1875H134.473C134.027 55.1875 133.641 55.2383 133.312 55.3398C132.984 55.4414 132.715 55.5859 132.504 55.7734C132.293 55.9531 132.137 56.1641 132.035 56.4062C131.941 56.6484 131.895 56.9141 131.895 57.2031C131.895 57.4922 131.961 57.7539 132.094 57.9883C132.227 58.2148 132.418 58.3945 132.668 58.5273C132.918 58.6523 133.211 58.7148 133.547 58.7148C134.055 58.7148 134.496 58.6133 134.871 58.4102C135.246 58.207 135.535 57.957 135.738 57.6602C135.949 57.3633 136.059 57.082 136.066 56.8164L136.957 58.2461C136.832 58.5664 136.66 58.8984 136.441 59.2422C136.23 59.5859 135.961 59.9102 135.633 60.2148C135.305 60.5117 134.91 60.7578 134.449 60.9531C133.988 61.1406 133.441 61.2344 132.809 61.2344C132.004 61.2344 131.273 61.0742 130.617 60.7539C129.969 60.4258 129.453 59.9766 129.07 59.4062C128.695 58.8281 128.508 58.1719 128.508 57.4375C128.508 56.7734 128.633 56.1836 128.883 55.668C129.133 55.1523 129.5 54.7188 129.984 54.3672C130.477 54.0078 131.09 53.7383 131.824 53.5586C132.559 53.3711 133.41 53.2773 134.379 53.2773H136.336ZM149.379 58.2344V43H152.777V61H149.719L149.379 58.2344ZM141.363 54.8125V54.5664C141.363 53.5977 141.473 52.7188 141.691 51.9297C141.91 51.1328 142.23 50.4492 142.652 49.8789C143.074 49.3086 143.594 48.8672 144.211 48.5547C144.828 48.2422 145.531 48.0859 146.32 48.0859C147.062 48.0859 147.711 48.2422 148.266 48.5547C148.828 48.8672 149.305 49.3125 149.695 49.8906C150.094 50.4609 150.414 51.1367 150.656 51.918C150.898 52.6914 151.074 53.5391 151.184 54.4609V55C151.074 55.8828 150.898 56.7031 150.656 57.4609C150.414 58.2188 150.094 58.8828 149.695 59.4531C149.305 60.0156 148.828 60.4531 148.266 60.7656C147.703 61.0781 147.047 61.2344 146.297 61.2344C145.508 61.2344 144.805 61.0742 144.188 60.7539C143.578 60.4336 143.062 59.9844 142.641 59.4062C142.227 58.8281 141.91 58.1484 141.691 57.3672C141.473 56.5859 141.363 55.7344 141.363 54.8125ZM144.738 54.5664V54.8125C144.738 55.3359 144.777 55.8242 144.855 56.2773C144.941 56.7305 145.078 57.1328 145.266 57.4844C145.461 57.8281 145.711 58.0977 146.016 58.293C146.328 58.4805 146.707 58.5742 147.152 58.5742C147.73 58.5742 148.207 58.4453 148.582 58.1875C148.957 57.9219 149.242 57.5586 149.438 57.0977C149.641 56.6367 149.758 56.1055 149.789 55.5039V53.9688C149.766 53.4766 149.695 53.0352 149.578 52.6445C149.469 52.2461 149.305 51.9062 149.086 51.625C148.875 51.3438 148.609 51.125 148.289 50.9688C147.977 50.8125 147.605 50.7344 147.176 50.7344C146.738 50.7344 146.363 50.8359 146.051 51.0391C145.738 51.2344 145.484 51.5039 145.289 51.8477C145.102 52.1914 144.961 52.5977 144.867 53.0664C144.781 53.5273 144.738 54.0273 144.738 54.5664ZM166.594 58.2578V61H158.004V58.2578H166.594ZM159.141 43.9375V61H155.625V43.9375H159.141ZM171.961 48.3203V61H168.574V48.3203H171.961ZM168.363 45.0156C168.363 44.5234 168.535 44.1172 168.879 43.7969C169.223 43.4766 169.684 43.3164 170.262 43.3164C170.832 43.3164 171.289 43.4766 171.633 43.7969C171.984 44.1172 172.16 44.5234 172.16 45.0156C172.16 45.5078 171.984 45.9141 171.633 46.2344C171.289 46.5547 170.832 46.7148 170.262 46.7148C169.684 46.7148 169.223 46.5547 168.879 46.2344C168.535 45.9141 168.363 45.5078 168.363 45.0156ZM179.051 61H175.652V47.1953C175.652 46.2344 175.84 45.4258 176.215 44.7695C176.598 44.1055 177.133 43.6055 177.82 43.2695C178.516 42.9258 179.34 42.7539 180.293 42.7539C180.605 42.7539 180.906 42.7773 181.195 42.8242C181.484 42.8633 181.766 42.9141 182.039 42.9766L182.004 45.5195C181.855 45.4805 181.699 45.4531 181.535 45.4375C181.371 45.4219 181.18 45.4141 180.961 45.4141C180.555 45.4141 180.207 45.4844 179.918 45.625C179.637 45.7578 179.422 45.957 179.273 46.2227C179.125 46.4883 179.051 46.8125 179.051 47.1953V61ZM181.582 48.3203V50.7109H173.766V48.3203H181.582ZM189.562 48.3203V50.7109H182.18V48.3203H189.562ZM184.008 45.1914H187.383V57.1797C187.383 57.5469 187.43 57.8281 187.523 58.0234C187.625 58.2188 187.773 58.3555 187.969 58.4336C188.164 58.5039 188.41 58.5391 188.707 58.5391C188.918 58.5391 189.105 58.5312 189.27 58.5156C189.441 58.4922 189.586 58.4688 189.703 58.4453L189.715 60.9297C189.426 61.0234 189.113 61.0977 188.777 61.1523C188.441 61.207 188.07 61.2344 187.664 61.2344C186.922 61.2344 186.273 61.1133 185.719 60.8711C185.172 60.6211 184.75 60.2227 184.453 59.6758C184.156 59.1289 184.008 58.4102 184.008 57.5195V45.1914Z" fill="#888888"/>
<path d="M110.062 92.0469L101.742 119H92.9062L105.445 84.875H111.047L110.062 92.0469ZM116.953 119L108.609 92.0469L107.531 84.875H113.203L125.812 119H116.953ZM116.625 106.273V112.625H99.1172V106.273H116.625ZM135.258 115.906L142.055 84.875H146.109L148.312 87.5234L141.07 119H136.594L135.258 115.906ZM133.453 84.875L139.195 116.141L137.719 119H132.539L125.297 84.875H133.453ZM152.039 115.977L157.734 84.875H165.867L158.625 119H153.469L152.039 115.977ZM149.039 84.875L156 116.094L154.594 119H150.117L142.711 87.4766L145.008 84.875H149.039ZM186.68 109.93C186.68 109.398 186.602 108.922 186.445 108.5C186.289 108.062 186 107.656 185.578 107.281C185.156 106.906 184.547 106.531 183.75 106.156C182.969 105.766 181.938 105.359 180.656 104.938C179.156 104.438 177.711 103.875 176.32 103.25C174.93 102.609 173.688 101.867 172.594 101.023C171.5 100.164 170.633 99.1641 169.992 98.0234C169.352 96.8672 169.031 95.5234 169.031 93.9922C169.031 92.5234 169.359 91.2031 170.016 90.0312C170.672 88.8438 171.586 87.8359 172.758 87.0078C173.945 86.1641 175.336 85.5234 176.93 85.0859C178.523 84.6328 180.266 84.4062 182.156 84.4062C184.656 84.4062 186.859 84.8438 188.766 85.7188C190.688 86.5781 192.188 87.8047 193.266 89.3984C194.359 90.9766 194.906 92.8438 194.906 95H186.727C186.727 94.1406 186.547 93.3828 186.188 92.7266C185.844 92.0703 185.32 91.5547 184.617 91.1797C183.914 90.8047 183.031 90.6172 181.969 90.6172C180.938 90.6172 180.07 90.7734 179.367 91.0859C178.664 91.3984 178.133 91.8203 177.773 92.3516C177.414 92.8672 177.234 93.4375 177.234 94.0625C177.234 94.5781 177.375 95.0469 177.656 95.4688C177.953 95.875 178.367 96.2578 178.898 96.6172C179.445 96.9766 180.102 97.3203 180.867 97.6484C181.648 97.9766 182.523 98.2969 183.492 98.6094C185.305 99.1875 186.914 99.8359 188.32 100.555C189.742 101.258 190.938 102.062 191.906 102.969C192.891 103.859 193.633 104.875 194.133 106.016C194.648 107.156 194.906 108.445 194.906 109.883C194.906 111.414 194.609 112.773 194.016 113.961C193.422 115.148 192.57 116.156 191.461 116.984C190.352 117.797 189.023 118.414 187.477 118.836C185.93 119.258 184.203 119.469 182.297 119.469C180.547 119.469 178.82 119.25 177.117 118.812C175.43 118.359 173.898 117.672 172.523 116.75C171.148 115.812 170.047 114.617 169.219 113.164C168.406 111.695 168 109.953 168 107.938H176.25C176.25 108.938 176.383 109.781 176.648 110.469C176.914 111.156 177.305 111.711 177.82 112.133C178.336 112.539 178.969 112.836 179.719 113.023C180.469 113.195 181.328 113.281 182.297 113.281C183.344 113.281 184.188 113.133 184.828 112.836C185.469 112.523 185.938 112.117 186.234 111.617C186.531 111.102 186.68 110.539 186.68 109.93ZM222.188 119H214.617L214.664 112.672H222.188C223.75 112.672 225.07 112.297 226.148 111.547C227.242 110.797 228.07 109.68 228.633 108.195C229.211 106.695 229.5 104.852 229.5 102.664V101.188C229.5 99.5469 229.336 98.1094 229.008 96.875C228.695 95.625 228.227 94.5859 227.602 93.7578C226.977 92.9141 226.195 92.2812 225.258 91.8594C224.336 91.4375 223.273 91.2266 222.07 91.2266H214.477V84.875H222.07C224.383 84.875 226.5 85.2734 228.422 86.0703C230.359 86.8516 232.031 87.9766 233.438 89.4453C234.859 90.8984 235.953 92.625 236.719 94.625C237.5 96.6094 237.891 98.8125 237.891 101.234V102.664C237.891 105.07 237.5 107.273 236.719 109.273C235.953 111.273 234.867 113 233.461 114.453C232.055 115.906 230.391 117.031 228.469 117.828C226.562 118.609 224.469 119 222.188 119ZM219.328 84.875V119H211.102V84.875H219.328ZM254.086 119.469C252.023 119.469 250.18 119.148 248.555 118.508C246.93 117.852 245.555 116.953 244.43 115.812C243.32 114.672 242.469 113.359 241.875 111.875C241.297 110.391 241.008 108.82 241.008 107.164V106.273C241.008 104.414 241.266 102.695 241.781 101.117C242.297 99.5234 243.062 98.1328 244.078 96.9453C245.094 95.7578 246.367 94.8359 247.898 94.1797C249.43 93.5078 251.211 93.1719 253.242 93.1719C255.039 93.1719 256.648 93.4609 258.07 94.0391C259.492 94.6172 260.695 95.4453 261.68 96.5234C262.68 97.6016 263.438 98.9062 263.953 100.438C264.484 101.969 264.75 103.688 264.75 105.594V108.805H244.031V103.859H257.039V103.25C257.055 102.406 256.906 101.688 256.594 101.094C256.297 100.5 255.859 100.047 255.281 99.7344C254.703 99.4219 254 99.2656 253.172 99.2656C252.312 99.2656 251.602 99.4531 251.039 99.8281C250.492 100.203 250.062 100.719 249.75 101.375C249.453 102.016 249.242 102.758 249.117 103.602C248.992 104.445 248.93 105.336 248.93 106.273V107.164C248.93 108.102 249.055 108.953 249.305 109.719C249.57 110.484 249.945 111.141 250.43 111.688C250.93 112.219 251.523 112.633 252.211 112.93C252.914 113.227 253.711 113.375 254.602 113.375C255.68 113.375 256.742 113.172 257.789 112.766C258.836 112.359 259.734 111.688 260.484 110.75L264.07 115.016C263.555 115.75 262.82 116.461 261.867 117.148C260.93 117.836 259.805 118.398 258.492 118.836C257.18 119.258 255.711 119.469 254.086 119.469ZM275.93 98.5156V128.75H268.031V93.6406H275.391L275.93 98.5156ZM291.492 106.016V106.508C291.492 108.352 291.281 110.062 290.859 111.641C290.438 113.219 289.812 114.594 288.984 115.766C288.156 116.938 287.125 117.852 285.891 118.508C284.672 119.148 283.258 119.469 281.648 119.469C280.133 119.469 278.828 119.133 277.734 118.461C276.641 117.789 275.727 116.859 274.992 115.672C274.258 114.484 273.664 113.125 273.211 111.594C272.758 110.062 272.398 108.445 272.133 106.742V106.109C272.398 104.281 272.758 102.586 273.211 101.023C273.664 99.4453 274.258 98.0703 274.992 96.8984C275.727 95.7266 276.633 94.8125 277.711 94.1562C278.805 93.5 280.109 93.1719 281.625 93.1719C283.234 93.1719 284.648 93.4766 285.867 94.0859C287.102 94.6953 288.133 95.5703 288.961 96.7109C289.805 97.8359 290.438 99.1875 290.859 100.766C291.281 102.344 291.492 104.094 291.492 106.016ZM283.594 106.508V106.016C283.594 105.031 283.523 104.133 283.383 103.32C283.242 102.492 283.016 101.773 282.703 101.164C282.406 100.555 282.008 100.086 281.508 99.7578C281.008 99.4297 280.391 99.2656 279.656 99.2656C278.812 99.2656 278.102 99.3984 277.523 99.6641C276.961 99.9141 276.508 100.305 276.164 100.836C275.836 101.352 275.602 102 275.461 102.781C275.336 103.547 275.281 104.445 275.297 105.477V107.398C275.266 108.586 275.383 109.633 275.648 110.539C275.914 111.43 276.375 112.125 277.031 112.625C277.688 113.125 278.578 113.375 279.703 113.375C280.453 113.375 281.078 113.203 281.578 112.859C282.078 112.5 282.477 112.008 282.773 111.383C283.07 110.742 283.281 110.008 283.406 109.18C283.531 108.352 283.594 107.461 283.594 106.508ZM303.352 83V119H295.43V83H303.352ZM307.242 106.578V106.086C307.242 104.227 307.508 102.516 308.039 100.953C308.57 99.375 309.352 98.0078 310.383 96.8516C311.414 95.6953 312.688 94.7969 314.203 94.1562C315.719 93.5 317.469 93.1719 319.453 93.1719C321.453 93.1719 323.211 93.5 324.727 94.1562C326.258 94.7969 327.539 95.6953 328.57 96.8516C329.602 98.0078 330.383 99.375 330.914 100.953C331.445 102.516 331.711 104.227 331.711 106.086V106.578C331.711 108.422 331.445 110.133 330.914 111.711C330.383 113.273 329.602 114.641 328.57 115.812C327.539 116.969 326.266 117.867 324.75 118.508C323.234 119.148 321.484 119.469 319.5 119.469C317.516 119.469 315.758 119.148 314.227 118.508C312.695 117.867 311.414 116.969 310.383 115.812C309.352 114.641 308.57 113.273 308.039 111.711C307.508 110.133 307.242 108.422 307.242 106.578ZM315.141 106.086V106.578C315.141 107.531 315.211 108.422 315.352 109.25C315.492 110.078 315.727 110.805 316.055 111.43C316.383 112.039 316.828 112.516 317.391 112.859C317.953 113.203 318.656 113.375 319.5 113.375C320.328 113.375 321.016 113.203 321.562 112.859C322.125 112.516 322.57 112.039 322.898 111.43C323.227 110.805 323.461 110.078 323.602 109.25C323.742 108.422 323.812 107.531 323.812 106.578V106.086C323.812 105.164 323.742 104.297 323.602 103.484C323.461 102.656 323.227 101.93 322.898 101.305C322.57 100.664 322.125 100.164 321.562 99.8047C321 99.4453 320.297 99.2656 319.453 99.2656C318.625 99.2656 317.93 99.4453 317.367 99.8047C316.82 100.164 316.383 100.664 316.055 101.305C315.727 101.93 315.492 102.656 315.352 103.484C315.211 104.297 315.141 105.164 315.141 106.086ZM342.633 116.023L349.195 93.6406H357.68L347.484 122.773C347.266 123.414 346.977 124.102 346.617 124.836C346.258 125.586 345.766 126.297 345.141 126.969C344.516 127.641 343.711 128.188 342.727 128.609C341.758 129.031 340.555 129.242 339.117 129.242C338.352 129.242 337.789 129.203 337.43 129.125C337.086 129.062 336.555 128.945 335.836 128.773V123.125C336.039 123.125 336.211 123.125 336.352 123.125C336.508 123.125 336.68 123.125 336.867 123.125C337.711 123.125 338.383 123.039 338.883 122.867C339.398 122.695 339.789 122.445 340.055 122.117C340.336 121.789 340.555 121.391 340.711 120.922L342.633 116.023ZM340.969 93.6406L345.961 111.383L346.828 119.75H341.531L332.508 93.6406H340.969ZM367.711 99.0078V119H359.812V93.6406H367.219L367.711 99.0078ZM366.75 105.453L364.945 105.5C364.945 103.719 365.156 102.078 365.578 100.578C366 99.0781 366.625 97.7734 367.453 96.6641C368.281 95.5547 369.297 94.6953 370.5 94.0859C371.719 93.4766 373.125 93.1719 374.719 93.1719C375.828 93.1719 376.836 93.3438 377.742 93.6875C378.648 94.0156 379.43 94.5391 380.086 95.2578C380.742 95.9609 381.242 96.8828 381.586 98.0234C381.945 99.1484 382.125 100.5 382.125 102.078V119H374.227V103.086C374.227 102.008 374.102 101.195 373.852 100.648C373.617 100.102 373.273 99.7344 372.82 99.5469C372.367 99.3594 371.812 99.2656 371.156 99.2656C370.469 99.2656 369.852 99.4219 369.305 99.7344C368.758 100.047 368.289 100.484 367.898 101.047C367.523 101.594 367.234 102.242 367.031 102.992C366.844 103.742 366.75 104.562 366.75 105.453ZM381.234 105.453L379.031 105.5C379.031 103.719 379.227 102.078 379.617 100.578C380.023 99.0781 380.625 97.7734 381.422 96.6641C382.234 95.5547 383.242 94.6953 384.445 94.0859C385.648 93.4766 387.047 93.1719 388.641 93.1719C389.797 93.1719 390.859 93.3438 391.828 93.6875C392.797 94.0312 393.633 94.5859 394.336 95.3516C395.039 96.1172 395.586 97.1328 395.977 98.3984C396.367 99.6484 396.562 101.195 396.562 103.039V119H388.641V103.039C388.641 101.992 388.516 101.203 388.266 100.672C388.031 100.125 387.688 99.7578 387.234 99.5703C386.781 99.3672 386.242 99.2656 385.617 99.2656C384.867 99.2656 384.219 99.4219 383.672 99.7344C383.125 100.047 382.664 100.484 382.289 101.047C381.93 101.594 381.664 102.242 381.492 102.992C381.32 103.742 381.234 104.562 381.234 105.453ZM413.367 119.469C411.305 119.469 409.461 119.148 407.836 118.508C406.211 117.852 404.836 116.953 403.711 115.812C402.602 114.672 401.75 113.359 401.156 111.875C400.578 110.391 400.289 108.82 400.289 107.164V106.273C400.289 104.414 400.547 102.695 401.062 101.117C401.578 99.5234 402.344 98.1328 403.359 96.9453C404.375 95.7578 405.648 94.8359 407.18 94.1797C408.711 93.5078 410.492 93.1719 412.523 93.1719C414.32 93.1719 415.93 93.4609 417.352 94.0391C418.773 94.6172 419.977 95.4453 420.961 96.5234C421.961 97.6016 422.719 98.9062 423.234 100.438C423.766 101.969 424.031 103.688 424.031 105.594V108.805H403.312V103.859H416.32V103.25C416.336 102.406 416.188 101.688 415.875 101.094C415.578 100.5 415.141 100.047 414.562 99.7344C413.984 99.4219 413.281 99.2656 412.453 99.2656C411.594 99.2656 410.883 99.4531 410.32 99.8281C409.773 100.203 409.344 100.719 409.031 101.375C408.734 102.016 408.523 102.758 408.398 103.602C408.273 104.445 408.211 105.336 408.211 106.273V107.164C408.211 108.102 408.336 108.953 408.586 109.719C408.852 110.484 409.227 111.141 409.711 111.688C410.211 112.219 410.805 112.633 411.492 112.93C412.195 113.227 412.992 113.375 413.883 113.375C414.961 113.375 416.023 113.172 417.07 112.766C418.117 112.359 419.016 111.688 419.766 110.75L423.352 115.016C422.836 115.75 422.102 116.461 421.148 117.148C420.211 117.836 419.086 118.398 417.773 118.836C416.461 119.258 414.992 119.469 413.367 119.469ZM435 99.0547V119H427.102V93.6406H434.508L435 99.0547ZM434.062 105.453L432.211 105.5C432.211 103.562 432.445 101.836 432.914 100.32C433.383 98.7891 434.047 97.4922 434.906 96.4297C435.766 95.3672 436.789 94.5625 437.977 94.0156C439.18 93.4531 440.516 93.1719 441.984 93.1719C443.156 93.1719 444.227 93.3438 445.195 93.6875C446.18 94.0312 447.023 94.5859 447.727 95.3516C448.445 96.1172 448.992 97.1328 449.367 98.3984C449.758 99.6484 449.953 101.195 449.953 103.039V119H442.008V103.016C442.008 102 441.867 101.227 441.586 100.695C441.305 100.148 440.898 99.7734 440.367 99.5703C439.836 99.3672 439.188 99.2656 438.422 99.2656C437.609 99.2656 436.922 99.4219 436.359 99.7344C435.797 100.047 435.344 100.484 435 101.047C434.672 101.594 434.43 102.242 434.273 102.992C434.133 103.742 434.062 104.562 434.062 105.453ZM467.695 93.6406V99.125H452.414V93.6406H467.695ZM455.625 87.3359H463.523V110.727C463.523 111.398 463.602 111.922 463.758 112.297C463.914 112.656 464.18 112.914 464.555 113.07C464.945 113.211 465.461 113.281 466.102 113.281C466.555 113.281 466.93 113.273 467.227 113.258C467.523 113.227 467.805 113.188 468.07 113.141V118.789C467.398 119.008 466.695 119.172 465.961 119.281C465.227 119.406 464.445 119.469 463.617 119.469C461.93 119.469 460.484 119.203 459.281 118.672C458.094 118.141 457.188 117.305 456.562 116.164C455.938 115.023 455.625 113.539 455.625 111.711V87.3359Z" fill="black"/>
<path d="M1134 0H1348C1356.28 0 1363 6.71573 1363 15V148C1363 156.284 1356.28 163 1348 163H1134V0Z" fill="#2FE2EE"/>
<path d="M1212.5 117.5L1212.5 45.5L1284.5 45.5L1284.5 117.5L1212.5 117.5Z" fill="white" fill-opacity="0.01"/>
<path d="M1221.5 81.5125L1221.5 108.5L1275.5 108.5L1275.5 81.5" stroke="white" stroke-width="7.24" stroke-linecap="round" stroke-linejoin="round"/>
<path d="M1262 68L1248.5 54.5L1235 68" stroke="white" stroke-width="7.24" stroke-linecap="round" stroke-linejoin="round"/>
<path d="M1248.49 93.5L1248.49 54.5" stroke="white" stroke-width="7.24" stroke-linecap="round" stroke-linejoin="round"/>
</svg>
