<svg width="1363" height="297" viewBox="0 0 1363 297" fill="none" xmlns="http://www.w3.org/2000/svg">
<path d="M0 15C0 6.71573 6.71573 0 15 0H37V297H15C6.71573 297 0 290.284 0 282V15Z" fill="#424242"/>
<path d="M37 0H1066V297H37V0Z" fill="#F0F0F0"/>
<path d="M98.8008 49.4062L104.145 61.0781L109.488 49.4062H115.236L106.816 65.6836V75H101.473V65.6836L93.0352 49.4062H98.8008ZM115.289 65.6836V65.3145C115.289 63.9199 115.488 62.6367 115.887 61.4648C116.285 60.2812 116.865 59.2559 117.627 58.3887C118.389 57.5215 119.326 56.8477 120.439 56.3672C121.553 55.875 122.83 55.6289 124.271 55.6289C125.713 55.6289 126.996 55.875 128.121 56.3672C129.246 56.8477 130.189 57.5215 130.951 58.3887C131.725 59.2559 132.311 60.2812 132.709 61.4648C133.107 62.6367 133.307 63.9199 133.307 65.3145V65.6836C133.307 67.0664 133.107 68.3496 132.709 69.5332C132.311 70.7051 131.725 71.7305 130.951 72.6094C130.189 73.4766 129.252 74.1504 128.139 74.6309C127.025 75.1113 125.748 75.3516 124.307 75.3516C122.865 75.3516 121.582 75.1113 120.457 74.6309C119.344 74.1504 118.4 73.4766 117.627 72.6094C116.865 71.7305 116.285 70.7051 115.887 69.5332C115.488 68.3496 115.289 67.0664 115.289 65.6836ZM120.352 65.3145V65.6836C120.352 66.4805 120.422 67.2246 120.562 67.916C120.703 68.6074 120.926 69.2168 121.23 69.7441C121.547 70.2598 121.957 70.6641 122.461 70.957C122.965 71.25 123.58 71.3965 124.307 71.3965C125.01 71.3965 125.613 71.25 126.117 70.957C126.621 70.6641 127.025 70.2598 127.33 69.7441C127.635 69.2168 127.857 68.6074 127.998 67.916C128.15 67.2246 128.227 66.4805 128.227 65.6836V65.3145C128.227 64.541 128.15 63.8145 127.998 63.1348C127.857 62.4434 127.629 61.834 127.312 61.3066C127.008 60.7676 126.604 60.3457 126.1 60.041C125.596 59.7363 124.986 59.584 124.271 59.584C123.557 59.584 122.947 59.7363 122.443 60.041C121.951 60.3457 121.547 60.7676 121.23 61.3066C120.926 61.834 120.703 62.4434 120.562 63.1348C120.422 63.8145 120.352 64.541 120.352 65.3145ZM147.668 70.4473V55.9805H152.73V75H147.967L147.668 70.4473ZM148.23 66.5449L149.725 66.5098C149.725 67.7754 149.578 68.9531 149.285 70.043C148.992 71.1211 148.553 72.0586 147.967 72.8555C147.381 73.6406 146.643 74.2559 145.752 74.7012C144.861 75.1348 143.812 75.3516 142.605 75.3516C141.68 75.3516 140.824 75.2227 140.039 74.9648C139.266 74.6953 138.598 74.2793 138.035 73.7168C137.484 73.1426 137.051 72.4102 136.734 71.5195C136.43 70.6172 136.277 69.5332 136.277 68.2676V55.9805H141.34V68.3027C141.34 68.8652 141.404 69.3398 141.533 69.7266C141.674 70.1133 141.867 70.4297 142.113 70.6758C142.359 70.9219 142.646 71.0977 142.975 71.2031C143.314 71.3086 143.689 71.3613 144.1 71.3613C145.143 71.3613 145.963 71.1504 146.561 70.7285C147.17 70.3066 147.598 69.7324 147.844 69.0059C148.102 68.2676 148.23 67.4473 148.23 66.5449ZM161.555 60.041V75H156.492V55.9805H161.238L161.555 60.041ZM160.816 64.8223H159.445C159.445 63.416 159.627 62.1504 159.99 61.0254C160.354 59.8887 160.863 58.9219 161.52 58.125C162.176 57.3164 162.955 56.7012 163.857 56.2793C164.771 55.8457 165.791 55.6289 166.916 55.6289C167.807 55.6289 168.621 55.7578 169.359 56.0156C170.098 56.2734 170.73 56.6836 171.258 57.2461C171.797 57.8086 172.207 58.5527 172.488 59.4785C172.781 60.4043 172.928 61.5352 172.928 62.8711V75H167.83V62.8535C167.83 62.0098 167.713 61.3535 167.479 60.8848C167.244 60.416 166.898 60.0879 166.441 59.9004C165.996 59.7012 165.445 59.6016 164.789 59.6016C164.109 59.6016 163.518 59.7363 163.014 60.0059C162.521 60.2754 162.111 60.6504 161.783 61.1309C161.467 61.5996 161.227 62.1504 161.062 62.7832C160.898 63.416 160.816 64.0957 160.816 64.8223ZM185.531 75.3516C184.055 75.3516 182.73 75.1172 181.559 74.6484C180.387 74.168 179.391 73.5059 178.57 72.6621C177.762 71.8184 177.141 70.8398 176.707 69.7266C176.273 68.6016 176.057 67.4062 176.057 66.1406V65.4375C176.057 63.9961 176.262 62.6777 176.672 61.4824C177.082 60.2871 177.668 59.25 178.43 58.3711C179.203 57.4922 180.141 56.8184 181.242 56.3496C182.344 55.8691 183.586 55.6289 184.969 55.6289C186.316 55.6289 187.512 55.8516 188.555 56.2969C189.598 56.7422 190.471 57.375 191.174 58.1953C191.889 59.0156 192.428 60 192.791 61.1484C193.154 62.2852 193.336 63.5508 193.336 64.9453V67.0547H178.219V63.6797H188.361V63.293C188.361 62.5898 188.232 61.9629 187.975 61.4121C187.729 60.8496 187.354 60.4043 186.85 60.0762C186.346 59.748 185.701 59.584 184.916 59.584C184.248 59.584 183.674 59.7305 183.193 60.0234C182.713 60.3164 182.32 60.7266 182.016 61.2539C181.723 61.7812 181.5 62.4023 181.348 63.1172C181.207 63.8203 181.137 64.5938 181.137 65.4375V66.1406C181.137 66.9023 181.242 67.6055 181.453 68.25C181.676 68.8945 181.986 69.4512 182.385 69.9199C182.795 70.3887 183.287 70.752 183.861 71.0098C184.447 71.2676 185.109 71.3965 185.848 71.3965C186.762 71.3965 187.611 71.2207 188.396 70.8691C189.193 70.5059 189.879 69.9609 190.453 69.2344L192.914 71.9062C192.516 72.4805 191.971 73.0312 191.279 73.5586C190.6 74.0859 189.779 74.5195 188.818 74.8594C187.857 75.1875 186.762 75.3516 185.531 75.3516ZM206.502 69.7441C206.502 69.3809 206.396 69.0527 206.186 68.7598C205.975 68.4668 205.582 68.1973 205.008 67.9512C204.445 67.6934 203.631 67.459 202.564 67.248C201.604 67.0371 200.707 66.7734 199.875 66.457C199.055 66.1289 198.34 65.7363 197.73 65.2793C197.133 64.8223 196.664 64.2832 196.324 63.6621C195.984 63.0293 195.814 62.3086 195.814 61.5C195.814 60.7031 195.984 59.9531 196.324 59.25C196.676 58.5469 197.174 57.9258 197.818 57.3867C198.475 56.8359 199.271 56.4082 200.209 56.1035C201.158 55.7871 202.225 55.6289 203.408 55.6289C205.061 55.6289 206.479 55.8926 207.662 56.4199C208.857 56.9473 209.771 57.6738 210.404 58.5996C211.049 59.5137 211.371 60.5566 211.371 61.7285H206.309C206.309 61.2363 206.203 60.7969 205.992 60.4102C205.793 60.0117 205.477 59.7012 205.043 59.4785C204.621 59.2441 204.07 59.127 203.391 59.127C202.828 59.127 202.342 59.2266 201.932 59.4258C201.521 59.6133 201.205 59.8711 200.982 60.1992C200.771 60.5156 200.666 60.8672 200.666 61.2539C200.666 61.5469 200.725 61.8105 200.842 62.0449C200.971 62.2676 201.176 62.4727 201.457 62.6602C201.738 62.8477 202.102 63.0234 202.547 63.1875C203.004 63.3398 203.566 63.4805 204.234 63.6094C205.605 63.8906 206.83 64.2598 207.908 64.7168C208.986 65.1621 209.842 65.7715 210.475 66.5449C211.107 67.3066 211.424 68.3086 211.424 69.5508C211.424 70.3945 211.236 71.168 210.861 71.8711C210.486 72.5742 209.947 73.1895 209.244 73.7168C208.541 74.2324 207.697 74.6367 206.713 74.9297C205.74 75.2109 204.645 75.3516 203.426 75.3516C201.656 75.3516 200.156 75.0352 198.926 74.4023C197.707 73.7695 196.781 72.9668 196.148 71.9941C195.527 71.0098 195.217 70.002 195.217 68.9707H200.016C200.039 69.6621 200.215 70.2188 200.543 70.6406C200.883 71.0625 201.311 71.3672 201.826 71.5547C202.354 71.7422 202.922 71.8359 203.531 71.8359C204.188 71.8359 204.732 71.748 205.166 71.5723C205.6 71.3848 205.928 71.1387 206.15 70.834C206.385 70.5176 206.502 70.1543 206.502 69.7441ZM231.85 75H226.277L226.312 70.8867H231.85C233.232 70.8867 234.398 70.5762 235.348 69.9551C236.297 69.3223 237.012 68.4023 237.492 67.1953C237.984 65.9883 238.23 64.5293 238.23 62.8184V61.5703C238.23 60.2578 238.09 59.1035 237.809 58.1074C237.539 57.1113 237.135 56.2734 236.596 55.5938C236.057 54.9141 235.395 54.4043 234.609 54.0645C233.824 53.7129 232.922 53.5371 231.902 53.5371H226.172V49.4062H231.902C233.613 49.4062 235.178 49.6992 236.596 50.2852C238.025 50.8594 239.262 51.6855 240.305 52.7637C241.348 53.8418 242.15 55.1309 242.713 56.6309C243.287 58.1191 243.574 59.7773 243.574 61.6055V62.8184C243.574 64.6348 243.287 66.293 242.713 67.793C242.15 69.293 241.348 70.582 240.305 71.6602C239.273 72.7266 238.037 73.5527 236.596 74.1387C235.166 74.7129 233.584 75 231.85 75ZM229.266 49.4062V75H223.992V49.4062H229.266ZM257.355 70.7109V62.2383C257.355 61.6289 257.256 61.1074 257.057 60.6738C256.857 60.2285 256.547 59.8828 256.125 59.6367C255.715 59.3906 255.182 59.2676 254.525 59.2676C253.963 59.2676 253.477 59.3672 253.066 59.5664C252.656 59.7539 252.34 60.0293 252.117 60.3926C251.895 60.7441 251.783 61.1602 251.783 61.6406H246.721C246.721 60.832 246.908 60.0645 247.283 59.3379C247.658 58.6113 248.203 57.9727 248.918 57.4219C249.633 56.8594 250.482 56.4199 251.467 56.1035C252.463 55.7871 253.576 55.6289 254.807 55.6289C256.283 55.6289 257.596 55.875 258.744 56.3672C259.893 56.8594 260.795 57.5977 261.451 58.582C262.119 59.5664 262.453 60.7969 262.453 62.2734V70.4121C262.453 71.4551 262.518 72.3105 262.646 72.9785C262.775 73.6348 262.963 74.209 263.209 74.7012V75H258.094C257.848 74.4844 257.66 73.8398 257.531 73.0664C257.414 72.2812 257.355 71.4961 257.355 70.7109ZM258.023 63.416L258.059 66.2812H255.229C254.561 66.2812 253.98 66.3574 253.488 66.5098C252.996 66.6621 252.592 66.8789 252.275 67.1602C251.959 67.4297 251.725 67.7461 251.572 68.1094C251.432 68.4727 251.361 68.8711 251.361 69.3047C251.361 69.7383 251.461 70.1309 251.66 70.4824C251.859 70.8223 252.146 71.0918 252.521 71.291C252.896 71.4785 253.336 71.5723 253.84 71.5723C254.602 71.5723 255.264 71.4199 255.826 71.1152C256.389 70.8105 256.822 70.4355 257.127 69.9902C257.443 69.5449 257.607 69.123 257.619 68.7246L258.955 70.8691C258.768 71.3496 258.51 71.8477 258.182 72.3633C257.865 72.8789 257.461 73.3652 256.969 73.8223C256.477 74.2676 255.885 74.6367 255.193 74.9297C254.502 75.2109 253.682 75.3516 252.732 75.3516C251.525 75.3516 250.43 75.1113 249.445 74.6309C248.473 74.1387 247.699 73.4648 247.125 72.6094C246.562 71.7422 246.281 70.7578 246.281 69.6562C246.281 68.6602 246.469 67.7754 246.844 67.002C247.219 66.2285 247.77 65.5781 248.496 65.0508C249.234 64.5117 250.154 64.1074 251.256 63.8379C252.357 63.5566 253.635 63.416 255.088 63.416H258.023ZM271.418 59.918V75H266.338V55.9805H271.102L271.418 59.918ZM270.715 64.8223H269.309C269.309 63.498 269.467 62.2793 269.783 61.166C270.111 60.041 270.586 59.0684 271.207 58.248C271.84 57.416 272.619 56.7715 273.545 56.3145C274.471 55.8574 275.543 55.6289 276.762 55.6289C277.605 55.6289 278.379 55.7578 279.082 56.0156C279.785 56.2617 280.389 56.6543 280.893 57.1934C281.408 57.7207 281.807 58.4121 282.088 59.2676C282.369 60.1113 282.51 61.125 282.51 62.3086V75H277.447V62.8711C277.447 62.0039 277.33 61.3359 277.096 60.8672C276.861 60.3984 276.527 60.0703 276.094 59.8828C275.672 59.6953 275.162 59.6016 274.564 59.6016C273.908 59.6016 273.334 59.7363 272.842 60.0059C272.361 60.2754 271.963 60.6504 271.646 61.1309C271.33 61.5996 271.096 62.1504 270.943 62.7832C270.791 63.416 270.715 64.0957 270.715 64.8223ZM282.035 64.2422L280.225 64.4707C280.225 63.2285 280.377 62.0742 280.682 61.0078C280.998 59.9414 281.461 59.0039 282.07 58.1953C282.691 57.3867 283.459 56.7598 284.373 56.3145C285.287 55.8574 286.342 55.6289 287.537 55.6289C288.451 55.6289 289.283 55.7637 290.033 56.0332C290.783 56.291 291.422 56.707 291.949 57.2812C292.488 57.8438 292.898 58.582 293.18 59.4961C293.473 60.4102 293.619 61.5293 293.619 62.8535V75H288.539V62.8535C288.539 61.9746 288.422 61.3066 288.188 60.8496C287.965 60.3809 287.637 60.0586 287.203 59.8828C286.781 59.6953 286.277 59.6016 285.691 59.6016C285.082 59.6016 284.549 59.7246 284.092 59.9707C283.635 60.2051 283.254 60.5332 282.949 60.9551C282.645 61.377 282.416 61.8691 282.264 62.4316C282.111 62.9824 282.035 63.5859 282.035 64.2422ZM296.73 65.6836V65.3145C296.73 63.9199 296.93 62.6367 297.328 61.4648C297.727 60.2812 298.307 59.2559 299.068 58.3887C299.83 57.5215 300.768 56.8477 301.881 56.3672C302.994 55.875 304.271 55.6289 305.713 55.6289C307.154 55.6289 308.438 55.875 309.562 56.3672C310.688 56.8477 311.631 57.5215 312.393 58.3887C313.166 59.2559 313.752 60.2812 314.15 61.4648C314.549 62.6367 314.748 63.9199 314.748 65.3145V65.6836C314.748 67.0664 314.549 68.3496 314.15 69.5332C313.752 70.7051 313.166 71.7305 312.393 72.6094C311.631 73.4766 310.693 74.1504 309.58 74.6309C308.467 75.1113 307.189 75.3516 305.748 75.3516C304.307 75.3516 303.023 75.1113 301.898 74.6309C300.785 74.1504 299.842 73.4766 299.068 72.6094C298.307 71.7305 297.727 70.7051 297.328 69.5332C296.93 68.3496 296.73 67.0664 296.73 65.6836ZM301.793 65.3145V65.6836C301.793 66.4805 301.863 67.2246 302.004 67.916C302.145 68.6074 302.367 69.2168 302.672 69.7441C302.988 70.2598 303.398 70.6641 303.902 70.957C304.406 71.25 305.021 71.3965 305.748 71.3965C306.451 71.3965 307.055 71.25 307.559 70.957C308.062 70.6641 308.467 70.2598 308.771 69.7441C309.076 69.2168 309.299 68.6074 309.439 67.916C309.592 67.2246 309.668 66.4805 309.668 65.6836V65.3145C309.668 64.541 309.592 63.8145 309.439 63.1348C309.299 62.4434 309.07 61.834 308.754 61.3066C308.449 60.7676 308.045 60.3457 307.541 60.041C307.037 59.7363 306.428 59.584 305.713 59.584C304.998 59.584 304.389 59.7363 303.885 60.041C303.393 60.3457 302.988 60.7676 302.672 61.3066C302.367 61.834 302.145 62.4434 302.004 63.1348C301.863 63.8145 301.793 64.541 301.793 65.3145ZM329.109 70.4473V55.9805H334.172V75H329.408L329.109 70.4473ZM329.672 66.5449L331.166 66.5098C331.166 67.7754 331.02 68.9531 330.727 70.043C330.434 71.1211 329.994 72.0586 329.408 72.8555C328.822 73.6406 328.084 74.2559 327.193 74.7012C326.303 75.1348 325.254 75.3516 324.047 75.3516C323.121 75.3516 322.266 75.2227 321.48 74.9648C320.707 74.6953 320.039 74.2793 319.477 73.7168C318.926 73.1426 318.492 72.4102 318.176 71.5195C317.871 70.6172 317.719 69.5332 317.719 68.2676V55.9805H322.781V68.3027C322.781 68.8652 322.846 69.3398 322.975 69.7266C323.115 70.1133 323.309 70.4297 323.555 70.6758C323.801 70.9219 324.088 71.0977 324.416 71.2031C324.756 71.3086 325.131 71.3613 325.541 71.3613C326.584 71.3613 327.404 71.1504 328.002 70.7285C328.611 70.3066 329.039 69.7324 329.285 69.0059C329.543 68.2676 329.672 67.4473 329.672 66.5449ZM342.996 60.041V75H337.934V55.9805H342.68L342.996 60.041ZM342.258 64.8223H340.887C340.887 63.416 341.068 62.1504 341.432 61.0254C341.795 59.8887 342.305 58.9219 342.961 58.125C343.617 57.3164 344.396 56.7012 345.299 56.2793C346.213 55.8457 347.232 55.6289 348.357 55.6289C349.248 55.6289 350.062 55.7578 350.801 56.0156C351.539 56.2734 352.172 56.6836 352.699 57.2461C353.238 57.8086 353.648 58.5527 353.93 59.4785C354.223 60.4043 354.369 61.5352 354.369 62.8711V75H349.271V62.8535C349.271 62.0098 349.154 61.3535 348.92 60.8848C348.686 60.416 348.34 60.0879 347.883 59.9004C347.438 59.7012 346.887 59.6016 346.23 59.6016C345.551 59.6016 344.959 59.7363 344.455 60.0059C343.963 60.2754 343.553 60.6504 343.225 61.1309C342.908 61.5996 342.668 62.1504 342.504 62.7832C342.34 63.416 342.258 64.0957 342.258 64.8223ZM368.484 70.7109V62.2383C368.484 61.6289 368.385 61.1074 368.186 60.6738C367.986 60.2285 367.676 59.8828 367.254 59.6367C366.844 59.3906 366.311 59.2676 365.654 59.2676C365.092 59.2676 364.605 59.3672 364.195 59.5664C363.785 59.7539 363.469 60.0293 363.246 60.3926C363.023 60.7441 362.912 61.1602 362.912 61.6406H357.85C357.85 60.832 358.037 60.0645 358.412 59.3379C358.787 58.6113 359.332 57.9727 360.047 57.4219C360.762 56.8594 361.611 56.4199 362.596 56.1035C363.592 55.7871 364.705 55.6289 365.936 55.6289C367.412 55.6289 368.725 55.875 369.873 56.3672C371.021 56.8594 371.924 57.5977 372.58 58.582C373.248 59.5664 373.582 60.7969 373.582 62.2734V70.4121C373.582 71.4551 373.646 72.3105 373.775 72.9785C373.904 73.6348 374.092 74.209 374.338 74.7012V75H369.223C368.977 74.4844 368.789 73.8398 368.66 73.0664C368.543 72.2812 368.484 71.4961 368.484 70.7109ZM369.152 63.416L369.188 66.2812H366.357C365.689 66.2812 365.109 66.3574 364.617 66.5098C364.125 66.6621 363.721 66.8789 363.404 67.1602C363.088 67.4297 362.854 67.7461 362.701 68.1094C362.561 68.4727 362.49 68.8711 362.49 69.3047C362.49 69.7383 362.59 70.1309 362.789 70.4824C362.988 70.8223 363.275 71.0918 363.65 71.291C364.025 71.4785 364.465 71.5723 364.969 71.5723C365.73 71.5723 366.393 71.4199 366.955 71.1152C367.518 70.8105 367.951 70.4355 368.256 69.9902C368.572 69.5449 368.736 69.123 368.748 68.7246L370.084 70.8691C369.896 71.3496 369.639 71.8477 369.311 72.3633C368.994 72.8789 368.59 73.3652 368.098 73.8223C367.605 74.2676 367.014 74.6367 366.322 74.9297C365.631 75.2109 364.811 75.3516 363.861 75.3516C362.654 75.3516 361.559 75.1113 360.574 74.6309C359.602 74.1387 358.828 73.4648 358.254 72.6094C357.691 71.7422 357.41 70.7578 357.41 69.6562C357.41 68.6602 357.598 67.7754 357.973 67.002C358.348 66.2285 358.898 65.5781 359.625 65.0508C360.363 64.5117 361.283 64.1074 362.385 63.8379C363.486 63.5566 364.764 63.416 366.217 63.416H369.152Z" fill="#888888"/>
<path d="M128.602 118.727V135.078C127.927 135.826 126.888 136.628 125.484 137.484C124.099 138.323 122.349 139.043 120.234 139.645C118.12 140.246 115.632 140.547 112.77 140.547C110.126 140.547 107.729 140.128 105.578 139.289C103.427 138.432 101.577 137.184 100.027 135.543C98.4961 133.884 97.3112 131.861 96.4727 129.473C95.6523 127.066 95.2422 124.314 95.2422 121.215V119C95.2422 115.901 95.6615 113.148 96.5 110.742C97.3385 108.336 98.5143 106.312 100.027 104.672C101.559 103.013 103.354 101.755 105.414 100.898C107.492 100.042 109.771 99.6133 112.25 99.6133C115.914 99.6133 118.895 100.197 121.191 101.363C123.488 102.512 125.229 104.107 126.414 106.148C127.599 108.172 128.319 110.514 128.574 113.176H119.359C119.177 111.863 118.831 110.751 118.32 109.84C117.828 108.91 117.117 108.208 116.188 107.734C115.258 107.242 114.055 106.996 112.578 106.996C111.43 106.996 110.382 107.242 109.434 107.734C108.504 108.227 107.711 108.974 107.055 109.977C106.398 110.961 105.888 112.201 105.523 113.695C105.177 115.19 105.004 116.94 105.004 118.945V121.215C105.004 123.202 105.168 124.943 105.496 126.438C105.842 127.932 106.353 129.181 107.027 130.184C107.72 131.168 108.595 131.915 109.652 132.426C110.728 132.918 111.995 133.164 113.453 133.164C114.474 133.164 115.349 133.082 116.078 132.918C116.807 132.736 117.409 132.517 117.883 132.262C118.375 131.988 118.749 131.733 119.004 131.496V125.316H112.332V118.727H128.602ZM149.137 132.562V120.367C149.137 119.529 149.018 118.809 148.781 118.207C148.544 117.605 148.171 117.141 147.66 116.812C147.15 116.466 146.466 116.293 145.609 116.293C144.917 116.293 144.324 116.411 143.832 116.648C143.34 116.885 142.966 117.241 142.711 117.715C142.456 118.189 142.328 118.79 142.328 119.52H133.113C133.113 118.152 133.414 116.885 134.016 115.719C134.635 114.534 135.51 113.504 136.641 112.629C137.789 111.754 139.156 111.079 140.742 110.605C142.346 110.113 144.133 109.867 146.102 109.867C148.453 109.867 150.549 110.259 152.391 111.043C154.25 111.827 155.717 113.003 156.793 114.57C157.868 116.12 158.406 118.07 158.406 120.422V132.535C158.406 134.467 158.516 135.935 158.734 136.938C158.953 137.922 159.263 138.788 159.664 139.535V140H150.422C149.984 139.089 149.656 137.977 149.438 136.664C149.237 135.333 149.137 133.966 149.137 132.562ZM150.258 121.926L150.312 126.848H146.238C145.382 126.848 144.652 126.966 144.051 127.203C143.467 127.44 142.993 127.768 142.629 128.188C142.283 128.589 142.027 129.044 141.863 129.555C141.717 130.065 141.645 130.603 141.645 131.168C141.645 131.715 141.772 132.207 142.027 132.645C142.301 133.064 142.665 133.392 143.121 133.629C143.577 133.866 144.087 133.984 144.652 133.984C145.673 133.984 146.539 133.793 147.25 133.41C147.979 133.009 148.535 132.526 148.918 131.961C149.301 131.396 149.492 130.867 149.492 130.375L151.516 134.148C151.151 134.878 150.732 135.616 150.258 136.363C149.802 137.111 149.228 137.803 148.535 138.441C147.861 139.061 147.031 139.572 146.047 139.973C145.062 140.355 143.868 140.547 142.465 140.547C140.642 140.547 138.965 140.173 137.434 139.426C135.921 138.678 134.708 137.639 133.797 136.309C132.885 134.96 132.43 133.41 132.43 131.66C132.43 130.129 132.703 128.762 133.25 127.559C133.815 126.355 134.663 125.335 135.793 124.496C136.923 123.658 138.363 123.02 140.113 122.582C141.863 122.145 143.923 121.926 146.293 121.926H150.258ZM180.527 133.219V98H189.797V140H181.484L180.527 133.219ZM162.371 125.562V124.988C162.371 122.746 162.617 120.704 163.109 118.863C163.602 117.004 164.331 115.409 165.297 114.078C166.263 112.729 167.466 111.69 168.906 110.961C170.346 110.232 172.005 109.867 173.883 109.867C175.56 109.867 177.027 110.259 178.285 111.043C179.543 111.809 180.618 112.884 181.512 114.27C182.405 115.655 183.134 117.277 183.699 119.137C184.264 120.978 184.693 122.965 184.984 125.098V125.781C184.693 127.786 184.264 129.682 183.699 131.469C183.134 133.237 182.405 134.805 181.512 136.172C180.618 137.539 179.534 138.615 178.258 139.398C177 140.164 175.523 140.547 173.828 140.547C171.951 140.547 170.292 140.173 168.852 139.426C167.43 138.678 166.236 137.63 165.27 136.281C164.322 134.932 163.602 133.346 163.109 131.523C162.617 129.701 162.371 127.714 162.371 125.562ZM171.586 124.988V125.562C171.586 126.674 171.659 127.704 171.805 128.652C171.951 129.6 172.197 130.439 172.543 131.168C172.908 131.879 173.382 132.435 173.965 132.836C174.566 133.237 175.305 133.438 176.18 133.438C177.365 133.438 178.34 133.155 179.105 132.59C179.889 132.025 180.464 131.223 180.828 130.184C181.211 129.145 181.375 127.923 181.32 126.52V124.359C181.357 123.156 181.275 122.099 181.074 121.188C180.874 120.258 180.555 119.483 180.117 118.863C179.698 118.243 179.16 117.779 178.504 117.469C177.866 117.141 177.109 116.977 176.234 116.977C175.378 116.977 174.648 117.177 174.047 117.578C173.464 117.979 172.99 118.544 172.625 119.273C172.26 119.984 171.996 120.832 171.832 121.816C171.668 122.783 171.586 123.84 171.586 124.988ZM221.762 132.617V140H201.637V132.617H221.762ZM205.055 100.188V140H195.457V100.188H205.055ZM235.105 110.414V140H225.863V110.414H235.105ZM225.316 102.785C225.316 101.473 225.79 100.397 226.738 99.5586C227.686 98.7201 228.917 98.3008 230.43 98.3008C231.943 98.3008 233.173 98.7201 234.121 99.5586C235.069 100.397 235.543 101.473 235.543 102.785C235.543 104.098 235.069 105.173 234.121 106.012C233.173 106.85 231.943 107.27 230.43 107.27C228.917 107.27 227.686 106.85 226.738 106.012C225.79 105.173 225.316 104.098 225.316 102.785ZM252.086 140H242.816V108.008C242.816 105.711 243.281 103.779 244.211 102.211C245.141 100.643 246.453 99.4583 248.148 98.6562C249.844 97.8359 251.849 97.4258 254.164 97.4258C254.966 97.4258 255.723 97.4805 256.434 97.5898C257.145 97.6992 257.837 97.8359 258.512 98L258.539 104.781C258.211 104.69 257.874 104.626 257.527 104.59C257.181 104.553 256.753 104.535 256.242 104.535C255.349 104.535 254.592 104.672 253.973 104.945C253.353 105.201 252.879 105.592 252.551 106.121C252.241 106.632 252.086 107.26 252.086 108.008V140ZM257.828 110.414V116.812H238.551V110.414H257.828ZM276.723 110.414V116.812H258.895V110.414H276.723ZM262.641 103.059H271.855V130.348C271.855 131.132 271.947 131.742 272.129 132.18C272.311 132.599 272.621 132.9 273.059 133.082C273.514 133.246 274.116 133.328 274.863 133.328C275.392 133.328 275.829 133.319 276.176 133.301C276.522 133.264 276.85 133.219 277.16 133.164V139.754C276.376 140.009 275.556 140.201 274.699 140.328C273.842 140.474 272.931 140.547 271.965 140.547C269.996 140.547 268.31 140.237 266.906 139.617C265.521 138.997 264.464 138.022 263.734 136.691C263.005 135.361 262.641 133.629 262.641 131.496V103.059Z" fill="black"/>
<rect x="93" y="178" width="917" height="77" rx="10" fill="#D3D3D3"/>
<rect x="111" y="196" width="148" height="41" rx="3" fill="#424242"/>
<rect x="111" y="196" width="148" height="41" rx="3" stroke="#424242" stroke-width="4"/>
<path d="M134.234 210.203H139.271C140.255 210.203 141.11 210.35 141.837 210.643C142.563 210.936 143.123 211.369 143.516 211.943C143.914 212.518 144.113 213.227 144.113 214.07C144.113 214.803 143.999 215.415 143.771 215.907C143.542 216.399 143.223 216.807 142.812 217.129C142.408 217.445 141.937 217.706 141.397 217.911L140.387 218.482H136.159L136.142 216.101H139.271C139.663 216.101 139.988 216.03 140.246 215.89C140.504 215.749 140.697 215.55 140.826 215.292C140.961 215.028 141.028 214.715 141.028 214.352C141.028 213.982 140.961 213.666 140.826 213.402C140.691 213.139 140.492 212.937 140.229 212.796C139.971 212.655 139.651 212.585 139.271 212.585H137.319V223H134.234V210.203ZM141.239 223L138.409 217.34L141.679 217.322L144.544 222.868V223H141.239ZM150.441 223.176C149.668 223.176 148.977 223.056 148.367 222.815C147.758 222.569 147.242 222.232 146.82 221.805C146.404 221.377 146.085 220.885 145.862 220.328C145.646 219.771 145.537 219.183 145.537 218.562V218.228C145.537 217.53 145.634 216.886 145.827 216.294C146.021 215.696 146.308 215.175 146.688 214.729C147.069 214.284 147.547 213.938 148.121 213.692C148.695 213.44 149.363 213.314 150.125 213.314C150.799 213.314 151.402 213.423 151.936 213.64C152.469 213.856 152.92 214.167 153.289 214.571C153.664 214.976 153.948 215.465 154.142 216.039C154.341 216.613 154.44 217.258 154.44 217.973V219.177H146.671V217.322H151.549V217.094C151.555 216.777 151.499 216.508 151.382 216.285C151.271 216.062 151.106 215.893 150.89 215.775C150.673 215.658 150.409 215.6 150.099 215.6C149.776 215.6 149.51 215.67 149.299 215.811C149.094 215.951 148.933 216.145 148.815 216.391C148.704 216.631 148.625 216.909 148.578 217.226C148.531 217.542 148.508 217.876 148.508 218.228V218.562C148.508 218.913 148.555 219.232 148.648 219.52C148.748 219.807 148.889 220.053 149.07 220.258C149.258 220.457 149.48 220.612 149.738 220.724C150.002 220.835 150.301 220.891 150.635 220.891C151.039 220.891 151.438 220.814 151.83 220.662C152.223 220.51 152.56 220.258 152.841 219.906L154.186 221.506C153.992 221.781 153.717 222.048 153.359 222.306C153.008 222.563 152.586 222.774 152.094 222.938C151.602 223.097 151.051 223.176 150.441 223.176ZM160.584 220.609V216.689C160.584 216.42 160.546 216.188 160.47 215.995C160.394 215.802 160.273 215.652 160.109 215.547C159.945 215.436 159.726 215.38 159.45 215.38C159.228 215.38 159.037 215.418 158.879 215.494C158.721 215.57 158.601 215.685 158.519 215.837C158.437 215.989 158.396 216.183 158.396 216.417H155.434C155.434 215.978 155.53 215.57 155.724 215.195C155.923 214.814 156.204 214.483 156.567 214.202C156.937 213.921 157.376 213.704 157.886 213.552C158.401 213.394 158.976 213.314 159.608 213.314C160.364 213.314 161.038 213.44 161.63 213.692C162.228 213.944 162.699 214.322 163.045 214.826C163.391 215.324 163.563 215.951 163.563 216.707V220.601C163.563 221.222 163.599 221.693 163.669 222.016C163.739 222.332 163.839 222.61 163.968 222.851V223H160.997C160.856 222.707 160.751 222.35 160.681 221.928C160.616 221.5 160.584 221.061 160.584 220.609ZM160.944 217.19L160.962 218.772H159.652C159.377 218.772 159.143 218.811 158.949 218.887C158.762 218.963 158.609 219.068 158.492 219.203C158.381 219.332 158.299 219.479 158.246 219.643C158.199 219.807 158.176 219.979 158.176 220.161C158.176 220.337 158.217 220.495 158.299 220.636C158.387 220.771 158.504 220.876 158.65 220.952C158.797 221.028 158.961 221.066 159.143 221.066C159.471 221.066 159.749 221.005 159.978 220.882C160.212 220.753 160.391 220.598 160.514 220.416C160.637 220.234 160.698 220.064 160.698 219.906L161.349 221.119C161.231 221.354 161.097 221.591 160.944 221.831C160.798 222.071 160.613 222.294 160.391 222.499C160.174 222.698 159.907 222.862 159.591 222.991C159.274 223.114 158.891 223.176 158.439 223.176C157.854 223.176 157.314 223.056 156.822 222.815C156.336 222.575 155.946 222.241 155.653 221.813C155.36 221.38 155.214 220.882 155.214 220.319C155.214 219.827 155.302 219.388 155.478 219.001C155.659 218.614 155.932 218.286 156.295 218.017C156.658 217.747 157.121 217.542 157.684 217.401C158.246 217.261 158.908 217.19 159.67 217.19H160.944ZM169.224 220.891C169.499 220.891 169.733 220.841 169.927 220.741C170.126 220.636 170.275 220.489 170.375 220.302C170.48 220.108 170.53 219.877 170.524 219.607H173.311C173.316 220.322 173.141 220.949 172.783 221.488C172.432 222.021 171.951 222.438 171.342 222.736C170.738 223.029 170.056 223.176 169.294 223.176C168.55 223.176 167.899 223.056 167.343 222.815C166.786 222.569 166.32 222.229 165.945 221.796C165.576 221.356 165.298 220.844 165.11 220.258C164.929 219.672 164.838 219.036 164.838 218.351V218.148C164.838 217.463 164.929 216.827 165.11 216.241C165.298 215.649 165.576 215.137 165.945 214.703C166.32 214.264 166.783 213.924 167.334 213.684C167.891 213.438 168.538 213.314 169.276 213.314C170.067 213.314 170.765 213.464 171.368 213.763C171.978 214.062 172.455 214.495 172.801 215.063C173.146 215.632 173.316 216.32 173.311 217.129H170.524C170.53 216.842 170.486 216.584 170.393 216.355C170.299 216.127 170.152 215.945 169.953 215.811C169.76 215.67 169.511 215.6 169.206 215.6C168.901 215.6 168.655 215.667 168.468 215.802C168.28 215.937 168.137 216.124 168.037 216.364C167.943 216.599 167.879 216.868 167.844 217.173C167.814 217.478 167.8 217.803 167.8 218.148V218.351C167.8 218.702 167.814 219.033 167.844 219.344C167.879 219.648 167.946 219.918 168.046 220.152C168.146 220.381 168.289 220.562 168.477 220.697C168.664 220.826 168.913 220.891 169.224 220.891ZM179.586 213.49V215.547H173.855V213.49H179.586ZM175.06 211.126H178.021V219.897C178.021 220.149 178.051 220.346 178.109 220.486C178.168 220.621 178.268 220.718 178.408 220.776C178.555 220.829 178.748 220.855 178.988 220.855C179.158 220.855 179.299 220.853 179.41 220.847C179.521 220.835 179.627 220.82 179.727 220.803V222.921C179.475 223.003 179.211 223.064 178.936 223.105C178.66 223.152 178.367 223.176 178.057 223.176C177.424 223.176 176.882 223.076 176.431 222.877C175.985 222.678 175.646 222.364 175.411 221.937C175.177 221.509 175.06 220.952 175.06 220.267V211.126ZM196.074 210.203V223H192.998L188.472 215.037V223H185.387V210.203H188.472L192.998 218.166V210.203H196.074ZM202.824 220.609V216.689C202.824 216.42 202.786 216.188 202.71 215.995C202.634 215.802 202.514 215.652 202.35 215.547C202.186 215.436 201.966 215.38 201.69 215.38C201.468 215.38 201.277 215.418 201.119 215.494C200.961 215.57 200.841 215.685 200.759 215.837C200.677 215.989 200.636 216.183 200.636 216.417H197.674C197.674 215.978 197.771 215.57 197.964 215.195C198.163 214.814 198.444 214.483 198.808 214.202C199.177 213.921 199.616 213.704 200.126 213.552C200.642 213.394 201.216 213.314 201.849 213.314C202.604 213.314 203.278 213.44 203.87 213.692C204.468 213.944 204.939 214.322 205.285 214.826C205.631 215.324 205.804 215.951 205.804 216.707V220.601C205.804 221.222 205.839 221.693 205.909 222.016C205.979 222.332 206.079 222.61 206.208 222.851V223H203.237C203.097 222.707 202.991 222.35 202.921 221.928C202.856 221.5 202.824 221.061 202.824 220.609ZM203.185 217.19L203.202 218.772H201.893C201.617 218.772 201.383 218.811 201.189 218.887C201.002 218.963 200.85 219.068 200.732 219.203C200.621 219.332 200.539 219.479 200.486 219.643C200.439 219.807 200.416 219.979 200.416 220.161C200.416 220.337 200.457 220.495 200.539 220.636C200.627 220.771 200.744 220.876 200.891 220.952C201.037 221.028 201.201 221.066 201.383 221.066C201.711 221.066 201.989 221.005 202.218 220.882C202.452 220.753 202.631 220.598 202.754 220.416C202.877 220.234 202.938 220.064 202.938 219.906L203.589 221.119C203.472 221.354 203.337 221.591 203.185 221.831C203.038 222.071 202.854 222.294 202.631 222.499C202.414 222.698 202.147 222.862 201.831 222.991C201.515 223.114 201.131 223.176 200.68 223.176C200.094 223.176 199.555 223.056 199.062 222.815C198.576 222.575 198.187 222.241 197.894 221.813C197.601 221.38 197.454 220.882 197.454 220.319C197.454 219.827 197.542 219.388 197.718 219.001C197.899 218.614 198.172 218.286 198.535 218.017C198.898 217.747 199.361 217.542 199.924 217.401C200.486 217.261 201.148 217.19 201.91 217.19H203.185ZM212.457 213.49V215.547H206.727V213.49H212.457ZM207.931 211.126H210.893V219.897C210.893 220.149 210.922 220.346 210.98 220.486C211.039 220.621 211.139 220.718 211.279 220.776C211.426 220.829 211.619 220.855 211.859 220.855C212.029 220.855 212.17 220.853 212.281 220.847C212.393 220.835 212.498 220.82 212.598 220.803V222.921C212.346 223.003 212.082 223.064 211.807 223.105C211.531 223.152 211.238 223.176 210.928 223.176C210.295 223.176 209.753 223.076 209.302 222.877C208.856 222.678 208.517 222.364 208.282 221.937C208.048 221.509 207.931 220.952 207.931 220.267V211.126ZM216.764 213.49V223H213.793V213.49H216.764ZM213.617 211.038C213.617 210.616 213.77 210.271 214.074 210.001C214.379 209.731 214.774 209.597 215.261 209.597C215.747 209.597 216.143 209.731 216.447 210.001C216.752 210.271 216.904 210.616 216.904 211.038C216.904 211.46 216.752 211.806 216.447 212.075C216.143 212.345 215.747 212.479 215.261 212.479C214.774 212.479 214.379 212.345 214.074 212.075C213.77 211.806 213.617 211.46 213.617 211.038ZM222.02 220.97L223.892 213.49H227.012L223.9 223H222.055L222.02 220.97ZM220.912 213.49L222.758 220.97L222.74 223H220.886L217.783 213.49H220.912ZM232.373 223.176C231.6 223.176 230.908 223.056 230.299 222.815C229.689 222.569 229.174 222.232 228.752 221.805C228.336 221.377 228.017 220.885 227.794 220.328C227.577 219.771 227.469 219.183 227.469 218.562V218.228C227.469 217.53 227.565 216.886 227.759 216.294C227.952 215.696 228.239 215.175 228.62 214.729C229.001 214.284 229.479 213.938 230.053 213.692C230.627 213.44 231.295 213.314 232.057 213.314C232.73 213.314 233.334 213.423 233.867 213.64C234.4 213.856 234.852 214.167 235.221 214.571C235.596 214.976 235.88 215.465 236.073 216.039C236.272 216.613 236.372 217.258 236.372 217.973V219.177H228.603V217.322H233.48V217.094C233.486 216.777 233.431 216.508 233.313 216.285C233.202 216.062 233.038 215.893 232.821 215.775C232.604 215.658 232.341 215.6 232.03 215.6C231.708 215.6 231.441 215.67 231.23 215.811C231.025 215.951 230.864 216.145 230.747 216.391C230.636 216.631 230.557 216.909 230.51 217.226C230.463 217.542 230.439 217.876 230.439 218.228V218.562C230.439 218.913 230.486 219.232 230.58 219.52C230.68 219.807 230.82 220.053 231.002 220.258C231.189 220.457 231.412 220.612 231.67 220.724C231.934 220.835 232.232 220.891 232.566 220.891C232.971 220.891 233.369 220.814 233.762 220.662C234.154 220.51 234.491 220.258 234.772 219.906L236.117 221.506C235.924 221.781 235.648 222.048 235.291 222.306C234.939 222.563 234.518 222.774 234.025 222.938C233.533 223.097 232.982 223.176 232.373 223.176Z" fill="white"/>
<rect x="279" y="196" width="104" height="41" rx="3" fill="#424242"/>
<rect x="279" y="196" width="104" height="41" rx="3" stroke="#424242" stroke-width="4"/>
<path d="M310.812 220.627V223H304.343V220.627H310.812ZM305.441 210.203V223H302.356V210.203H305.441ZM316.911 220.609V216.689C316.911 216.42 316.873 216.188 316.797 215.995C316.721 215.802 316.601 215.652 316.437 215.547C316.272 215.436 316.053 215.38 315.777 215.38C315.555 215.38 315.364 215.418 315.206 215.494C315.048 215.57 314.928 215.685 314.846 215.837C314.764 215.989 314.723 216.183 314.723 216.417H311.761C311.761 215.978 311.857 215.57 312.051 215.195C312.25 214.814 312.531 214.483 312.895 214.202C313.264 213.921 313.703 213.704 314.213 213.552C314.729 213.394 315.303 213.314 315.936 213.314C316.691 213.314 317.365 213.44 317.957 213.692C318.555 213.944 319.026 214.322 319.372 214.826C319.718 215.324 319.891 215.951 319.891 216.707V220.601C319.891 221.222 319.926 221.693 319.996 222.016C320.066 222.332 320.166 222.61 320.295 222.851V223H317.324C317.184 222.707 317.078 222.35 317.008 221.928C316.943 221.5 316.911 221.061 316.911 220.609ZM317.271 217.19L317.289 218.772H315.979C315.704 218.772 315.47 218.811 315.276 218.887C315.089 218.963 314.937 219.068 314.819 219.203C314.708 219.332 314.626 219.479 314.573 219.643C314.526 219.807 314.503 219.979 314.503 220.161C314.503 220.337 314.544 220.495 314.626 220.636C314.714 220.771 314.831 220.876 314.978 220.952C315.124 221.028 315.288 221.066 315.47 221.066C315.798 221.066 316.076 221.005 316.305 220.882C316.539 220.753 316.718 220.598 316.841 220.416C316.964 220.234 317.025 220.064 317.025 219.906L317.676 221.119C317.559 221.354 317.424 221.591 317.271 221.831C317.125 222.071 316.94 222.294 316.718 222.499C316.501 222.698 316.234 222.862 315.918 222.991C315.602 223.114 315.218 223.176 314.767 223.176C314.181 223.176 313.642 223.056 313.149 222.815C312.663 222.575 312.273 222.241 311.98 221.813C311.688 221.38 311.541 220.882 311.541 220.319C311.541 219.827 311.629 219.388 311.805 219.001C311.986 218.614 312.259 218.286 312.622 218.017C312.985 217.747 313.448 217.542 314.011 217.401C314.573 217.261 315.235 217.19 315.997 217.19H317.271ZM324.522 215.846V223H321.561V213.49H324.329L324.522 215.846ZM327.335 213.42L327.282 216.171C327.165 216.159 327.007 216.145 326.808 216.127C326.608 216.109 326.441 216.101 326.307 216.101C325.961 216.101 325.662 216.142 325.41 216.224C325.164 216.3 324.959 216.417 324.795 216.575C324.637 216.728 324.52 216.921 324.443 217.155C324.373 217.39 324.341 217.662 324.347 217.973L323.811 217.621C323.811 216.982 323.872 216.402 323.995 215.881C324.124 215.354 324.306 214.899 324.54 214.519C324.774 214.132 325.059 213.836 325.393 213.631C325.727 213.42 326.102 213.314 326.518 213.314C326.664 213.314 326.808 213.323 326.948 213.341C327.095 213.358 327.224 213.385 327.335 213.42ZM333.03 220.609V216.689C333.03 216.42 332.992 216.188 332.916 215.995C332.84 215.802 332.72 215.652 332.556 215.547C332.392 215.436 332.172 215.38 331.896 215.38C331.674 215.38 331.483 215.418 331.325 215.494C331.167 215.57 331.047 215.685 330.965 215.837C330.883 215.989 330.842 216.183 330.842 216.417H327.88C327.88 215.978 327.977 215.57 328.17 215.195C328.369 214.814 328.65 214.483 329.014 214.202C329.383 213.921 329.822 213.704 330.332 213.552C330.848 213.394 331.422 213.314 332.055 213.314C332.811 213.314 333.484 213.44 334.076 213.692C334.674 213.944 335.146 214.322 335.491 214.826C335.837 215.324 336.01 215.951 336.01 216.707V220.601C336.01 221.222 336.045 221.693 336.115 222.016C336.186 222.332 336.285 222.61 336.414 222.851V223H333.443C333.303 222.707 333.197 222.35 333.127 221.928C333.062 221.5 333.03 221.061 333.03 220.609ZM333.391 217.19L333.408 218.772H332.099C331.823 218.772 331.589 218.811 331.396 218.887C331.208 218.963 331.056 219.068 330.938 219.203C330.827 219.332 330.745 219.479 330.692 219.643C330.646 219.807 330.622 219.979 330.622 220.161C330.622 220.337 330.663 220.495 330.745 220.636C330.833 220.771 330.95 220.876 331.097 220.952C331.243 221.028 331.407 221.066 331.589 221.066C331.917 221.066 332.195 221.005 332.424 220.882C332.658 220.753 332.837 220.598 332.96 220.416C333.083 220.234 333.145 220.064 333.145 219.906L333.795 221.119C333.678 221.354 333.543 221.591 333.391 221.831C333.244 222.071 333.06 222.294 332.837 222.499C332.62 222.698 332.354 222.862 332.037 222.991C331.721 223.114 331.337 223.176 330.886 223.176C330.3 223.176 329.761 223.056 329.269 222.815C328.782 222.575 328.393 222.241 328.1 221.813C327.807 221.38 327.66 220.882 327.66 220.319C327.66 219.827 327.748 219.388 327.924 219.001C328.105 218.614 328.378 218.286 328.741 218.017C329.104 217.747 329.567 217.542 330.13 217.401C330.692 217.261 331.354 217.19 332.116 217.19H333.391ZM340.94 220.97L342.812 213.49H345.933L342.821 223H340.976L340.94 220.97ZM339.833 213.49L341.679 220.97L341.661 223H339.807L336.704 213.49H339.833ZM351.294 223.176C350.521 223.176 349.829 223.056 349.22 222.815C348.61 222.569 348.095 222.232 347.673 221.805C347.257 221.377 346.938 220.885 346.715 220.328C346.498 219.771 346.39 219.183 346.39 218.562V218.228C346.39 217.53 346.486 216.886 346.68 216.294C346.873 215.696 347.16 215.175 347.541 214.729C347.922 214.284 348.399 213.938 348.974 213.692C349.548 213.44 350.216 213.314 350.978 213.314C351.651 213.314 352.255 213.423 352.788 213.64C353.321 213.856 353.772 214.167 354.142 214.571C354.517 214.976 354.801 215.465 354.994 216.039C355.193 216.613 355.293 217.258 355.293 217.973V219.177H347.523V217.322H352.401V217.094C352.407 216.777 352.352 216.508 352.234 216.285C352.123 216.062 351.959 215.893 351.742 215.775C351.525 215.658 351.262 215.6 350.951 215.6C350.629 215.6 350.362 215.67 350.151 215.811C349.946 215.951 349.785 216.145 349.668 216.391C349.557 216.631 349.478 216.909 349.431 217.226C349.384 217.542 349.36 217.876 349.36 218.228V218.562C349.36 218.913 349.407 219.232 349.501 219.52C349.601 219.807 349.741 220.053 349.923 220.258C350.11 220.457 350.333 220.612 350.591 220.724C350.854 220.835 351.153 220.891 351.487 220.891C351.892 220.891 352.29 220.814 352.683 220.662C353.075 220.51 353.412 220.258 353.693 219.906L355.038 221.506C354.845 221.781 354.569 222.048 354.212 222.306C353.86 222.563 353.438 222.774 352.946 222.938C352.454 223.097 351.903 223.176 351.294 223.176ZM359.626 209.5V223H356.655V209.5H359.626Z" fill="white"/>
<rect x="403" y="196" width="91" height="41" rx="3" fill="#424242"/>
<rect x="403" y="196" width="91" height="41" rx="3" stroke="#424242" stroke-width="4"/>
<path d="M426.141 210.203H431.177C432.161 210.203 433.017 210.35 433.743 210.643C434.47 210.936 435.029 211.369 435.422 211.943C435.82 212.518 436.02 213.227 436.02 214.07C436.02 214.803 435.905 215.415 435.677 215.907C435.448 216.399 435.129 216.807 434.719 217.129C434.314 217.445 433.843 217.706 433.304 217.911L432.293 218.482H428.065L428.048 216.101H431.177C431.569 216.101 431.895 216.03 432.152 215.89C432.41 215.749 432.604 215.55 432.732 215.292C432.867 215.028 432.935 214.715 432.935 214.352C432.935 213.982 432.867 213.666 432.732 213.402C432.598 213.139 432.398 212.937 432.135 212.796C431.877 212.655 431.558 212.585 431.177 212.585H429.226V223H426.141V210.203ZM433.146 223L430.315 217.34L433.585 217.322L436.45 222.868V223H433.146ZM442.348 223.176C441.574 223.176 440.883 223.056 440.273 222.815C439.664 222.569 439.148 222.232 438.727 221.805C438.311 221.377 437.991 220.885 437.769 220.328C437.552 219.771 437.443 219.183 437.443 218.562V218.228C437.443 217.53 437.54 216.886 437.733 216.294C437.927 215.696 438.214 215.175 438.595 214.729C438.976 214.284 439.453 213.938 440.027 213.692C440.602 213.44 441.27 213.314 442.031 213.314C442.705 213.314 443.309 213.423 443.842 213.64C444.375 213.856 444.826 214.167 445.195 214.571C445.57 214.976 445.854 215.465 446.048 216.039C446.247 216.613 446.347 217.258 446.347 217.973V219.177H438.577V217.322H443.455V217.094C443.461 216.777 443.405 216.508 443.288 216.285C443.177 216.062 443.013 215.893 442.796 215.775C442.579 215.658 442.315 215.6 442.005 215.6C441.683 215.6 441.416 215.67 441.205 215.811C441 215.951 440.839 216.145 440.722 216.391C440.61 216.631 440.531 216.909 440.484 217.226C440.438 217.542 440.414 217.876 440.414 218.228V218.562C440.414 218.913 440.461 219.232 440.555 219.52C440.654 219.807 440.795 220.053 440.977 220.258C441.164 220.457 441.387 220.612 441.645 220.724C441.908 220.835 442.207 220.891 442.541 220.891C442.945 220.891 443.344 220.814 443.736 220.662C444.129 220.51 444.466 220.258 444.747 219.906L446.092 221.506C445.898 221.781 445.623 222.048 445.266 222.306C444.914 222.563 444.492 222.774 444 222.938C443.508 223.097 442.957 223.176 442.348 223.176ZM452.49 220.609V216.689C452.49 216.42 452.452 216.188 452.376 215.995C452.3 215.802 452.18 215.652 452.016 215.547C451.852 215.436 451.632 215.38 451.356 215.38C451.134 215.38 450.943 215.418 450.785 215.494C450.627 215.57 450.507 215.685 450.425 215.837C450.343 215.989 450.302 216.183 450.302 216.417H447.34C447.34 215.978 447.437 215.57 447.63 215.195C447.829 214.814 448.11 214.483 448.474 214.202C448.843 213.921 449.282 213.704 449.792 213.552C450.308 213.394 450.882 213.314 451.515 213.314C452.271 213.314 452.944 213.44 453.536 213.692C454.134 213.944 454.605 214.322 454.951 214.826C455.297 215.324 455.47 215.951 455.47 216.707V220.601C455.47 221.222 455.505 221.693 455.575 222.016C455.646 222.332 455.745 222.61 455.874 222.851V223H452.903C452.763 222.707 452.657 222.35 452.587 221.928C452.522 221.5 452.49 221.061 452.49 220.609ZM452.851 217.19L452.868 218.772H451.559C451.283 218.772 451.049 218.811 450.855 218.887C450.668 218.963 450.516 219.068 450.398 219.203C450.287 219.332 450.205 219.479 450.152 219.643C450.105 219.807 450.082 219.979 450.082 220.161C450.082 220.337 450.123 220.495 450.205 220.636C450.293 220.771 450.41 220.876 450.557 220.952C450.703 221.028 450.867 221.066 451.049 221.066C451.377 221.066 451.655 221.005 451.884 220.882C452.118 220.753 452.297 220.598 452.42 220.416C452.543 220.234 452.604 220.064 452.604 219.906L453.255 221.119C453.138 221.354 453.003 221.591 452.851 221.831C452.704 222.071 452.52 222.294 452.297 222.499C452.08 222.698 451.813 222.862 451.497 222.991C451.181 223.114 450.797 223.176 450.346 223.176C449.76 223.176 449.221 223.056 448.729 222.815C448.242 222.575 447.853 222.241 447.56 221.813C447.267 221.38 447.12 220.882 447.12 220.319C447.12 219.827 447.208 219.388 447.384 219.001C447.565 218.614 447.838 218.286 448.201 218.017C448.564 217.747 449.027 217.542 449.59 217.401C450.152 217.261 450.814 217.19 451.576 217.19H452.851ZM461.13 220.891C461.405 220.891 461.64 220.841 461.833 220.741C462.032 220.636 462.182 220.489 462.281 220.302C462.387 220.108 462.437 219.877 462.431 219.607H465.217C465.223 220.322 465.047 220.949 464.689 221.488C464.338 222.021 463.857 222.438 463.248 222.736C462.645 223.029 461.962 223.176 461.2 223.176C460.456 223.176 459.806 223.056 459.249 222.815C458.692 222.569 458.227 222.229 457.852 221.796C457.482 221.356 457.204 220.844 457.017 220.258C456.835 219.672 456.744 219.036 456.744 218.351V218.148C456.744 217.463 456.835 216.827 457.017 216.241C457.204 215.649 457.482 215.137 457.852 214.703C458.227 214.264 458.689 213.924 459.24 213.684C459.797 213.438 460.444 213.314 461.183 213.314C461.974 213.314 462.671 213.464 463.274 213.763C463.884 214.062 464.361 214.495 464.707 215.063C465.053 215.632 465.223 216.32 465.217 217.129H462.431C462.437 216.842 462.393 216.584 462.299 216.355C462.205 216.127 462.059 215.945 461.859 215.811C461.666 215.67 461.417 215.6 461.112 215.6C460.808 215.6 460.562 215.667 460.374 215.802C460.187 215.937 460.043 216.124 459.943 216.364C459.85 216.599 459.785 216.868 459.75 217.173C459.721 217.478 459.706 217.803 459.706 218.148V218.351C459.706 218.702 459.721 219.033 459.75 219.344C459.785 219.648 459.853 219.918 459.952 220.152C460.052 220.381 460.195 220.562 460.383 220.697C460.57 220.826 460.819 220.891 461.13 220.891ZM471.492 213.49V215.547H465.762V213.49H471.492ZM466.966 211.126H469.928V219.897C469.928 220.149 469.957 220.346 470.016 220.486C470.074 220.621 470.174 220.718 470.314 220.776C470.461 220.829 470.654 220.855 470.895 220.855C471.064 220.855 471.205 220.853 471.316 220.847C471.428 220.835 471.533 220.82 471.633 220.803V222.921C471.381 223.003 471.117 223.064 470.842 223.105C470.566 223.152 470.273 223.176 469.963 223.176C469.33 223.176 468.788 223.076 468.337 222.877C467.892 222.678 467.552 222.364 467.317 221.937C467.083 221.509 466.966 220.952 466.966 220.267V211.126Z" fill="white"/>
<rect x="514" y="196" width="141" height="41" rx="3" fill="#424242"/>
<rect x="514" y="196" width="141" height="41" rx="3" stroke="#424242" stroke-width="4"/>
<path d="M542.849 212.893L539.729 223H536.415L541.117 210.203H543.218L542.849 212.893ZM545.433 223L542.304 212.893L541.899 210.203H544.026L548.755 223H545.433ZM545.31 218.228V220.609H538.744V218.228H545.31ZM552.543 215.846V223H549.581V213.49H552.35L552.543 215.846ZM555.355 213.42L555.303 216.171C555.186 216.159 555.027 216.145 554.828 216.127C554.629 216.109 554.462 216.101 554.327 216.101C553.981 216.101 553.683 216.142 553.431 216.224C553.185 216.3 552.979 216.417 552.815 216.575C552.657 216.728 552.54 216.921 552.464 217.155C552.394 217.39 552.361 217.662 552.367 217.973L551.831 217.621C551.831 216.982 551.893 216.402 552.016 215.881C552.145 215.354 552.326 214.899 552.561 214.519C552.795 214.132 553.079 213.836 553.413 213.631C553.747 213.42 554.122 213.314 554.538 213.314C554.685 213.314 554.828 213.323 554.969 213.341C555.115 213.358 555.244 213.385 555.355 213.42ZM561.666 220.82V209.5H564.646V223H561.974L561.666 220.82ZM555.83 218.359V218.175C555.83 217.454 555.909 216.798 556.067 216.206C556.226 215.608 556.46 215.096 556.771 214.668C557.081 214.234 557.468 213.9 557.931 213.666C558.394 213.432 558.927 213.314 559.53 213.314C560.069 213.314 560.541 213.44 560.945 213.692C561.35 213.938 561.695 214.284 561.982 214.729C562.27 215.175 562.504 215.696 562.686 216.294C562.867 216.886 563.005 217.524 563.099 218.21V218.43C563.005 219.074 562.867 219.684 562.686 220.258C562.504 220.826 562.27 221.33 561.982 221.77C561.695 222.209 561.347 222.555 560.937 222.807C560.532 223.053 560.058 223.176 559.513 223.176C558.909 223.176 558.376 223.056 557.913 222.815C557.456 222.575 557.072 222.238 556.762 221.805C556.457 221.371 556.226 220.861 556.067 220.275C555.909 219.689 555.83 219.051 555.83 218.359ZM558.792 218.175V218.359C558.792 218.717 558.815 219.048 558.862 219.353C558.909 219.657 558.988 219.927 559.1 220.161C559.217 220.39 559.369 220.568 559.557 220.697C559.75 220.826 559.987 220.891 560.269 220.891C560.649 220.891 560.963 220.8 561.209 220.618C561.461 220.437 561.646 220.179 561.763 219.845C561.886 219.511 561.938 219.118 561.921 218.667V217.973C561.933 217.586 561.906 217.246 561.842 216.953C561.777 216.654 561.675 216.405 561.534 216.206C561.399 216.007 561.227 215.857 561.016 215.758C560.811 215.652 560.567 215.6 560.286 215.6C560.011 215.6 559.776 215.664 559.583 215.793C559.396 215.922 559.243 216.104 559.126 216.338C559.009 216.566 558.924 216.839 558.871 217.155C558.818 217.466 558.792 217.806 558.792 218.175ZM571.879 220.688V213.49H574.85V223H572.072L571.879 220.688ZM572.16 218.755L572.934 218.737C572.934 219.376 572.857 219.968 572.705 220.513C572.553 221.052 572.327 221.521 572.028 221.919C571.735 222.317 571.372 222.628 570.938 222.851C570.511 223.067 570.016 223.176 569.453 223.176C568.984 223.176 568.554 223.111 568.161 222.982C567.774 222.848 567.44 222.64 567.159 222.358C566.878 222.071 566.658 221.705 566.5 221.26C566.348 220.809 566.271 220.27 566.271 219.643V213.49H569.233V219.66C569.233 219.871 569.26 220.053 569.312 220.205C569.365 220.357 569.441 220.486 569.541 220.592C569.641 220.691 569.764 220.768 569.91 220.82C570.062 220.867 570.235 220.891 570.429 220.891C570.874 220.891 571.223 220.797 571.475 220.609C571.727 220.422 571.902 220.167 572.002 219.845C572.107 219.522 572.16 219.159 572.16 218.755ZM579.613 213.49V223H576.643V213.49H579.613ZM576.467 211.038C576.467 210.616 576.619 210.271 576.924 210.001C577.229 209.731 577.624 209.597 578.11 209.597C578.597 209.597 578.992 209.731 579.297 210.001C579.602 210.271 579.754 210.616 579.754 211.038C579.754 211.46 579.602 211.806 579.297 212.075C578.992 212.345 578.597 212.479 578.11 212.479C577.624 212.479 577.229 212.345 576.924 212.075C576.619 211.806 576.467 211.46 576.467 211.038ZM584.351 215.521V223H581.389V213.49H584.166L584.351 215.521ZM583.999 217.92L583.305 217.938C583.305 217.211 583.393 216.563 583.568 215.995C583.744 215.421 583.993 214.935 584.315 214.536C584.638 214.138 585.021 213.836 585.467 213.631C585.918 213.42 586.419 213.314 586.97 213.314C587.409 213.314 587.811 213.379 588.174 213.508C588.543 213.637 588.859 213.845 589.123 214.132C589.393 214.419 589.598 214.8 589.738 215.274C589.885 215.743 589.958 216.323 589.958 217.015V223H586.979V217.006C586.979 216.625 586.926 216.335 586.82 216.136C586.715 215.931 586.562 215.79 586.363 215.714C586.164 215.638 585.921 215.6 585.634 215.6C585.329 215.6 585.071 215.658 584.86 215.775C584.649 215.893 584.479 216.057 584.351 216.268C584.228 216.473 584.137 216.716 584.078 216.997C584.025 217.278 583.999 217.586 583.999 217.92ZM591.232 218.342V218.157C591.232 217.46 591.332 216.818 591.531 216.232C591.73 215.641 592.023 215.128 592.41 214.694C592.797 214.261 593.274 213.924 593.843 213.684C594.411 213.438 595.067 213.314 595.812 213.314C596.562 213.314 597.221 213.438 597.789 213.684C598.363 213.924 598.844 214.261 599.23 214.694C599.617 215.128 599.91 215.641 600.109 216.232C600.309 216.818 600.408 217.46 600.408 218.157V218.342C600.408 219.033 600.309 219.675 600.109 220.267C599.91 220.853 599.617 221.365 599.23 221.805C598.844 222.238 598.366 222.575 597.798 222.815C597.229 223.056 596.573 223.176 595.829 223.176C595.085 223.176 594.426 223.056 593.852 222.815C593.277 222.575 592.797 222.238 592.41 221.805C592.023 221.365 591.73 220.853 591.531 220.267C591.332 219.675 591.232 219.033 591.232 218.342ZM594.194 218.157V218.342C594.194 218.699 594.221 219.033 594.273 219.344C594.326 219.654 594.414 219.927 594.537 220.161C594.66 220.39 594.827 220.568 595.038 220.697C595.249 220.826 595.513 220.891 595.829 220.891C596.14 220.891 596.397 220.826 596.603 220.697C596.813 220.568 596.98 220.39 597.104 220.161C597.227 219.927 597.314 219.654 597.367 219.344C597.42 219.033 597.446 218.699 597.446 218.342V218.157C597.446 217.812 597.42 217.486 597.367 217.182C597.314 216.871 597.227 216.599 597.104 216.364C596.98 216.124 596.813 215.937 596.603 215.802C596.392 215.667 596.128 215.6 595.812 215.6C595.501 215.6 595.24 215.667 595.029 215.802C594.824 215.937 594.66 216.124 594.537 216.364C594.414 216.599 594.326 216.871 594.273 217.182C594.221 217.486 594.194 217.812 594.194 218.157ZM609.628 210.203V223H606.552V210.203H609.628ZM615.956 223H613.117L613.135 220.627H615.956C616.542 220.627 617.037 220.486 617.441 220.205C617.852 219.924 618.162 219.505 618.373 218.948C618.59 218.386 618.698 217.694 618.698 216.874V216.32C618.698 215.705 618.637 215.166 618.514 214.703C618.396 214.234 618.221 213.845 617.986 213.534C617.752 213.218 617.459 212.98 617.107 212.822C616.762 212.664 616.363 212.585 615.912 212.585H613.064V210.203H615.912C616.779 210.203 617.573 210.353 618.294 210.651C619.021 210.944 619.647 211.366 620.175 211.917C620.708 212.462 621.118 213.109 621.405 213.859C621.698 214.604 621.845 215.43 621.845 216.338V216.874C621.845 217.776 621.698 218.603 621.405 219.353C621.118 220.103 620.711 220.75 620.184 221.295C619.656 221.84 619.032 222.262 618.312 222.561C617.597 222.854 616.812 223 615.956 223ZM614.884 210.203V223H611.799V210.203H614.884ZM632.26 220.627V223H625.439V220.627H632.26ZM626.538 210.203V223H623.453V210.203H626.538ZM631.381 215.283V217.577H625.439V215.283H631.381ZM632.286 210.203V212.585H625.439V210.203H632.286Z" fill="white"/>
<path d="M1066 0H1348C1356.28 0 1363 6.71573 1363 15V282C1363 290.284 1356.28 297 1348 297H1066V0Z" fill="white"/>
<path fill-rule="evenodd" clip-rule="evenodd" d="M1207.5 132.817H1229.5V171.371H1256H1293H1329.5V179.866H1207.5V132.817ZM1219.5 171.045H1227.5V163.203H1219.5V171.045ZM1217.5 163.203V171.045H1209.5V163.203H1217.5ZM1227.5 161.243H1219.5V153.401H1227.5V161.243ZM1217.5 153.401V161.243H1209.5V153.401H1217.5ZM1219.5 151.441V143.599H1227.5V151.441H1219.5ZM1217.5 151.441V143.599H1209.5V151.441H1217.5ZM1219.5 141.639H1227.5V133.797H1219.5V141.639ZM1217.5 133.797V141.639H1209.5V133.797H1217.5Z" fill="#2FE2EE"/>
<path d="M1104.4 181.047C1098.3 181.047 1093.53 179.53 1090.1 176.497C1086.7 173.43 1085 168.897 1085 162.897C1085 156.93 1086.73 152.43 1090.2 149.397C1093.7 146.33 1098.77 144.797 1105.4 144.797H1124.4V151.297H1105.95C1101.58 151.297 1098.35 152.214 1096.25 154.047C1094.18 155.88 1093.15 158.83 1093.15 162.897C1093.15 166.764 1094.07 169.63 1095.9 171.497C1097.73 173.33 1100.42 174.33 1103.95 174.497V160.597H1126.35V181.047H1104.4ZM1111.45 174.547H1118.35V167.097H1111.45V174.547ZM1139.44 180.797C1136.74 180.797 1134.67 180.114 1133.24 178.747C1131.8 177.38 1131.09 175.43 1131.09 172.897C1131.09 170.397 1131.8 168.464 1133.24 167.097C1134.67 165.73 1136.74 165.047 1139.44 165.047H1158.64V163.847C1158.64 161.814 1157.64 160.797 1155.64 160.797H1134.44V155.047H1157.54C1160.57 155.047 1162.72 155.747 1163.99 157.147C1165.25 158.514 1165.89 160.447 1165.89 162.947V180.797H1139.44ZM1140.74 175.047H1158.64V170.797H1140.74C1140.1 170.797 1139.6 170.997 1139.24 171.397C1138.9 171.764 1138.74 172.264 1138.74 172.897C1138.74 173.53 1138.9 174.047 1139.24 174.447C1139.6 174.847 1140.1 175.047 1140.74 175.047ZM1203.11 180.797H1195.86V145.047H1203.11V180.797ZM1201.86 180.797H1184.61C1180.14 180.797 1176.66 179.697 1174.16 177.497C1171.66 175.297 1170.41 172.114 1170.41 167.947C1170.41 163.747 1171.66 160.547 1174.16 158.347C1176.66 156.147 1180.14 155.047 1184.61 155.047H1201.36V160.797H1184.61C1182.44 160.797 1180.77 161.397 1179.61 162.597C1178.47 163.764 1177.91 165.547 1177.91 167.947C1177.91 170.314 1178.47 172.097 1179.61 173.297C1180.77 174.464 1182.44 175.047 1184.61 175.047H1201.86V180.797Z" fill="black"/>
<path d="M1232.5 132.817H1240.5V168.104H1232.5V132.817Z" fill="#2FE2EE"/>
<path d="M1337.5 131.837C1337.5 130.936 1337.32 130.043 1336.97 129.211C1336.62 128.378 1336.1 127.622 1335.45 126.985C1334.8 126.348 1334.03 125.842 1333.18 125.498C1332.33 125.153 1331.42 124.975 1330.5 124.975" stroke="#2FE2EE" stroke-width="3"/>
<path d="M1345.5 131.837C1345.5 129.906 1345.11 127.994 1344.36 126.21C1343.6 124.426 1342.5 122.805 1341.11 121.44C1339.71 120.075 1338.06 118.992 1336.24 118.253C1334.42 117.514 1332.47 117.134 1330.5 117.134" stroke="#2FE2EE" stroke-width="3"/>
<path d="M1341.5 131.837C1341.5 130.421 1341.22 129.019 1340.66 127.71C1340.11 126.402 1339.3 125.214 1338.28 124.212C1337.26 123.211 1336.04 122.417 1334.71 121.875C1333.37 121.333 1331.94 121.054 1330.5 121.054" stroke="#2FE2EE" stroke-width="3"/>
<path d="M1292.5 139.678H1301.5V168.104H1309.5V139.678H1320.5V150.95H1329.5V132.817H1284.5V150.95H1292.5V139.678Z" fill="#2FE2EE"/>
<path d="M1243.5 132.817H1281.5V139.188H1251.5V148.99H1277.5V155.361H1251.5V168.104H1243.5V132.817Z" fill="#2FE2EE"/>
<ellipse cx="1332" cy="130.366" rx="1.5" ry="1.4703" fill="#2FE2EE"/>
<path d="M1091.16 143.109H1083.5V129.876H1106.16V136.738H1091.16V143.109Z" fill="#2FE2EE"/>
</svg>
