<svg width="1363" height="297" viewBox="0 0 1363 297" fill="none" xmlns="http://www.w3.org/2000/svg">
<path d="M0 15C0 6.71573 6.71573 0 15 0H37V297H15C6.71573 297 0 290.284 0 282V15Z" fill="#2FE2EE"/>
<path d="M37 0H1066V297H37V0Z" fill="#F0F0F0"/>
<path d="M98.8008 49.4062L104.145 61.0781L109.488 49.4062H115.236L106.816 65.6836V75H101.473V65.6836L93.0352 49.4062H98.8008ZM115.289 65.6836V65.3145C115.289 63.9199 115.488 62.6367 115.887 61.4648C116.285 60.2812 116.865 59.2559 117.627 58.3887C118.389 57.5215 119.326 56.8477 120.439 56.3672C121.553 55.875 122.83 55.6289 124.271 55.6289C125.713 55.6289 126.996 55.875 128.121 56.3672C129.246 56.8477 130.189 57.5215 130.951 58.3887C131.725 59.2559 132.311 60.2812 132.709 61.4648C133.107 62.6367 133.307 63.9199 133.307 65.3145V65.6836C133.307 67.0664 133.107 68.3496 132.709 69.5332C132.311 70.7051 131.725 71.7305 130.951 72.6094C130.189 73.4766 129.252 74.1504 128.139 74.6309C127.025 75.1113 125.748 75.3516 124.307 75.3516C122.865 75.3516 121.582 75.1113 120.457 74.6309C119.344 74.1504 118.4 73.4766 117.627 72.6094C116.865 71.7305 116.285 70.7051 115.887 69.5332C115.488 68.3496 115.289 67.0664 115.289 65.6836ZM120.352 65.3145V65.6836C120.352 66.4805 120.422 67.2246 120.562 67.916C120.703 68.6074 120.926 69.2168 121.23 69.7441C121.547 70.2598 121.957 70.6641 122.461 70.957C122.965 71.25 123.58 71.3965 124.307 71.3965C125.01 71.3965 125.613 71.25 126.117 70.957C126.621 70.6641 127.025 70.2598 127.33 69.7441C127.635 69.2168 127.857 68.6074 127.998 67.916C128.15 67.2246 128.227 66.4805 128.227 65.6836V65.3145C128.227 64.541 128.15 63.8145 127.998 63.1348C127.857 62.4434 127.629 61.834 127.312 61.3066C127.008 60.7676 126.604 60.3457 126.1 60.041C125.596 59.7363 124.986 59.584 124.271 59.584C123.557 59.584 122.947 59.7363 122.443 60.041C121.951 60.3457 121.547 60.7676 121.23 61.3066C120.926 61.834 120.703 62.4434 120.562 63.1348C120.422 63.8145 120.352 64.541 120.352 65.3145ZM147.668 70.4473V55.9805H152.73V75H147.967L147.668 70.4473ZM148.23 66.5449L149.725 66.5098C149.725 67.7754 149.578 68.9531 149.285 70.043C148.992 71.1211 148.553 72.0586 147.967 72.8555C147.381 73.6406 146.643 74.2559 145.752 74.7012C144.861 75.1348 143.812 75.3516 142.605 75.3516C141.68 75.3516 140.824 75.2227 140.039 74.9648C139.266 74.6953 138.598 74.2793 138.035 73.7168C137.484 73.1426 137.051 72.4102 136.734 71.5195C136.43 70.6172 136.277 69.5332 136.277 68.2676V55.9805H141.34V68.3027C141.34 68.8652 141.404 69.3398 141.533 69.7266C141.674 70.1133 141.867 70.4297 142.113 70.6758C142.359 70.9219 142.646 71.0977 142.975 71.2031C143.314 71.3086 143.689 71.3613 144.1 71.3613C145.143 71.3613 145.963 71.1504 146.561 70.7285C147.17 70.3066 147.598 69.7324 147.844 69.0059C148.102 68.2676 148.23 67.4473 148.23 66.5449ZM161.555 60.041V75H156.492V55.9805H161.238L161.555 60.041ZM160.816 64.8223H159.445C159.445 63.416 159.627 62.1504 159.99 61.0254C160.354 59.8887 160.863 58.9219 161.52 58.125C162.176 57.3164 162.955 56.7012 163.857 56.2793C164.771 55.8457 165.791 55.6289 166.916 55.6289C167.807 55.6289 168.621 55.7578 169.359 56.0156C170.098 56.2734 170.73 56.6836 171.258 57.2461C171.797 57.8086 172.207 58.5527 172.488 59.4785C172.781 60.4043 172.928 61.5352 172.928 62.8711V75H167.83V62.8535C167.83 62.0098 167.713 61.3535 167.479 60.8848C167.244 60.416 166.898 60.0879 166.441 59.9004C165.996 59.7012 165.445 59.6016 164.789 59.6016C164.109 59.6016 163.518 59.7363 163.014 60.0059C162.521 60.2754 162.111 60.6504 161.783 61.1309C161.467 61.5996 161.227 62.1504 161.062 62.7832C160.898 63.416 160.816 64.0957 160.816 64.8223ZM185.531 75.3516C184.055 75.3516 182.73 75.1172 181.559 74.6484C180.387 74.168 179.391 73.5059 178.57 72.6621C177.762 71.8184 177.141 70.8398 176.707 69.7266C176.273 68.6016 176.057 67.4062 176.057 66.1406V65.4375C176.057 63.9961 176.262 62.6777 176.672 61.4824C177.082 60.2871 177.668 59.25 178.43 58.3711C179.203 57.4922 180.141 56.8184 181.242 56.3496C182.344 55.8691 183.586 55.6289 184.969 55.6289C186.316 55.6289 187.512 55.8516 188.555 56.2969C189.598 56.7422 190.471 57.375 191.174 58.1953C191.889 59.0156 192.428 60 192.791 61.1484C193.154 62.2852 193.336 63.5508 193.336 64.9453V67.0547H178.219V63.6797H188.361V63.293C188.361 62.5898 188.232 61.9629 187.975 61.4121C187.729 60.8496 187.354 60.4043 186.85 60.0762C186.346 59.748 185.701 59.584 184.916 59.584C184.248 59.584 183.674 59.7305 183.193 60.0234C182.713 60.3164 182.32 60.7266 182.016 61.2539C181.723 61.7812 181.5 62.4023 181.348 63.1172C181.207 63.8203 181.137 64.5938 181.137 65.4375V66.1406C181.137 66.9023 181.242 67.6055 181.453 68.25C181.676 68.8945 181.986 69.4512 182.385 69.9199C182.795 70.3887 183.287 70.752 183.861 71.0098C184.447 71.2676 185.109 71.3965 185.848 71.3965C186.762 71.3965 187.611 71.2207 188.396 70.8691C189.193 70.5059 189.879 69.9609 190.453 69.2344L192.914 71.9062C192.516 72.4805 191.971 73.0312 191.279 73.5586C190.6 74.0859 189.779 74.5195 188.818 74.8594C187.857 75.1875 186.762 75.3516 185.531 75.3516ZM206.502 69.7441C206.502 69.3809 206.396 69.0527 206.186 68.7598C205.975 68.4668 205.582 68.1973 205.008 67.9512C204.445 67.6934 203.631 67.459 202.564 67.248C201.604 67.0371 200.707 66.7734 199.875 66.457C199.055 66.1289 198.34 65.7363 197.73 65.2793C197.133 64.8223 196.664 64.2832 196.324 63.6621C195.984 63.0293 195.814 62.3086 195.814 61.5C195.814 60.7031 195.984 59.9531 196.324 59.25C196.676 58.5469 197.174 57.9258 197.818 57.3867C198.475 56.8359 199.271 56.4082 200.209 56.1035C201.158 55.7871 202.225 55.6289 203.408 55.6289C205.061 55.6289 206.479 55.8926 207.662 56.4199C208.857 56.9473 209.771 57.6738 210.404 58.5996C211.049 59.5137 211.371 60.5566 211.371 61.7285H206.309C206.309 61.2363 206.203 60.7969 205.992 60.4102C205.793 60.0117 205.477 59.7012 205.043 59.4785C204.621 59.2441 204.07 59.127 203.391 59.127C202.828 59.127 202.342 59.2266 201.932 59.4258C201.521 59.6133 201.205 59.8711 200.982 60.1992C200.771 60.5156 200.666 60.8672 200.666 61.2539C200.666 61.5469 200.725 61.8105 200.842 62.0449C200.971 62.2676 201.176 62.4727 201.457 62.6602C201.738 62.8477 202.102 63.0234 202.547 63.1875C203.004 63.3398 203.566 63.4805 204.234 63.6094C205.605 63.8906 206.83 64.2598 207.908 64.7168C208.986 65.1621 209.842 65.7715 210.475 66.5449C211.107 67.3066 211.424 68.3086 211.424 69.5508C211.424 70.3945 211.236 71.168 210.861 71.8711C210.486 72.5742 209.947 73.1895 209.244 73.7168C208.541 74.2324 207.697 74.6367 206.713 74.9297C205.74 75.2109 204.645 75.3516 203.426 75.3516C201.656 75.3516 200.156 75.0352 198.926 74.4023C197.707 73.7695 196.781 72.9668 196.148 71.9941C195.527 71.0098 195.217 70.002 195.217 68.9707H200.016C200.039 69.6621 200.215 70.2188 200.543 70.6406C200.883 71.0625 201.311 71.3672 201.826 71.5547C202.354 71.7422 202.922 71.8359 203.531 71.8359C204.188 71.8359 204.732 71.748 205.166 71.5723C205.6 71.3848 205.928 71.1387 206.15 70.834C206.385 70.5176 206.502 70.1543 206.502 69.7441ZM231.85 75H226.277L226.312 70.8867H231.85C233.232 70.8867 234.398 70.5762 235.348 69.9551C236.297 69.3223 237.012 68.4023 237.492 67.1953C237.984 65.9883 238.23 64.5293 238.23 62.8184V61.5703C238.23 60.2578 238.09 59.1035 237.809 58.1074C237.539 57.1113 237.135 56.2734 236.596 55.5938C236.057 54.9141 235.395 54.4043 234.609 54.0645C233.824 53.7129 232.922 53.5371 231.902 53.5371H226.172V49.4062H231.902C233.613 49.4062 235.178 49.6992 236.596 50.2852C238.025 50.8594 239.262 51.6855 240.305 52.7637C241.348 53.8418 242.15 55.1309 242.713 56.6309C243.287 58.1191 243.574 59.7773 243.574 61.6055V62.8184C243.574 64.6348 243.287 66.293 242.713 67.793C242.15 69.293 241.348 70.582 240.305 71.6602C239.273 72.7266 238.037 73.5527 236.596 74.1387C235.166 74.7129 233.584 75 231.85 75ZM229.266 49.4062V75H223.992V49.4062H229.266ZM257.355 70.7109V62.2383C257.355 61.6289 257.256 61.1074 257.057 60.6738C256.857 60.2285 256.547 59.8828 256.125 59.6367C255.715 59.3906 255.182 59.2676 254.525 59.2676C253.963 59.2676 253.477 59.3672 253.066 59.5664C252.656 59.7539 252.34 60.0293 252.117 60.3926C251.895 60.7441 251.783 61.1602 251.783 61.6406H246.721C246.721 60.832 246.908 60.0645 247.283 59.3379C247.658 58.6113 248.203 57.9727 248.918 57.4219C249.633 56.8594 250.482 56.4199 251.467 56.1035C252.463 55.7871 253.576 55.6289 254.807 55.6289C256.283 55.6289 257.596 55.875 258.744 56.3672C259.893 56.8594 260.795 57.5977 261.451 58.582C262.119 59.5664 262.453 60.7969 262.453 62.2734V70.4121C262.453 71.4551 262.518 72.3105 262.646 72.9785C262.775 73.6348 262.963 74.209 263.209 74.7012V75H258.094C257.848 74.4844 257.66 73.8398 257.531 73.0664C257.414 72.2812 257.355 71.4961 257.355 70.7109ZM258.023 63.416L258.059 66.2812H255.229C254.561 66.2812 253.98 66.3574 253.488 66.5098C252.996 66.6621 252.592 66.8789 252.275 67.1602C251.959 67.4297 251.725 67.7461 251.572 68.1094C251.432 68.4727 251.361 68.8711 251.361 69.3047C251.361 69.7383 251.461 70.1309 251.66 70.4824C251.859 70.8223 252.146 71.0918 252.521 71.291C252.896 71.4785 253.336 71.5723 253.84 71.5723C254.602 71.5723 255.264 71.4199 255.826 71.1152C256.389 70.8105 256.822 70.4355 257.127 69.9902C257.443 69.5449 257.607 69.123 257.619 68.7246L258.955 70.8691C258.768 71.3496 258.51 71.8477 258.182 72.3633C257.865 72.8789 257.461 73.3652 256.969 73.8223C256.477 74.2676 255.885 74.6367 255.193 74.9297C254.502 75.2109 253.682 75.3516 252.732 75.3516C251.525 75.3516 250.43 75.1113 249.445 74.6309C248.473 74.1387 247.699 73.4648 247.125 72.6094C246.562 71.7422 246.281 70.7578 246.281 69.6562C246.281 68.6602 246.469 67.7754 246.844 67.002C247.219 66.2285 247.77 65.5781 248.496 65.0508C249.234 64.5117 250.154 64.1074 251.256 63.8379C252.357 63.5566 253.635 63.416 255.088 63.416H258.023ZM271.418 59.918V75H266.338V55.9805H271.102L271.418 59.918ZM270.715 64.8223H269.309C269.309 63.498 269.467 62.2793 269.783 61.166C270.111 60.041 270.586 59.0684 271.207 58.248C271.84 57.416 272.619 56.7715 273.545 56.3145C274.471 55.8574 275.543 55.6289 276.762 55.6289C277.605 55.6289 278.379 55.7578 279.082 56.0156C279.785 56.2617 280.389 56.6543 280.893 57.1934C281.408 57.7207 281.807 58.4121 282.088 59.2676C282.369 60.1113 282.51 61.125 282.51 62.3086V75H277.447V62.8711C277.447 62.0039 277.33 61.3359 277.096 60.8672C276.861 60.3984 276.527 60.0703 276.094 59.8828C275.672 59.6953 275.162 59.6016 274.564 59.6016C273.908 59.6016 273.334 59.7363 272.842 60.0059C272.361 60.2754 271.963 60.6504 271.646 61.1309C271.33 61.5996 271.096 62.1504 270.943 62.7832C270.791 63.416 270.715 64.0957 270.715 64.8223ZM282.035 64.2422L280.225 64.4707C280.225 63.2285 280.377 62.0742 280.682 61.0078C280.998 59.9414 281.461 59.0039 282.07 58.1953C282.691 57.3867 283.459 56.7598 284.373 56.3145C285.287 55.8574 286.342 55.6289 287.537 55.6289C288.451 55.6289 289.283 55.7637 290.033 56.0332C290.783 56.291 291.422 56.707 291.949 57.2812C292.488 57.8438 292.898 58.582 293.18 59.4961C293.473 60.4102 293.619 61.5293 293.619 62.8535V75H288.539V62.8535C288.539 61.9746 288.422 61.3066 288.188 60.8496C287.965 60.3809 287.637 60.0586 287.203 59.8828C286.781 59.6953 286.277 59.6016 285.691 59.6016C285.082 59.6016 284.549 59.7246 284.092 59.9707C283.635 60.2051 283.254 60.5332 282.949 60.9551C282.645 61.377 282.416 61.8691 282.264 62.4316C282.111 62.9824 282.035 63.5859 282.035 64.2422ZM296.73 65.6836V65.3145C296.73 63.9199 296.93 62.6367 297.328 61.4648C297.727 60.2812 298.307 59.2559 299.068 58.3887C299.83 57.5215 300.768 56.8477 301.881 56.3672C302.994 55.875 304.271 55.6289 305.713 55.6289C307.154 55.6289 308.438 55.875 309.562 56.3672C310.688 56.8477 311.631 57.5215 312.393 58.3887C313.166 59.2559 313.752 60.2812 314.15 61.4648C314.549 62.6367 314.748 63.9199 314.748 65.3145V65.6836C314.748 67.0664 314.549 68.3496 314.15 69.5332C313.752 70.7051 313.166 71.7305 312.393 72.6094C311.631 73.4766 310.693 74.1504 309.58 74.6309C308.467 75.1113 307.189 75.3516 305.748 75.3516C304.307 75.3516 303.023 75.1113 301.898 74.6309C300.785 74.1504 299.842 73.4766 299.068 72.6094C298.307 71.7305 297.727 70.7051 297.328 69.5332C296.93 68.3496 296.73 67.0664 296.73 65.6836ZM301.793 65.3145V65.6836C301.793 66.4805 301.863 67.2246 302.004 67.916C302.145 68.6074 302.367 69.2168 302.672 69.7441C302.988 70.2598 303.398 70.6641 303.902 70.957C304.406 71.25 305.021 71.3965 305.748 71.3965C306.451 71.3965 307.055 71.25 307.559 70.957C308.062 70.6641 308.467 70.2598 308.771 69.7441C309.076 69.2168 309.299 68.6074 309.439 67.916C309.592 67.2246 309.668 66.4805 309.668 65.6836V65.3145C309.668 64.541 309.592 63.8145 309.439 63.1348C309.299 62.4434 309.07 61.834 308.754 61.3066C308.449 60.7676 308.045 60.3457 307.541 60.041C307.037 59.7363 306.428 59.584 305.713 59.584C304.998 59.584 304.389 59.7363 303.885 60.041C303.393 60.3457 302.988 60.7676 302.672 61.3066C302.367 61.834 302.145 62.4434 302.004 63.1348C301.863 63.8145 301.793 64.541 301.793 65.3145ZM329.109 70.4473V55.9805H334.172V75H329.408L329.109 70.4473ZM329.672 66.5449L331.166 66.5098C331.166 67.7754 331.02 68.9531 330.727 70.043C330.434 71.1211 329.994 72.0586 329.408 72.8555C328.822 73.6406 328.084 74.2559 327.193 74.7012C326.303 75.1348 325.254 75.3516 324.047 75.3516C323.121 75.3516 322.266 75.2227 321.48 74.9648C320.707 74.6953 320.039 74.2793 319.477 73.7168C318.926 73.1426 318.492 72.4102 318.176 71.5195C317.871 70.6172 317.719 69.5332 317.719 68.2676V55.9805H322.781V68.3027C322.781 68.8652 322.846 69.3398 322.975 69.7266C323.115 70.1133 323.309 70.4297 323.555 70.6758C323.801 70.9219 324.088 71.0977 324.416 71.2031C324.756 71.3086 325.131 71.3613 325.541 71.3613C326.584 71.3613 327.404 71.1504 328.002 70.7285C328.611 70.3066 329.039 69.7324 329.285 69.0059C329.543 68.2676 329.672 67.4473 329.672 66.5449ZM342.996 60.041V75H337.934V55.9805H342.68L342.996 60.041ZM342.258 64.8223H340.887C340.887 63.416 341.068 62.1504 341.432 61.0254C341.795 59.8887 342.305 58.9219 342.961 58.125C343.617 57.3164 344.396 56.7012 345.299 56.2793C346.213 55.8457 347.232 55.6289 348.357 55.6289C349.248 55.6289 350.062 55.7578 350.801 56.0156C351.539 56.2734 352.172 56.6836 352.699 57.2461C353.238 57.8086 353.648 58.5527 353.93 59.4785C354.223 60.4043 354.369 61.5352 354.369 62.8711V75H349.271V62.8535C349.271 62.0098 349.154 61.3535 348.92 60.8848C348.686 60.416 348.34 60.0879 347.883 59.9004C347.438 59.7012 346.887 59.6016 346.23 59.6016C345.551 59.6016 344.959 59.7363 344.455 60.0059C343.963 60.2754 343.553 60.6504 343.225 61.1309C342.908 61.5996 342.668 62.1504 342.504 62.7832C342.34 63.416 342.258 64.0957 342.258 64.8223ZM368.484 70.7109V62.2383C368.484 61.6289 368.385 61.1074 368.186 60.6738C367.986 60.2285 367.676 59.8828 367.254 59.6367C366.844 59.3906 366.311 59.2676 365.654 59.2676C365.092 59.2676 364.605 59.3672 364.195 59.5664C363.785 59.7539 363.469 60.0293 363.246 60.3926C363.023 60.7441 362.912 61.1602 362.912 61.6406H357.85C357.85 60.832 358.037 60.0645 358.412 59.3379C358.787 58.6113 359.332 57.9727 360.047 57.4219C360.762 56.8594 361.611 56.4199 362.596 56.1035C363.592 55.7871 364.705 55.6289 365.936 55.6289C367.412 55.6289 368.725 55.875 369.873 56.3672C371.021 56.8594 371.924 57.5977 372.58 58.582C373.248 59.5664 373.582 60.7969 373.582 62.2734V70.4121C373.582 71.4551 373.646 72.3105 373.775 72.9785C373.904 73.6348 374.092 74.209 374.338 74.7012V75H369.223C368.977 74.4844 368.789 73.8398 368.66 73.0664C368.543 72.2812 368.484 71.4961 368.484 70.7109ZM369.152 63.416L369.188 66.2812H366.357C365.689 66.2812 365.109 66.3574 364.617 66.5098C364.125 66.6621 363.721 66.8789 363.404 67.1602C363.088 67.4297 362.854 67.7461 362.701 68.1094C362.561 68.4727 362.49 68.8711 362.49 69.3047C362.49 69.7383 362.59 70.1309 362.789 70.4824C362.988 70.8223 363.275 71.0918 363.65 71.291C364.025 71.4785 364.465 71.5723 364.969 71.5723C365.73 71.5723 366.393 71.4199 366.955 71.1152C367.518 70.8105 367.951 70.4355 368.256 69.9902C368.572 69.5449 368.736 69.123 368.748 68.7246L370.084 70.8691C369.896 71.3496 369.639 71.8477 369.311 72.3633C368.994 72.8789 368.59 73.3652 368.098 73.8223C367.605 74.2676 367.014 74.6367 366.322 74.9297C365.631 75.2109 364.811 75.3516 363.861 75.3516C362.654 75.3516 361.559 75.1113 360.574 74.6309C359.602 74.1387 358.828 73.4648 358.254 72.6094C357.691 71.7422 357.41 70.7578 357.41 69.6562C357.41 68.6602 357.598 67.7754 357.973 67.002C358.348 66.2285 358.898 65.5781 359.625 65.0508C360.363 64.5117 361.283 64.1074 362.385 63.8379C363.486 63.5566 364.764 63.416 366.217 63.416H369.152Z" fill="#888888"/>
<path d="M128.602 118.727V135.078C127.927 135.826 126.888 136.628 125.484 137.484C124.099 138.323 122.349 139.043 120.234 139.645C118.12 140.246 115.632 140.547 112.77 140.547C110.126 140.547 107.729 140.128 105.578 139.289C103.427 138.432 101.577 137.184 100.027 135.543C98.4961 133.884 97.3112 131.861 96.4727 129.473C95.6523 127.066 95.2422 124.314 95.2422 121.215V119C95.2422 115.901 95.6615 113.148 96.5 110.742C97.3385 108.336 98.5143 106.312 100.027 104.672C101.559 103.013 103.354 101.755 105.414 100.898C107.492 100.042 109.771 99.6133 112.25 99.6133C115.914 99.6133 118.895 100.197 121.191 101.363C123.488 102.512 125.229 104.107 126.414 106.148C127.599 108.172 128.319 110.514 128.574 113.176H119.359C119.177 111.863 118.831 110.751 118.32 109.84C117.828 108.91 117.117 108.208 116.188 107.734C115.258 107.242 114.055 106.996 112.578 106.996C111.43 106.996 110.382 107.242 109.434 107.734C108.504 108.227 107.711 108.974 107.055 109.977C106.398 110.961 105.888 112.201 105.523 113.695C105.177 115.19 105.004 116.94 105.004 118.945V121.215C105.004 123.202 105.168 124.943 105.496 126.438C105.842 127.932 106.353 129.181 107.027 130.184C107.72 131.168 108.595 131.915 109.652 132.426C110.728 132.918 111.995 133.164 113.453 133.164C114.474 133.164 115.349 133.082 116.078 132.918C116.807 132.736 117.409 132.517 117.883 132.262C118.375 131.988 118.749 131.733 119.004 131.496V125.316H112.332V118.727H128.602ZM149.137 132.562V120.367C149.137 119.529 149.018 118.809 148.781 118.207C148.544 117.605 148.171 117.141 147.66 116.812C147.15 116.466 146.466 116.293 145.609 116.293C144.917 116.293 144.324 116.411 143.832 116.648C143.34 116.885 142.966 117.241 142.711 117.715C142.456 118.189 142.328 118.79 142.328 119.52H133.113C133.113 118.152 133.414 116.885 134.016 115.719C134.635 114.534 135.51 113.504 136.641 112.629C137.789 111.754 139.156 111.079 140.742 110.605C142.346 110.113 144.133 109.867 146.102 109.867C148.453 109.867 150.549 110.259 152.391 111.043C154.25 111.827 155.717 113.003 156.793 114.57C157.868 116.12 158.406 118.07 158.406 120.422V132.535C158.406 134.467 158.516 135.935 158.734 136.938C158.953 137.922 159.263 138.788 159.664 139.535V140H150.422C149.984 139.089 149.656 137.977 149.438 136.664C149.237 135.333 149.137 133.966 149.137 132.562ZM150.258 121.926L150.312 126.848H146.238C145.382 126.848 144.652 126.966 144.051 127.203C143.467 127.44 142.993 127.768 142.629 128.188C142.283 128.589 142.027 129.044 141.863 129.555C141.717 130.065 141.645 130.603 141.645 131.168C141.645 131.715 141.772 132.207 142.027 132.645C142.301 133.064 142.665 133.392 143.121 133.629C143.577 133.866 144.087 133.984 144.652 133.984C145.673 133.984 146.539 133.793 147.25 133.41C147.979 133.009 148.535 132.526 148.918 131.961C149.301 131.396 149.492 130.867 149.492 130.375L151.516 134.148C151.151 134.878 150.732 135.616 150.258 136.363C149.802 137.111 149.228 137.803 148.535 138.441C147.861 139.061 147.031 139.572 146.047 139.973C145.062 140.355 143.868 140.547 142.465 140.547C140.642 140.547 138.965 140.173 137.434 139.426C135.921 138.678 134.708 137.639 133.797 136.309C132.885 134.96 132.43 133.41 132.43 131.66C132.43 130.129 132.703 128.762 133.25 127.559C133.815 126.355 134.663 125.335 135.793 124.496C136.923 123.658 138.363 123.02 140.113 122.582C141.863 122.145 143.923 121.926 146.293 121.926H150.258ZM180.527 133.219V98H189.797V140H181.484L180.527 133.219ZM162.371 125.562V124.988C162.371 122.746 162.617 120.704 163.109 118.863C163.602 117.004 164.331 115.409 165.297 114.078C166.263 112.729 167.466 111.69 168.906 110.961C170.346 110.232 172.005 109.867 173.883 109.867C175.56 109.867 177.027 110.259 178.285 111.043C179.543 111.809 180.618 112.884 181.512 114.27C182.405 115.655 183.134 117.277 183.699 119.137C184.264 120.978 184.693 122.965 184.984 125.098V125.781C184.693 127.786 184.264 129.682 183.699 131.469C183.134 133.237 182.405 134.805 181.512 136.172C180.618 137.539 179.534 138.615 178.258 139.398C177 140.164 175.523 140.547 173.828 140.547C171.951 140.547 170.292 140.173 168.852 139.426C167.43 138.678 166.236 137.63 165.27 136.281C164.322 134.932 163.602 133.346 163.109 131.523C162.617 129.701 162.371 127.714 162.371 125.562ZM171.586 124.988V125.562C171.586 126.674 171.659 127.704 171.805 128.652C171.951 129.6 172.197 130.439 172.543 131.168C172.908 131.879 173.382 132.435 173.965 132.836C174.566 133.237 175.305 133.438 176.18 133.438C177.365 133.438 178.34 133.155 179.105 132.59C179.889 132.025 180.464 131.223 180.828 130.184C181.211 129.145 181.375 127.923 181.32 126.52V124.359C181.357 123.156 181.275 122.099 181.074 121.188C180.874 120.258 180.555 119.483 180.117 118.863C179.698 118.243 179.16 117.779 178.504 117.469C177.866 117.141 177.109 116.977 176.234 116.977C175.378 116.977 174.648 117.177 174.047 117.578C173.464 117.979 172.99 118.544 172.625 119.273C172.26 119.984 171.996 120.832 171.832 121.816C171.668 122.783 171.586 123.84 171.586 124.988ZM221.762 132.617V140H201.637V132.617H221.762ZM205.055 100.188V140H195.457V100.188H205.055ZM235.105 110.414V140H225.863V110.414H235.105ZM225.316 102.785C225.316 101.473 225.79 100.397 226.738 99.5586C227.686 98.7201 228.917 98.3008 230.43 98.3008C231.943 98.3008 233.173 98.7201 234.121 99.5586C235.069 100.397 235.543 101.473 235.543 102.785C235.543 104.098 235.069 105.173 234.121 106.012C233.173 106.85 231.943 107.27 230.43 107.27C228.917 107.27 227.686 106.85 226.738 106.012C225.79 105.173 225.316 104.098 225.316 102.785ZM252.086 140H242.816V108.008C242.816 105.711 243.281 103.779 244.211 102.211C245.141 100.643 246.453 99.4583 248.148 98.6562C249.844 97.8359 251.849 97.4258 254.164 97.4258C254.966 97.4258 255.723 97.4805 256.434 97.5898C257.145 97.6992 257.837 97.8359 258.512 98L258.539 104.781C258.211 104.69 257.874 104.626 257.527 104.59C257.181 104.553 256.753 104.535 256.242 104.535C255.349 104.535 254.592 104.672 253.973 104.945C253.353 105.201 252.879 105.592 252.551 106.121C252.241 106.632 252.086 107.26 252.086 108.008V140ZM257.828 110.414V116.812H238.551V110.414H257.828ZM276.723 110.414V116.812H258.895V110.414H276.723ZM262.641 103.059H271.855V130.348C271.855 131.132 271.947 131.742 272.129 132.18C272.311 132.599 272.621 132.9 273.059 133.082C273.514 133.246 274.116 133.328 274.863 133.328C275.392 133.328 275.829 133.319 276.176 133.301C276.522 133.264 276.85 133.219 277.16 133.164V139.754C276.376 140.009 275.556 140.201 274.699 140.328C273.842 140.474 272.931 140.547 271.965 140.547C269.996 140.547 268.31 140.237 266.906 139.617C265.521 138.997 264.464 138.022 263.734 136.691C263.005 135.361 262.641 133.629 262.641 131.496V103.059Z" fill="black"/>
<rect x="93" y="178" width="917" height="77" rx="10" fill="#D3D3D3"/>
<rect x="111" y="196" width="98" height="41" rx="3" fill="#424242"/>
<rect x="111" y="196" width="98" height="41" rx="3" stroke="#424242" stroke-width="4"/>
<path d="M137.078 210.203V223H133.993V210.203H137.078ZM142.053 215.529V217.902H136.199V215.529H142.053ZM142.554 210.203V212.585H136.199V210.203H142.554ZM146.825 209.5V223H143.854V209.5H146.825ZM154.208 220.688V213.49H157.179V223H154.401L154.208 220.688ZM154.489 218.755L155.263 218.737C155.263 219.376 155.187 219.968 155.034 220.513C154.882 221.052 154.656 221.521 154.357 221.919C154.064 222.317 153.701 222.628 153.268 222.851C152.84 223.067 152.345 223.176 151.782 223.176C151.313 223.176 150.883 223.111 150.49 222.982C150.104 222.848 149.77 222.64 149.488 222.358C149.207 222.071 148.987 221.705 148.829 221.26C148.677 220.809 148.601 220.27 148.601 219.643V213.49H151.562V219.66C151.562 219.871 151.589 220.053 151.642 220.205C151.694 220.357 151.771 220.486 151.87 220.592C151.97 220.691 152.093 220.768 152.239 220.82C152.392 220.867 152.564 220.891 152.758 220.891C153.203 220.891 153.552 220.797 153.804 220.609C154.056 220.422 154.231 220.167 154.331 219.845C154.437 219.522 154.489 219.159 154.489 218.755ZM163.823 213.49V215.547H158.093V213.49H163.823ZM159.297 211.126H162.259V219.897C162.259 220.149 162.288 220.346 162.347 220.486C162.405 220.621 162.505 220.718 162.646 220.776C162.792 220.829 162.985 220.855 163.226 220.855C163.396 220.855 163.536 220.853 163.647 220.847C163.759 220.835 163.864 220.82 163.964 220.803V222.921C163.712 223.003 163.448 223.064 163.173 223.105C162.897 223.152 162.604 223.176 162.294 223.176C161.661 223.176 161.119 223.076 160.668 222.877C160.223 222.678 159.883 222.364 159.648 221.937C159.414 221.509 159.297 220.952 159.297 220.267V211.126ZM170.011 213.49V215.547H164.28V213.49H170.011ZM165.484 211.126H168.446V219.897C168.446 220.149 168.476 220.346 168.534 220.486C168.593 220.621 168.692 220.718 168.833 220.776C168.979 220.829 169.173 220.855 169.413 220.855C169.583 220.855 169.724 220.853 169.835 220.847C169.946 220.835 170.052 220.82 170.151 220.803V222.921C169.899 223.003 169.636 223.064 169.36 223.105C169.085 223.152 168.792 223.176 168.481 223.176C167.849 223.176 167.307 223.076 166.855 222.877C166.41 222.678 166.07 222.364 165.836 221.937C165.602 221.509 165.484 220.952 165.484 220.267V211.126ZM175.794 223.176C175.021 223.176 174.329 223.056 173.72 222.815C173.11 222.569 172.595 222.232 172.173 221.805C171.757 221.377 171.438 220.885 171.215 220.328C170.998 219.771 170.89 219.183 170.89 218.562V218.228C170.89 217.53 170.986 216.886 171.18 216.294C171.373 215.696 171.66 215.175 172.041 214.729C172.422 214.284 172.899 213.938 173.474 213.692C174.048 213.44 174.716 213.314 175.478 213.314C176.151 213.314 176.755 213.423 177.288 213.64C177.821 213.856 178.272 214.167 178.642 214.571C179.017 214.976 179.301 215.465 179.494 216.039C179.693 216.613 179.793 217.258 179.793 217.973V219.177H172.023V217.322H176.901V217.094C176.907 216.777 176.852 216.508 176.734 216.285C176.623 216.062 176.459 215.893 176.242 215.775C176.025 215.658 175.762 215.6 175.451 215.6C175.129 215.6 174.862 215.67 174.651 215.811C174.446 215.951 174.285 216.145 174.168 216.391C174.057 216.631 173.978 216.909 173.931 217.226C173.884 217.542 173.86 217.876 173.86 218.228V218.562C173.86 218.913 173.907 219.232 174.001 219.52C174.101 219.807 174.241 220.053 174.423 220.258C174.61 220.457 174.833 220.612 175.091 220.724C175.354 220.835 175.653 220.891 175.987 220.891C176.392 220.891 176.79 220.814 177.183 220.662C177.575 220.51 177.912 220.258 178.193 219.906L179.538 221.506C179.345 221.781 179.069 222.048 178.712 222.306C178.36 222.563 177.938 222.774 177.446 222.938C176.954 223.097 176.403 223.176 175.794 223.176ZM183.985 215.846V223H181.023V213.49H183.792L183.985 215.846ZM186.798 213.42L186.745 216.171C186.628 216.159 186.47 216.145 186.271 216.127C186.071 216.109 185.904 216.101 185.77 216.101C185.424 216.101 185.125 216.142 184.873 216.224C184.627 216.3 184.422 216.417 184.258 216.575C184.1 216.728 183.982 216.921 183.906 217.155C183.836 217.39 183.804 217.662 183.81 217.973L183.273 217.621C183.273 216.982 183.335 216.402 183.458 215.881C183.587 215.354 183.769 214.899 184.003 214.519C184.237 214.132 184.521 213.836 184.855 213.631C185.189 213.42 185.564 213.314 185.98 213.314C186.127 213.314 186.271 213.323 186.411 213.341C186.558 213.358 186.687 213.385 186.798 213.42Z" fill="white"/>
<rect x="229" y="196" width="102" height="41" rx="3" fill="#424242"/>
<rect x="229" y="196" width="102" height="41" rx="3" stroke="#424242" stroke-width="4"/>
<path d="M263.055 210.203V223H259.979L255.452 215.037V223H252.367V210.203H255.452L259.979 218.166V210.203H263.055ZM269.471 223.176C268.697 223.176 268.006 223.056 267.396 222.815C266.787 222.569 266.271 222.232 265.85 221.805C265.434 221.377 265.114 220.885 264.892 220.328C264.675 219.771 264.566 219.183 264.566 218.562V218.228C264.566 217.53 264.663 216.886 264.856 216.294C265.05 215.696 265.337 215.175 265.718 214.729C266.099 214.284 266.576 213.938 267.15 213.692C267.725 213.44 268.393 213.314 269.154 213.314C269.828 213.314 270.432 213.423 270.965 213.64C271.498 213.856 271.949 214.167 272.318 214.571C272.693 214.976 272.978 215.465 273.171 216.039C273.37 216.613 273.47 217.258 273.47 217.973V219.177H265.7V217.322H270.578V217.094C270.584 216.777 270.528 216.508 270.411 216.285C270.3 216.062 270.136 215.893 269.919 215.775C269.702 215.658 269.438 215.6 269.128 215.6C268.806 215.6 268.539 215.67 268.328 215.811C268.123 215.951 267.962 216.145 267.845 216.391C267.733 216.631 267.654 216.909 267.607 217.226C267.561 217.542 267.537 217.876 267.537 218.228V218.562C267.537 218.913 267.584 219.232 267.678 219.52C267.777 219.807 267.918 220.053 268.1 220.258C268.287 220.457 268.51 220.612 268.768 220.724C269.031 220.835 269.33 220.891 269.664 220.891C270.068 220.891 270.467 220.814 270.859 220.662C271.252 220.51 271.589 220.258 271.87 219.906L273.215 221.506C273.021 221.781 272.746 222.048 272.389 222.306C272.037 222.563 271.615 222.774 271.123 222.938C270.631 223.097 270.08 223.176 269.471 223.176ZM279.657 220.328C279.657 220.164 279.602 220.023 279.49 219.906C279.385 219.783 279.197 219.672 278.928 219.572C278.658 219.467 278.28 219.361 277.794 219.256C277.331 219.156 276.895 219.024 276.484 218.86C276.08 218.696 275.726 218.497 275.421 218.263C275.116 218.028 274.876 217.75 274.7 217.428C274.53 217.105 274.445 216.736 274.445 216.32C274.445 215.916 274.53 215.535 274.7 215.178C274.876 214.814 275.131 214.495 275.465 214.22C275.805 213.938 276.218 213.719 276.704 213.561C277.19 213.396 277.744 213.314 278.365 213.314C279.221 213.314 279.959 213.446 280.58 213.71C281.201 213.968 281.679 214.331 282.013 214.8C282.353 215.263 282.522 215.799 282.522 216.408H279.561C279.561 216.168 279.52 215.963 279.438 215.793C279.361 215.623 279.235 215.494 279.06 215.406C278.884 215.312 278.649 215.266 278.356 215.266C278.151 215.266 277.964 215.304 277.794 215.38C277.63 215.456 277.498 215.562 277.398 215.696C277.299 215.831 277.249 215.989 277.249 216.171C277.249 216.3 277.278 216.417 277.337 216.522C277.401 216.622 277.498 216.716 277.627 216.804C277.756 216.886 277.92 216.962 278.119 217.032C278.318 217.097 278.559 217.155 278.84 217.208C279.479 217.325 280.076 217.492 280.633 217.709C281.189 217.926 281.641 218.233 281.986 218.632C282.338 219.03 282.514 219.566 282.514 220.24C282.514 220.662 282.417 221.052 282.224 221.409C282.03 221.761 281.752 222.071 281.389 222.341C281.025 222.604 280.589 222.81 280.079 222.956C279.569 223.103 278.995 223.176 278.356 223.176C277.448 223.176 276.681 223.015 276.054 222.692C275.427 222.364 274.952 221.954 274.63 221.462C274.313 220.964 274.155 220.46 274.155 219.95H276.915C276.927 220.243 276.997 220.483 277.126 220.671C277.261 220.858 277.439 220.996 277.662 221.084C277.885 221.172 278.143 221.216 278.436 221.216C278.705 221.216 278.928 221.178 279.104 221.102C279.285 221.025 279.423 220.923 279.517 220.794C279.61 220.659 279.657 220.504 279.657 220.328ZM288.912 213.49V215.547H283.182V213.49H288.912ZM284.386 211.126H287.348V219.897C287.348 220.149 287.377 220.346 287.436 220.486C287.494 220.621 287.594 220.718 287.734 220.776C287.881 220.829 288.074 220.855 288.314 220.855C288.484 220.855 288.625 220.853 288.736 220.847C288.848 220.835 288.953 220.82 289.053 220.803V222.921C288.801 223.003 288.537 223.064 288.262 223.105C287.986 223.152 287.693 223.176 287.383 223.176C286.75 223.176 286.208 223.076 285.757 222.877C285.312 222.678 284.972 222.364 284.737 221.937C284.503 221.509 284.386 220.952 284.386 220.267V211.126ZM295.319 218.983V210.203H298.396V218.983C298.396 219.839 298.199 220.58 297.807 221.207C297.42 221.834 296.893 222.32 296.225 222.666C295.562 223.006 294.818 223.176 293.992 223.176C293.137 223.176 292.375 223.032 291.707 222.745C291.045 222.458 290.523 222.016 290.143 221.418C289.768 220.82 289.58 220.059 289.58 219.133H292.674C292.674 219.566 292.724 219.906 292.823 220.152C292.923 220.393 293.069 220.562 293.263 220.662C293.462 220.756 293.705 220.803 293.992 220.803C294.273 220.803 294.511 220.732 294.704 220.592C294.903 220.445 295.056 220.237 295.161 219.968C295.267 219.692 295.319 219.364 295.319 218.983ZM305.198 220.328C305.198 220.164 305.143 220.023 305.031 219.906C304.926 219.783 304.738 219.672 304.469 219.572C304.199 219.467 303.821 219.361 303.335 219.256C302.872 219.156 302.436 219.024 302.025 218.86C301.621 218.696 301.267 218.497 300.962 218.263C300.657 218.028 300.417 217.75 300.241 217.428C300.071 217.105 299.986 216.736 299.986 216.32C299.986 215.916 300.071 215.535 300.241 215.178C300.417 214.814 300.672 214.495 301.006 214.22C301.346 213.938 301.759 213.719 302.245 213.561C302.731 213.396 303.285 213.314 303.906 213.314C304.762 213.314 305.5 213.446 306.121 213.71C306.742 213.968 307.22 214.331 307.554 214.8C307.894 215.263 308.063 215.799 308.063 216.408H305.102C305.102 216.168 305.061 215.963 304.979 215.793C304.902 215.623 304.776 215.494 304.601 215.406C304.425 215.312 304.19 215.266 303.897 215.266C303.692 215.266 303.505 215.304 303.335 215.38C303.171 215.456 303.039 215.562 302.939 215.696C302.84 215.831 302.79 215.989 302.79 216.171C302.79 216.3 302.819 216.417 302.878 216.522C302.942 216.622 303.039 216.716 303.168 216.804C303.297 216.886 303.461 216.962 303.66 217.032C303.859 217.097 304.1 217.155 304.381 217.208C305.02 217.325 305.617 217.492 306.174 217.709C306.73 217.926 307.182 218.233 307.527 218.632C307.879 219.03 308.055 219.566 308.055 220.24C308.055 220.662 307.958 221.052 307.765 221.409C307.571 221.761 307.293 222.071 306.93 222.341C306.566 222.604 306.13 222.81 305.62 222.956C305.11 223.103 304.536 223.176 303.897 223.176C302.989 223.176 302.222 223.015 301.595 222.692C300.968 222.364 300.493 221.954 300.171 221.462C299.854 220.964 299.696 220.46 299.696 219.95H302.456C302.468 220.243 302.538 220.483 302.667 220.671C302.802 220.858 302.98 220.996 303.203 221.084C303.426 221.172 303.684 221.216 303.977 221.216C304.246 221.216 304.469 221.178 304.645 221.102C304.826 221.025 304.964 220.923 305.058 220.794C305.151 220.659 305.198 220.504 305.198 220.328Z" fill="white"/>
<rect x="351" y="196" width="111" height="41" rx="3" fill="#424242"/>
<rect x="351" y="196" width="111" height="41" rx="3" stroke="#424242" stroke-width="4"/>
<path d="M374.367 210.203H379.403C380.388 210.203 381.243 210.35 381.97 210.643C382.696 210.936 383.256 211.369 383.648 211.943C384.047 212.518 384.246 213.227 384.246 214.07C384.246 214.803 384.132 215.415 383.903 215.907C383.675 216.399 383.355 216.807 382.945 217.129C382.541 217.445 382.069 217.706 381.53 217.911L380.52 218.482H376.292L376.274 216.101H379.403C379.796 216.101 380.121 216.03 380.379 215.89C380.637 215.749 380.83 215.55 380.959 215.292C381.094 215.028 381.161 214.715 381.161 214.352C381.161 213.982 381.094 213.666 380.959 213.402C380.824 213.139 380.625 212.937 380.361 212.796C380.104 212.655 379.784 212.585 379.403 212.585H377.452V223H374.367V210.203ZM381.372 223L378.542 217.34L381.812 217.322L384.677 222.868V223H381.372ZM390.574 223.176C389.801 223.176 389.109 223.056 388.5 222.815C387.891 222.569 387.375 222.232 386.953 221.805C386.537 221.377 386.218 220.885 385.995 220.328C385.778 219.771 385.67 219.183 385.67 218.562V218.228C385.67 217.53 385.767 216.886 385.96 216.294C386.153 215.696 386.44 215.175 386.821 214.729C387.202 214.284 387.68 213.938 388.254 213.692C388.828 213.44 389.496 213.314 390.258 213.314C390.932 213.314 391.535 213.423 392.068 213.64C392.602 213.856 393.053 214.167 393.422 214.571C393.797 214.976 394.081 215.465 394.274 216.039C394.474 216.613 394.573 217.258 394.573 217.973V219.177H386.804V217.322H391.682V217.094C391.688 216.777 391.632 216.508 391.515 216.285C391.403 216.062 391.239 215.893 391.022 215.775C390.806 215.658 390.542 215.6 390.231 215.6C389.909 215.6 389.643 215.67 389.432 215.811C389.227 215.951 389.065 216.145 388.948 216.391C388.837 216.631 388.758 216.909 388.711 217.226C388.664 217.542 388.641 217.876 388.641 218.228V218.562C388.641 218.913 388.688 219.232 388.781 219.52C388.881 219.807 389.021 220.053 389.203 220.258C389.391 220.457 389.613 220.612 389.871 220.724C390.135 220.835 390.434 220.891 390.768 220.891C391.172 220.891 391.57 220.814 391.963 220.662C392.355 220.51 392.692 220.258 392.974 219.906L394.318 221.506C394.125 221.781 393.85 222.048 393.492 222.306C393.141 222.563 392.719 222.774 392.227 222.938C391.734 223.097 391.184 223.176 390.574 223.176ZM400.717 220.609V216.689C400.717 216.42 400.679 216.188 400.603 215.995C400.526 215.802 400.406 215.652 400.242 215.547C400.078 215.436 399.858 215.38 399.583 215.38C399.36 215.38 399.17 215.418 399.012 215.494C398.854 215.57 398.733 215.685 398.651 215.837C398.569 215.989 398.528 216.183 398.528 216.417H395.566C395.566 215.978 395.663 215.57 395.856 215.195C396.056 214.814 396.337 214.483 396.7 214.202C397.069 213.921 397.509 213.704 398.019 213.552C398.534 213.394 399.108 213.314 399.741 213.314C400.497 213.314 401.171 213.44 401.763 213.692C402.36 213.944 402.832 214.322 403.178 214.826C403.523 215.324 403.696 215.951 403.696 216.707V220.601C403.696 221.222 403.731 221.693 403.802 222.016C403.872 222.332 403.972 222.61 404.101 222.851V223H401.13C400.989 222.707 400.884 222.35 400.813 221.928C400.749 221.5 400.717 221.061 400.717 220.609ZM401.077 217.19L401.095 218.772H399.785C399.51 218.772 399.275 218.811 399.082 218.887C398.895 218.963 398.742 219.068 398.625 219.203C398.514 219.332 398.432 219.479 398.379 219.643C398.332 219.807 398.309 219.979 398.309 220.161C398.309 220.337 398.35 220.495 398.432 220.636C398.52 220.771 398.637 220.876 398.783 220.952C398.93 221.028 399.094 221.066 399.275 221.066C399.604 221.066 399.882 221.005 400.11 220.882C400.345 220.753 400.523 220.598 400.646 220.416C400.77 220.234 400.831 220.064 400.831 219.906L401.481 221.119C401.364 221.354 401.229 221.591 401.077 221.831C400.931 222.071 400.746 222.294 400.523 222.499C400.307 222.698 400.04 222.862 399.724 222.991C399.407 223.114 399.023 223.176 398.572 223.176C397.986 223.176 397.447 223.056 396.955 222.815C396.469 222.575 396.079 222.241 395.786 221.813C395.493 221.38 395.347 220.882 395.347 220.319C395.347 219.827 395.435 219.388 395.61 219.001C395.792 218.614 396.064 218.286 396.428 218.017C396.791 217.747 397.254 217.542 397.816 217.401C398.379 217.261 399.041 217.19 399.803 217.19H401.077ZM409.356 220.891C409.632 220.891 409.866 220.841 410.06 220.741C410.259 220.636 410.408 220.489 410.508 220.302C410.613 220.108 410.663 219.877 410.657 219.607H413.443C413.449 220.322 413.273 220.949 412.916 221.488C412.564 222.021 412.084 222.438 411.475 222.736C410.871 223.029 410.188 223.176 409.427 223.176C408.683 223.176 408.032 223.056 407.476 222.815C406.919 222.569 406.453 222.229 406.078 221.796C405.709 221.356 405.431 220.844 405.243 220.258C405.062 219.672 404.971 219.036 404.971 218.351V218.148C404.971 217.463 405.062 216.827 405.243 216.241C405.431 215.649 405.709 215.137 406.078 214.703C406.453 214.264 406.916 213.924 407.467 213.684C408.023 213.438 408.671 213.314 409.409 213.314C410.2 213.314 410.897 213.464 411.501 213.763C412.11 214.062 412.588 214.495 412.934 215.063C413.279 215.632 413.449 216.32 413.443 217.129H410.657C410.663 216.842 410.619 216.584 410.525 216.355C410.432 216.127 410.285 215.945 410.086 215.811C409.893 215.67 409.644 215.6 409.339 215.6C409.034 215.6 408.788 215.667 408.601 215.802C408.413 215.937 408.27 216.124 408.17 216.364C408.076 216.599 408.012 216.868 407.977 217.173C407.947 217.478 407.933 217.803 407.933 218.148V218.351C407.933 218.702 407.947 219.033 407.977 219.344C408.012 219.648 408.079 219.918 408.179 220.152C408.278 220.381 408.422 220.562 408.609 220.697C408.797 220.826 409.046 220.891 409.356 220.891ZM419.719 213.49V215.547H413.988V213.49H419.719ZM415.192 211.126H418.154V219.897C418.154 220.149 418.184 220.346 418.242 220.486C418.301 220.621 418.4 220.718 418.541 220.776C418.688 220.829 418.881 220.855 419.121 220.855C419.291 220.855 419.432 220.853 419.543 220.847C419.654 220.835 419.76 220.82 419.859 220.803V222.921C419.607 223.003 419.344 223.064 419.068 223.105C418.793 223.152 418.5 223.176 418.189 223.176C417.557 223.176 417.015 223.076 416.563 222.877C416.118 222.678 415.778 222.364 415.544 221.937C415.31 221.509 415.192 220.952 415.192 220.267V211.126ZM421.09 221.611C421.09 221.189 421.242 220.838 421.547 220.557C421.852 220.27 422.244 220.126 422.725 220.126C423.211 220.126 423.604 220.27 423.902 220.557C424.207 220.838 424.359 221.189 424.359 221.611C424.359 222.033 424.207 222.388 423.902 222.675C423.604 222.956 423.211 223.097 422.725 223.097C422.244 223.097 421.852 222.956 421.547 222.675C421.242 222.388 421.09 222.033 421.09 221.611ZM426.565 213.49H429.536V223.308C429.536 224.069 429.39 224.711 429.097 225.232C428.804 225.76 428.385 226.158 427.84 226.428C427.295 226.703 426.645 226.841 425.889 226.841C425.637 226.841 425.405 226.829 425.194 226.806C424.978 226.788 424.74 226.75 424.482 226.691V224.45C424.635 224.474 424.775 224.491 424.904 224.503C425.033 224.521 425.174 224.529 425.326 224.529C425.596 224.529 425.821 224.485 426.003 224.397C426.185 224.31 426.322 224.175 426.416 223.993C426.516 223.812 426.565 223.583 426.565 223.308V213.49ZM426.346 211.038C426.346 210.616 426.498 210.271 426.803 210.001C427.107 209.731 427.503 209.597 427.989 209.597C428.476 209.597 428.871 209.731 429.176 210.001C429.48 210.271 429.633 210.616 429.633 211.038C429.633 211.46 429.48 211.806 429.176 212.075C428.871 212.345 428.476 212.479 427.989 212.479C427.503 212.479 427.107 212.345 426.803 212.075C426.498 211.806 426.346 211.46 426.346 211.038ZM436.198 220.328C436.198 220.164 436.143 220.023 436.031 219.906C435.926 219.783 435.738 219.672 435.469 219.572C435.199 219.467 434.821 219.361 434.335 219.256C433.872 219.156 433.436 219.024 433.025 218.86C432.621 218.696 432.267 218.497 431.962 218.263C431.657 218.028 431.417 217.75 431.241 217.428C431.071 217.105 430.986 216.736 430.986 216.32C430.986 215.916 431.071 215.535 431.241 215.178C431.417 214.814 431.672 214.495 432.006 214.22C432.346 213.938 432.759 213.719 433.245 213.561C433.731 213.396 434.285 213.314 434.906 213.314C435.762 213.314 436.5 213.446 437.121 213.71C437.742 213.968 438.22 214.331 438.554 214.8C438.894 215.263 439.063 215.799 439.063 216.408H436.102C436.102 216.168 436.061 215.963 435.979 215.793C435.902 215.623 435.776 215.494 435.601 215.406C435.425 215.312 435.19 215.266 434.897 215.266C434.692 215.266 434.505 215.304 434.335 215.38C434.171 215.456 434.039 215.562 433.939 215.696C433.84 215.831 433.79 215.989 433.79 216.171C433.79 216.3 433.819 216.417 433.878 216.522C433.942 216.622 434.039 216.716 434.168 216.804C434.297 216.886 434.461 216.962 434.66 217.032C434.859 217.097 435.1 217.155 435.381 217.208C436.02 217.325 436.617 217.492 437.174 217.709C437.73 217.926 438.182 218.233 438.527 218.632C438.879 219.03 439.055 219.566 439.055 220.24C439.055 220.662 438.958 221.052 438.765 221.409C438.571 221.761 438.293 222.071 437.93 222.341C437.566 222.604 437.13 222.81 436.62 222.956C436.11 223.103 435.536 223.176 434.897 223.176C433.989 223.176 433.222 223.015 432.595 222.692C431.968 222.364 431.493 221.954 431.171 221.462C430.854 220.964 430.696 220.46 430.696 219.95H433.456C433.468 220.243 433.538 220.483 433.667 220.671C433.802 220.858 433.98 220.996 434.203 221.084C434.426 221.172 434.684 221.216 434.977 221.216C435.246 221.216 435.469 221.178 435.645 221.102C435.826 221.025 435.964 220.923 436.058 220.794C436.151 220.659 436.198 220.504 436.198 220.328Z" fill="white"/>
<rect x="482" y="196" width="134" height="41" rx="3" fill="#424242"/>
<rect x="482" y="196" width="134" height="41" rx="3" stroke="#424242" stroke-width="4"/>
<path d="M510.434 218.658H507.252V216.276H510.434C510.867 216.276 511.219 216.203 511.488 216.057C511.758 215.91 511.954 215.708 512.077 215.45C512.206 215.187 512.271 214.891 512.271 214.562C512.271 214.211 512.206 213.886 512.077 213.587C511.954 213.288 511.758 213.048 511.488 212.866C511.219 212.679 510.867 212.585 510.434 212.585H508.412V223H505.327V210.203H510.434C511.459 210.203 512.341 210.391 513.079 210.766C513.823 211.141 514.395 211.656 514.793 212.312C515.191 212.963 515.391 213.707 515.391 214.545C515.391 215.371 515.191 216.092 514.793 216.707C514.395 217.322 513.823 217.803 513.079 218.148C512.341 218.488 511.459 218.658 510.434 218.658ZM520.04 209.5V223H517.069V209.5H520.04ZM526.808 220.609V216.689C526.808 216.42 526.77 216.188 526.693 215.995C526.617 215.802 526.497 215.652 526.333 215.547C526.169 215.436 525.949 215.38 525.674 215.38C525.451 215.38 525.261 215.418 525.103 215.494C524.944 215.57 524.824 215.685 524.742 215.837C524.66 215.989 524.619 216.183 524.619 216.417H521.657C521.657 215.978 521.754 215.57 521.947 215.195C522.146 214.814 522.428 214.483 522.791 214.202C523.16 213.921 523.6 213.704 524.109 213.552C524.625 213.394 525.199 213.314 525.832 213.314C526.588 213.314 527.262 213.44 527.854 213.692C528.451 213.944 528.923 214.322 529.269 214.826C529.614 215.324 529.787 215.951 529.787 216.707V220.601C529.787 221.222 529.822 221.693 529.893 222.016C529.963 222.332 530.062 222.61 530.191 222.851V223H527.221C527.08 222.707 526.975 222.35 526.904 221.928C526.84 221.5 526.808 221.061 526.808 220.609ZM527.168 217.19L527.186 218.772H525.876C525.601 218.772 525.366 218.811 525.173 218.887C524.985 218.963 524.833 219.068 524.716 219.203C524.604 219.332 524.522 219.479 524.47 219.643C524.423 219.807 524.399 219.979 524.399 220.161C524.399 220.337 524.44 220.495 524.522 220.636C524.61 220.771 524.728 220.876 524.874 220.952C525.021 221.028 525.185 221.066 525.366 221.066C525.694 221.066 525.973 221.005 526.201 220.882C526.436 220.753 526.614 220.598 526.737 220.416C526.86 220.234 526.922 220.064 526.922 219.906L527.572 221.119C527.455 221.354 527.32 221.591 527.168 221.831C527.021 222.071 526.837 222.294 526.614 222.499C526.397 222.698 526.131 222.862 525.814 222.991C525.498 223.114 525.114 223.176 524.663 223.176C524.077 223.176 523.538 223.056 523.046 222.815C522.56 222.575 522.17 222.241 521.877 221.813C521.584 221.38 521.438 220.882 521.438 220.319C521.438 219.827 521.525 219.388 521.701 219.001C521.883 218.614 522.155 218.286 522.519 218.017C522.882 217.747 523.345 217.542 523.907 217.401C524.47 217.261 525.132 217.19 525.894 217.19H527.168ZM536.44 213.49V215.547H530.71V213.49H536.44ZM531.914 211.126H534.876V219.897C534.876 220.149 534.905 220.346 534.964 220.486C535.022 220.621 535.122 220.718 535.263 220.776C535.409 220.829 535.603 220.855 535.843 220.855C536.013 220.855 536.153 220.853 536.265 220.847C536.376 220.835 536.481 220.82 536.581 220.803V222.921C536.329 223.003 536.065 223.064 535.79 223.105C535.515 223.152 535.222 223.176 534.911 223.176C534.278 223.176 533.736 223.076 533.285 222.877C532.84 222.678 532.5 222.364 532.266 221.937C532.031 221.509 531.914 220.952 531.914 220.267V211.126ZM541.248 223H538.269V212.717C538.269 211.979 538.418 211.357 538.717 210.854C539.016 210.35 539.438 209.969 539.982 209.711C540.527 209.447 541.172 209.315 541.916 209.315C542.174 209.315 542.417 209.333 542.646 209.368C542.874 209.403 543.097 209.447 543.313 209.5L543.322 211.68C543.217 211.65 543.108 211.63 542.997 211.618C542.886 211.606 542.748 211.601 542.584 211.601C542.297 211.601 542.054 211.645 541.854 211.732C541.655 211.814 541.503 211.94 541.397 212.11C541.298 212.274 541.248 212.477 541.248 212.717V223ZM543.094 213.49V215.547H536.897V213.49H543.094ZM543.788 218.342V218.157C543.788 217.46 543.888 216.818 544.087 216.232C544.286 215.641 544.579 215.128 544.966 214.694C545.353 214.261 545.83 213.924 546.398 213.684C546.967 213.438 547.623 213.314 548.367 213.314C549.117 213.314 549.776 213.438 550.345 213.684C550.919 213.924 551.399 214.261 551.786 214.694C552.173 215.128 552.466 215.641 552.665 216.232C552.864 216.818 552.964 217.46 552.964 218.157V218.342C552.964 219.033 552.864 219.675 552.665 220.267C552.466 220.853 552.173 221.365 551.786 221.805C551.399 222.238 550.922 222.575 550.354 222.815C549.785 223.056 549.129 223.176 548.385 223.176C547.641 223.176 546.981 223.056 546.407 222.815C545.833 222.575 545.353 222.238 544.966 221.805C544.579 221.365 544.286 220.853 544.087 220.267C543.888 219.675 543.788 219.033 543.788 218.342ZM546.75 218.157V218.342C546.75 218.699 546.776 219.033 546.829 219.344C546.882 219.654 546.97 219.927 547.093 220.161C547.216 220.39 547.383 220.568 547.594 220.697C547.805 220.826 548.068 220.891 548.385 220.891C548.695 220.891 548.953 220.826 549.158 220.697C549.369 220.568 549.536 220.39 549.659 220.161C549.782 219.927 549.87 219.654 549.923 219.344C549.976 219.033 550.002 218.699 550.002 218.342V218.157C550.002 217.812 549.976 217.486 549.923 217.182C549.87 216.871 549.782 216.599 549.659 216.364C549.536 216.124 549.369 215.937 549.158 215.802C548.947 215.667 548.684 215.6 548.367 215.6C548.057 215.6 547.796 215.667 547.585 215.802C547.38 215.937 547.216 216.124 547.093 216.364C546.97 216.599 546.882 216.871 546.829 217.182C546.776 217.486 546.75 217.812 546.75 218.157ZM557.271 215.846V223H554.309V213.49H557.077L557.271 215.846ZM560.083 213.42L560.03 216.171C559.913 216.159 559.755 216.145 559.556 216.127C559.356 216.109 559.189 216.101 559.055 216.101C558.709 216.101 558.41 216.142 558.158 216.224C557.912 216.3 557.707 216.417 557.543 216.575C557.385 216.728 557.268 216.921 557.191 217.155C557.121 217.39 557.089 217.662 557.095 217.973L556.559 217.621C556.559 216.982 556.62 216.402 556.743 215.881C556.872 215.354 557.054 214.899 557.288 214.519C557.522 214.132 557.807 213.836 558.141 213.631C558.475 213.42 558.85 213.314 559.266 213.314C559.412 213.314 559.556 213.323 559.696 213.341C559.843 213.358 559.972 213.385 560.083 213.42ZM564.091 215.503V223H561.129V213.49H563.906L564.091 215.503ZM563.73 217.92L563.054 217.938C563.054 217.27 563.133 216.654 563.291 216.092C563.449 215.529 563.684 215.04 563.994 214.624C564.305 214.208 564.686 213.886 565.137 213.657C565.594 213.429 566.121 213.314 566.719 213.314C567.135 213.314 567.513 213.379 567.853 213.508C568.192 213.631 568.485 213.827 568.731 214.097C568.978 214.36 569.165 214.706 569.294 215.134C569.429 215.556 569.496 216.062 569.496 216.654V223H566.534V217.032C566.534 216.628 566.487 216.323 566.394 216.118C566.306 215.913 566.177 215.775 566.007 215.705C565.837 215.635 565.629 215.6 565.383 215.6C565.125 215.6 564.894 215.658 564.688 215.775C564.483 215.893 564.308 216.057 564.161 216.268C564.021 216.473 563.912 216.716 563.836 216.997C563.766 217.278 563.73 217.586 563.73 217.92ZM569.162 217.92L568.336 217.938C568.336 217.27 568.409 216.654 568.556 216.092C568.708 215.529 568.934 215.04 569.232 214.624C569.537 214.208 569.915 213.886 570.366 213.657C570.817 213.429 571.342 213.314 571.939 213.314C572.373 213.314 572.771 213.379 573.135 213.508C573.498 213.637 573.812 213.845 574.075 214.132C574.339 214.419 574.544 214.8 574.69 215.274C574.837 215.743 574.91 216.323 574.91 217.015V223H571.939V217.015C571.939 216.622 571.893 216.326 571.799 216.127C571.711 215.922 571.582 215.784 571.412 215.714C571.242 215.638 571.04 215.6 570.806 215.6C570.524 215.6 570.281 215.658 570.076 215.775C569.871 215.893 569.698 216.057 569.558 216.268C569.423 216.473 569.323 216.716 569.259 216.997C569.194 217.278 569.162 217.586 569.162 217.92ZM580.025 210.203V223H576.949V210.203H580.025ZM593.024 216.347V216.865C593.024 217.844 592.887 218.723 592.611 219.502C592.342 220.275 591.958 220.938 591.46 221.488C590.962 222.033 590.373 222.452 589.693 222.745C589.014 223.032 588.264 223.176 587.443 223.176C586.617 223.176 585.861 223.032 585.176 222.745C584.496 222.452 583.904 222.033 583.4 221.488C582.902 220.938 582.516 220.275 582.24 219.502C581.971 218.723 581.836 217.844 581.836 216.865V216.347C581.836 215.368 581.971 214.489 582.24 213.71C582.516 212.931 582.899 212.269 583.392 211.724C583.89 211.173 584.479 210.754 585.158 210.467C585.844 210.174 586.6 210.027 587.426 210.027C588.246 210.027 588.996 210.174 589.676 210.467C590.361 210.754 590.953 211.173 591.451 211.724C591.949 212.269 592.336 212.931 592.611 213.71C592.887 214.489 593.024 215.368 593.024 216.347ZM589.896 216.865V216.329C589.896 215.696 589.84 215.14 589.729 214.659C589.623 214.173 589.465 213.766 589.254 213.438C589.043 213.109 588.782 212.863 588.472 212.699C588.167 212.529 587.818 212.444 587.426 212.444C587.016 212.444 586.658 212.529 586.354 212.699C586.049 212.863 585.794 213.109 585.589 213.438C585.384 213.766 585.229 214.173 585.123 214.659C585.023 215.14 584.974 215.696 584.974 216.329V216.865C584.974 217.492 585.023 218.049 585.123 218.535C585.229 219.016 585.384 219.423 585.589 219.757C585.8 220.091 586.058 220.343 586.362 220.513C586.673 220.683 587.033 220.768 587.443 220.768C587.836 220.768 588.185 220.683 588.489 220.513C588.794 220.343 589.049 220.091 589.254 219.757C589.465 219.423 589.623 219.016 589.729 218.535C589.84 218.049 589.896 217.492 589.896 216.865Z" fill="white"/>
<rect x="636" y="196" width="131" height="41" rx="3" fill="#424242"/>
<rect x="636" y="196" width="131" height="41" rx="3" stroke="#424242" stroke-width="4"/>
<path d="M665.359 210.203V223H662.274V210.203H665.359ZM669.209 210.203V212.585H658.513V210.203H669.209ZM672.575 221.884L675.036 213.49H678.218L674.395 224.415C674.312 224.655 674.204 224.913 674.069 225.188C673.935 225.47 673.75 225.736 673.516 225.988C673.281 226.24 672.979 226.445 672.61 226.604C672.247 226.762 671.796 226.841 671.257 226.841C670.97 226.841 670.759 226.826 670.624 226.797C670.495 226.773 670.296 226.729 670.026 226.665V224.547C670.103 224.547 670.167 224.547 670.22 224.547C670.278 224.547 670.343 224.547 670.413 224.547C670.729 224.547 670.981 224.515 671.169 224.45C671.362 224.386 671.509 224.292 671.608 224.169C671.714 224.046 671.796 223.896 671.854 223.721L672.575 221.884ZM671.951 213.49L673.823 220.144L674.148 223.281H672.162L668.778 213.49H671.951ZM681.979 215.318V226.656H679.018V213.49H681.777L681.979 215.318ZM687.815 218.131V218.315C687.815 219.007 687.736 219.648 687.578 220.24C687.42 220.832 687.186 221.348 686.875 221.787C686.564 222.227 686.178 222.569 685.715 222.815C685.258 223.056 684.728 223.176 684.124 223.176C683.556 223.176 683.066 223.05 682.656 222.798C682.246 222.546 681.903 222.197 681.628 221.752C681.353 221.307 681.13 220.797 680.96 220.223C680.79 219.648 680.655 219.042 680.556 218.403V218.166C680.655 217.48 680.79 216.845 680.96 216.259C681.13 215.667 681.353 215.151 681.628 214.712C681.903 214.272 682.243 213.93 682.647 213.684C683.058 213.438 683.547 213.314 684.115 213.314C684.719 213.314 685.249 213.429 685.706 213.657C686.169 213.886 686.556 214.214 686.866 214.642C687.183 215.063 687.42 215.57 687.578 216.162C687.736 216.754 687.815 217.41 687.815 218.131ZM684.854 218.315V218.131C684.854 217.762 684.827 217.425 684.774 217.12C684.722 216.81 684.637 216.54 684.52 216.312C684.408 216.083 684.259 215.907 684.071 215.784C683.884 215.661 683.652 215.6 683.377 215.6C683.061 215.6 682.794 215.649 682.577 215.749C682.366 215.843 682.196 215.989 682.067 216.188C681.944 216.382 681.856 216.625 681.804 216.918C681.757 217.205 681.736 217.542 681.742 217.929V218.649C681.73 219.095 681.774 219.487 681.874 219.827C681.974 220.161 682.146 220.422 682.393 220.609C682.639 220.797 682.973 220.891 683.395 220.891C683.676 220.891 683.91 220.826 684.098 220.697C684.285 220.562 684.435 220.378 684.546 220.144C684.657 219.903 684.736 219.628 684.783 219.317C684.83 219.007 684.854 218.673 684.854 218.315ZM693.739 223.176C692.966 223.176 692.274 223.056 691.665 222.815C691.056 222.569 690.54 222.232 690.118 221.805C689.702 221.377 689.383 220.885 689.16 220.328C688.943 219.771 688.835 219.183 688.835 218.562V218.228C688.835 217.53 688.932 216.886 689.125 216.294C689.318 215.696 689.605 215.175 689.986 214.729C690.367 214.284 690.845 213.938 691.419 213.692C691.993 213.44 692.661 213.314 693.423 213.314C694.097 213.314 694.7 213.423 695.233 213.64C695.767 213.856 696.218 214.167 696.587 214.571C696.962 214.976 697.246 215.465 697.439 216.039C697.639 216.613 697.738 217.258 697.738 217.973V219.177H689.969V217.322H694.847V217.094C694.853 216.777 694.797 216.508 694.68 216.285C694.568 216.062 694.404 215.893 694.188 215.775C693.971 215.658 693.707 215.6 693.396 215.6C693.074 215.6 692.808 215.67 692.597 215.811C692.392 215.951 692.23 216.145 692.113 216.391C692.002 216.631 691.923 216.909 691.876 217.226C691.829 217.542 691.806 217.876 691.806 218.228V218.562C691.806 218.913 691.853 219.232 691.946 219.52C692.046 219.807 692.187 220.053 692.368 220.258C692.556 220.457 692.778 220.612 693.036 220.724C693.3 220.835 693.599 220.891 693.933 220.891C694.337 220.891 694.735 220.814 695.128 220.662C695.521 220.51 695.857 220.258 696.139 219.906L697.483 221.506C697.29 221.781 697.015 222.048 696.657 222.306C696.306 222.563 695.884 222.774 695.392 222.938C694.899 223.097 694.349 223.176 693.739 223.176ZM703.926 220.328C703.926 220.164 703.87 220.023 703.759 219.906C703.653 219.783 703.466 219.672 703.196 219.572C702.927 219.467 702.549 219.361 702.062 219.256C701.6 219.156 701.163 219.024 700.753 218.86C700.349 218.696 699.994 218.497 699.689 218.263C699.385 218.028 699.145 217.75 698.969 217.428C698.799 217.105 698.714 216.736 698.714 216.32C698.714 215.916 698.799 215.535 698.969 215.178C699.145 214.814 699.399 214.495 699.733 214.22C700.073 213.938 700.486 213.719 700.973 213.561C701.459 213.396 702.013 213.314 702.634 213.314C703.489 213.314 704.228 213.446 704.849 213.71C705.47 213.968 705.947 214.331 706.281 214.8C706.621 215.263 706.791 215.799 706.791 216.408H703.829C703.829 216.168 703.788 215.963 703.706 215.793C703.63 215.623 703.504 215.494 703.328 215.406C703.152 215.312 702.918 215.266 702.625 215.266C702.42 215.266 702.232 215.304 702.062 215.38C701.898 215.456 701.767 215.562 701.667 215.696C701.567 215.831 701.518 215.989 701.518 216.171C701.518 216.3 701.547 216.417 701.605 216.522C701.67 216.622 701.767 216.716 701.896 216.804C702.024 216.886 702.188 216.962 702.388 217.032C702.587 217.097 702.827 217.155 703.108 217.208C703.747 217.325 704.345 217.492 704.901 217.709C705.458 217.926 705.909 218.233 706.255 218.632C706.606 219.03 706.782 219.566 706.782 220.24C706.782 220.662 706.686 221.052 706.492 221.409C706.299 221.761 706.021 222.071 705.657 222.341C705.294 222.604 704.857 222.81 704.348 222.956C703.838 223.103 703.264 223.176 702.625 223.176C701.717 223.176 700.949 223.015 700.322 222.692C699.695 222.364 699.221 221.954 698.898 221.462C698.582 220.964 698.424 220.46 698.424 219.95H701.184C701.195 220.243 701.266 220.483 701.395 220.671C701.529 220.858 701.708 220.996 701.931 221.084C702.153 221.172 702.411 221.216 702.704 221.216C702.974 221.216 703.196 221.178 703.372 221.102C703.554 221.025 703.691 220.923 703.785 220.794C703.879 220.659 703.926 220.504 703.926 220.328ZM712.188 220.891C712.463 220.891 712.697 220.841 712.891 220.741C713.09 220.636 713.239 220.489 713.339 220.302C713.444 220.108 713.494 219.877 713.488 219.607H716.274C716.28 220.322 716.104 220.949 715.747 221.488C715.396 222.021 714.915 222.438 714.306 222.736C713.702 223.029 713.02 223.176 712.258 223.176C711.514 223.176 710.863 223.056 710.307 222.815C709.75 222.569 709.284 222.229 708.909 221.796C708.54 221.356 708.262 220.844 708.074 220.258C707.893 219.672 707.802 219.036 707.802 218.351V218.148C707.802 217.463 707.893 216.827 708.074 216.241C708.262 215.649 708.54 215.137 708.909 214.703C709.284 214.264 709.747 213.924 710.298 213.684C710.854 213.438 711.502 213.314 712.24 213.314C713.031 213.314 713.729 213.464 714.332 213.763C714.941 214.062 715.419 214.495 715.765 215.063C716.11 215.632 716.28 216.32 716.274 217.129H713.488C713.494 216.842 713.45 216.584 713.356 216.355C713.263 216.127 713.116 215.945 712.917 215.811C712.724 215.67 712.475 215.6 712.17 215.6C711.865 215.6 711.619 215.667 711.432 215.802C711.244 215.937 711.101 216.124 711.001 216.364C710.907 216.599 710.843 216.868 710.808 217.173C710.778 217.478 710.764 217.803 710.764 218.148V218.351C710.764 218.702 710.778 219.033 710.808 219.344C710.843 219.648 710.91 219.918 711.01 220.152C711.109 220.381 711.253 220.562 711.44 220.697C711.628 220.826 711.877 220.891 712.188 220.891ZM720.528 215.846V223H717.566V213.49H720.335L720.528 215.846ZM723.341 213.42L723.288 216.171C723.171 216.159 723.013 216.145 722.813 216.127C722.614 216.109 722.447 216.101 722.312 216.101C721.967 216.101 721.668 216.142 721.416 216.224C721.17 216.3 720.965 216.417 720.801 216.575C720.643 216.728 720.525 216.921 720.449 217.155C720.379 217.39 720.347 217.662 720.353 217.973L719.816 217.621C719.816 216.982 719.878 216.402 720.001 215.881C720.13 215.354 720.312 214.899 720.546 214.519C720.78 214.132 721.064 213.836 721.398 213.631C721.732 213.42 722.107 213.314 722.523 213.314C722.67 213.314 722.813 213.323 722.954 213.341C723.101 213.358 723.229 213.385 723.341 213.42ZM727.489 213.49V223H724.519V213.49H727.489ZM724.343 211.038C724.343 210.616 724.495 210.271 724.8 210.001C725.104 209.731 725.5 209.597 725.986 209.597C726.473 209.597 726.868 209.731 727.173 210.001C727.478 210.271 727.63 210.616 727.63 211.038C727.63 211.46 727.478 211.806 727.173 212.075C726.868 212.345 726.473 212.479 725.986 212.479C725.5 212.479 725.104 212.345 724.8 212.075C724.495 211.806 724.343 211.46 724.343 211.038ZM732.306 215.318V226.656H729.344V213.49H732.104L732.306 215.318ZM738.142 218.131V218.315C738.142 219.007 738.062 219.648 737.904 220.24C737.746 220.832 737.512 221.348 737.201 221.787C736.891 222.227 736.504 222.569 736.041 222.815C735.584 223.056 735.054 223.176 734.45 223.176C733.882 223.176 733.393 223.05 732.982 222.798C732.572 222.546 732.229 222.197 731.954 221.752C731.679 221.307 731.456 220.797 731.286 220.223C731.116 219.648 730.981 219.042 730.882 218.403V218.166C730.981 217.48 731.116 216.845 731.286 216.259C731.456 215.667 731.679 215.151 731.954 214.712C732.229 214.272 732.569 213.93 732.974 213.684C733.384 213.438 733.873 213.314 734.441 213.314C735.045 213.314 735.575 213.429 736.032 213.657C736.495 213.886 736.882 214.214 737.192 214.642C737.509 215.063 737.746 215.57 737.904 216.162C738.062 216.754 738.142 217.41 738.142 218.131ZM735.18 218.315V218.131C735.18 217.762 735.153 217.425 735.101 217.12C735.048 216.81 734.963 216.54 734.846 216.312C734.734 216.083 734.585 215.907 734.397 215.784C734.21 215.661 733.979 215.6 733.703 215.6C733.387 215.6 733.12 215.649 732.903 215.749C732.692 215.843 732.522 215.989 732.394 216.188C732.271 216.382 732.183 216.625 732.13 216.918C732.083 217.205 732.062 217.542 732.068 217.929V218.649C732.057 219.095 732.101 219.487 732.2 219.827C732.3 220.161 732.473 220.422 732.719 220.609C732.965 220.797 733.299 220.891 733.721 220.891C734.002 220.891 734.236 220.826 734.424 220.697C734.611 220.562 734.761 220.378 734.872 220.144C734.983 219.903 735.062 219.628 735.109 219.317C735.156 219.007 735.18 218.673 735.18 218.315ZM744.47 213.49V215.547H738.739V213.49H744.47ZM739.943 211.126H742.905V219.897C742.905 220.149 742.935 220.346 742.993 220.486C743.052 220.621 743.151 220.718 743.292 220.776C743.438 220.829 743.632 220.855 743.872 220.855C744.042 220.855 744.183 220.853 744.294 220.847C744.405 220.835 744.511 220.82 744.61 220.803V222.921C744.358 223.003 744.095 223.064 743.819 223.105C743.544 223.152 743.251 223.176 742.94 223.176C742.308 223.176 741.766 223.076 741.314 222.877C740.869 222.678 740.529 222.364 740.295 221.937C740.061 221.509 739.943 220.952 739.943 220.267V211.126Z" fill="white"/>
<path d="M1066 0H1348C1356.28 0 1363 6.71573 1363 15V282C1363 290.284 1356.28 297 1348 297H1066V0Z" fill="white"/>
<path fill-rule="evenodd" clip-rule="evenodd" d="M1207.5 132.817H1229.5V171.371H1256H1293H1329.5V179.866H1207.5V132.817ZM1219.5 171.045H1227.5V163.203H1219.5V171.045ZM1217.5 163.203V171.045H1209.5V163.203H1217.5ZM1227.5 161.243H1219.5V153.401H1227.5V161.243ZM1217.5 153.401V161.243H1209.5V153.401H1217.5ZM1219.5 151.441V143.599H1227.5V151.441H1219.5ZM1217.5 151.441V143.599H1209.5V151.441H1217.5ZM1219.5 141.639H1227.5V133.797H1219.5V141.639ZM1217.5 133.797V141.639H1209.5V133.797H1217.5Z" fill="#2FE2EE"/>
<path d="M1104.4 181.047C1098.3 181.047 1093.53 179.53 1090.1 176.497C1086.7 173.43 1085 168.897 1085 162.897C1085 156.93 1086.73 152.43 1090.2 149.397C1093.7 146.33 1098.77 144.797 1105.4 144.797H1124.4V151.297H1105.95C1101.58 151.297 1098.35 152.214 1096.25 154.047C1094.18 155.88 1093.15 158.83 1093.15 162.897C1093.15 166.764 1094.07 169.63 1095.9 171.497C1097.73 173.33 1100.42 174.33 1103.95 174.497V160.597H1126.35V181.047H1104.4ZM1111.45 174.547H1118.35V167.097H1111.45V174.547ZM1139.44 180.797C1136.74 180.797 1134.67 180.114 1133.24 178.747C1131.8 177.38 1131.09 175.43 1131.09 172.897C1131.09 170.397 1131.8 168.464 1133.24 167.097C1134.67 165.73 1136.74 165.047 1139.44 165.047H1158.64V163.847C1158.64 161.814 1157.64 160.797 1155.64 160.797H1134.44V155.047H1157.54C1160.57 155.047 1162.72 155.747 1163.99 157.147C1165.25 158.514 1165.89 160.447 1165.89 162.947V180.797H1139.44ZM1140.74 175.047H1158.64V170.797H1140.74C1140.1 170.797 1139.6 170.997 1139.24 171.397C1138.9 171.764 1138.74 172.264 1138.74 172.897C1138.74 173.53 1138.9 174.047 1139.24 174.447C1139.6 174.847 1140.1 175.047 1140.74 175.047ZM1203.11 180.797H1195.86V145.047H1203.11V180.797ZM1201.86 180.797H1184.61C1180.14 180.797 1176.66 179.697 1174.16 177.497C1171.66 175.297 1170.41 172.114 1170.41 167.947C1170.41 163.747 1171.66 160.547 1174.16 158.347C1176.66 156.147 1180.14 155.047 1184.61 155.047H1201.36V160.797H1184.61C1182.44 160.797 1180.77 161.397 1179.61 162.597C1178.47 163.764 1177.91 165.547 1177.91 167.947C1177.91 170.314 1178.47 172.097 1179.61 173.297C1180.77 174.464 1182.44 175.047 1184.61 175.047H1201.86V180.797Z" fill="black"/>
<path d="M1232.5 132.817H1240.5V168.104H1232.5V132.817Z" fill="#2FE2EE"/>
<path d="M1337.5 131.837C1337.5 130.936 1337.32 130.043 1336.97 129.211C1336.62 128.378 1336.1 127.622 1335.45 126.985C1334.8 126.348 1334.03 125.842 1333.18 125.498C1332.33 125.153 1331.42 124.975 1330.5 124.975" stroke="#2FE2EE" stroke-width="3"/>
<path d="M1345.5 131.837C1345.5 129.906 1345.11 127.994 1344.36 126.21C1343.6 124.426 1342.5 122.805 1341.11 121.44C1339.71 120.075 1338.06 118.992 1336.24 118.253C1334.42 117.514 1332.47 117.134 1330.5 117.134" stroke="#2FE2EE" stroke-width="3"/>
<path d="M1341.5 131.837C1341.5 130.421 1341.22 129.019 1340.66 127.71C1340.11 126.402 1339.3 125.214 1338.28 124.212C1337.26 123.211 1336.04 122.417 1334.71 121.875C1333.37 121.333 1331.94 121.054 1330.5 121.054" stroke="#2FE2EE" stroke-width="3"/>
<path d="M1292.5 139.678H1301.5V168.104H1309.5V139.678H1320.5V150.95H1329.5V132.817H1284.5V150.95H1292.5V139.678Z" fill="#2FE2EE"/>
<path d="M1243.5 132.817H1281.5V139.188H1251.5V148.99H1277.5V155.361H1251.5V168.104H1243.5V132.817Z" fill="#2FE2EE"/>
<ellipse cx="1332" cy="130.366" rx="1.5" ry="1.4703" fill="#2FE2EE"/>
<path d="M1091.16 143.109H1083.5V129.876H1106.16V136.738H1091.16V143.109Z" fill="#2FE2EE"/>
</svg>
